{"glyphs":{"0":{"ha":833,"x_min":127,"x_max":705,"o":"m 416 820 q 569 768 503 820 q 670 622 634 716 q 705 402 705 527 q 670 183 705 277 q 569 37 634 89 q 416 -15 504 -15 q 264 37 329 -15 q 163 183 199 89 q 127 402 127 277 q 163 622 127 527 q 264 768 199 716 q 416 820 330 820 m 416 720 q 322 682 363 720 q 258 573 281 644 q 235 402 235 501 q 258 232 235 303 q 322 123 281 160 q 416 85 363 85 q 511 123 470 85 q 575 232 552 160 q 598 402 598 303 q 575 573 598 501 q 511 682 552 644 q 416 720 470 720 z "},"1":{"ha":833,"x_min":149,"x_max":703,"o":"m 661 92 q 693 82 684 92 q 703 46 703 71 q 693 11 703 21 q 661 0 684 0 l 203 0 q 171 11 180 0 q 161 46 161 21 q 171 82 161 71 q 203 92 180 92 l 386 92 l 386 674 l 217 569 q 196 562 205 562 q 159 590 174 562 q 149 621 149 606 q 170 656 149 644 l 426 814 q 453 822 439 822 q 478 812 468 822 q 488 785 488 802 l 488 92 l 661 92 z "},"2":{"ha":833,"x_min":127,"x_max":683,"o":"m 393 820 q 531 792 472 820 q 623 710 591 764 q 656 583 656 656 q 622 455 656 513 q 515 323 587 397 l 287 92 l 581 92 l 581 178 q 593 212 581 201 q 632 222 604 222 q 671 212 660 222 q 683 178 683 201 l 683 46 q 673 11 683 21 q 640 0 663 0 l 170 0 q 137 11 146 0 q 127 46 127 21 q 137 83 127 72 l 435 385 q 523 491 498 449 q 549 583 549 534 q 508 683 549 646 q 394 720 468 720 q 254 682 319 720 l 254 607 q 242 573 254 583 q 203 563 231 563 q 163 573 175 563 q 152 607 152 583 l 152 707 q 168 744 152 733 q 275 800 217 780 q 393 820 332 820 z "},"3":{"ha":833,"x_min":130,"x_max":685,"o":"m 400 820 q 536 792 478 820 q 627 714 595 765 q 659 596 659 664 q 631 495 659 538 q 555 428 604 453 q 651 353 616 402 q 685 234 685 303 q 652 104 685 160 q 556 16 619 47 q 406 -15 493 -15 q 271 8 339 -15 q 150 71 203 31 q 130 104 130 85 q 141 138 130 118 q 180 166 159 166 q 203 157 191 166 q 300 105 248 124 q 406 85 353 85 q 534 125 490 85 q 578 234 578 165 q 533 340 578 304 q 409 376 489 376 l 359 376 q 327 387 336 376 q 317 422 317 397 q 327 458 317 448 q 359 469 336 469 l 397 469 q 514 501 474 469 q 554 596 554 534 q 514 687 554 654 q 401 720 474 720 q 267 693 322 720 l 267 648 q 256 614 267 624 q 216 604 244 604 q 177 614 189 604 q 165 648 165 624 l 165 722 q 170 745 165 736 q 184 760 174 754 q 400 820 281 820 z "},"4":{"ha":833,"x_min":100,"x_max":721,"o":"m 509 820 q 568 767 568 820 l 568 336 l 678 336 q 711 326 701 336 q 721 290 721 315 q 711 255 721 265 q 678 244 701 244 l 568 244 l 568 92 l 658 92 q 691 82 681 92 q 701 46 701 71 q 691 11 701 21 q 658 0 681 0 l 366 0 q 333 11 343 0 q 323 46 323 21 q 333 82 323 71 q 366 92 343 92 l 467 92 l 467 244 l 142 244 q 110 255 119 244 q 100 290 100 265 q 106 322 100 313 l 435 779 q 467 810 450 800 q 509 820 484 820 m 235 336 l 467 336 l 472 673 l 235 336 z "},"5":{"ha":833,"x_min":127,"x_max":685,"o":"m 600 805 q 633 794 623 805 q 643 759 643 784 q 633 723 643 734 q 600 713 623 713 l 284 713 l 275 495 q 421 533 343 533 q 562 498 503 533 q 653 402 622 464 q 685 262 685 341 q 650 120 685 182 q 549 21 614 57 q 399 -15 484 -15 q 268 7 334 -15 q 149 66 202 28 q 127 100 127 80 q 138 133 127 115 q 178 162 156 162 q 201 153 189 162 q 296 104 245 122 q 399 85 348 85 q 494 107 454 85 q 556 169 535 130 q 578 262 578 209 q 558 351 578 312 q 500 411 538 389 q 412 433 463 433 q 330 421 366 433 q 258 385 293 409 q 224 378 248 378 q 184 388 196 378 q 174 422 172 398 l 187 761 q 199 795 189 785 q 238 805 210 805 l 600 805 z "},"6":{"ha":833,"x_min":136,"x_max":703,"o":"m 622 820 q 651 808 640 821 q 661 760 661 795 q 655 730 661 739 q 636 720 648 721 q 359 627 456 711 q 243 399 262 543 q 330 471 278 446 q 439 496 381 496 q 574 464 514 496 q 668 374 634 432 q 703 239 703 315 q 668 108 703 166 q 570 18 633 50 q 425 -15 507 -15 q 289 19 351 -15 q 189 117 227 53 q 136 347 136 207 q 186 569 136 465 q 345 743 236 673 q 622 820 454 812 m 425 395 q 336 377 375 395 q 274 325 296 358 q 252 250 252 292 q 274 165 252 202 q 334 106 295 127 q 425 85 373 85 q 515 104 476 85 q 574 158 553 123 q 595 239 595 193 q 575 321 595 286 q 516 376 554 357 q 425 395 477 395 z "},"7":{"ha":833,"x_min":155,"x_max":698,"o":"m 655 805 q 688 794 678 805 q 698 759 698 784 q 694 732 698 743 l 405 16 q 386 -7 399 1 q 354 -15 372 -15 q 314 -5 330 -15 q 299 21 299 5 q 302 38 299 31 l 578 713 l 257 713 l 257 614 q 245 580 257 590 q 206 570 234 570 q 167 580 178 570 q 155 614 155 590 l 155 759 q 165 794 155 784 q 198 805 175 805 l 655 805 z "},"8":{"ha":833,"x_min":140,"x_max":693,"o":"m 416 820 q 544 790 487 820 q 634 709 602 761 q 667 596 667 658 q 635 498 667 541 q 554 427 604 454 q 655 348 617 399 q 693 231 693 297 q 657 105 693 161 q 558 17 621 49 q 416 -15 495 -15 q 275 17 338 -15 q 176 105 212 49 q 140 231 140 161 q 178 348 140 297 q 278 427 216 399 q 197 498 228 454 q 166 596 166 541 q 199 709 166 658 q 289 790 231 761 q 416 820 346 820 m 416 720 q 341 704 374 720 q 290 661 309 689 q 271 594 271 632 q 290 531 271 559 q 342 486 309 503 q 416 470 376 470 q 491 486 457 470 q 543 531 524 503 q 562 594 562 559 q 543 661 562 632 q 491 704 524 689 q 416 720 458 720 m 416 376 q 329 357 367 376 q 270 306 291 339 q 248 231 248 273 q 270 156 248 189 q 329 104 291 123 q 416 85 367 85 q 504 104 466 85 q 563 156 542 123 q 585 231 585 189 q 563 306 585 273 q 504 357 542 339 q 416 376 466 376 z "},"9":{"ha":833,"x_min":130,"x_max":696,"o":"m 408 820 q 544 786 482 820 q 644 688 606 752 q 696 458 696 598 q 647 236 696 340 q 488 62 597 132 q 211 -15 379 -7 q 182 -3 193 -16 q 172 45 172 10 q 178 75 172 66 q 197 85 184 84 q 474 178 377 94 q 590 406 571 262 q 503 334 555 359 q 393 309 452 309 q 259 341 319 309 q 164 431 199 373 q 130 566 130 490 q 165 697 130 639 q 263 787 199 755 q 408 820 326 820 m 408 720 q 318 701 357 720 q 258 647 279 682 q 237 566 237 612 q 258 484 237 519 q 317 429 279 448 q 408 410 355 410 q 497 428 458 410 q 558 480 536 447 q 581 555 581 513 q 559 640 581 603 q 499 699 538 677 q 408 720 460 720 z "},"\r":{"ha":833,"x_min":0,"x_max":0,"o":""}," ":{"ha":833,"x_min":0,"x_max":0,"o":""},"!":{"ha":833,"x_min":332,"x_max":501,"o":"m 460 861 q 483 852 476 861 q 488 827 490 844 l 455 347 q 444 323 454 332 q 416 315 434 315 q 388 323 399 315 q 377 347 378 332 l 345 827 q 350 852 343 844 q 372 861 357 861 l 460 861 m 416 183 q 481 173 461 183 q 501 140 501 163 l 501 36 q 481 3 501 13 q 416 -7 461 -7 q 352 3 372 -7 q 332 36 332 13 l 332 140 q 352 173 332 163 q 416 183 372 183 z "},"\"":{"ha":833,"x_min":173,"x_max":660,"o":"m 316 861 q 344 827 348 861 l 307 522 q 293 494 304 504 q 260 485 281 485 q 229 494 241 485 q 214 522 216 504 l 177 827 q 205 861 173 861 l 316 861 m 628 861 q 656 827 660 861 l 618 522 q 605 494 616 504 q 572 485 593 485 q 541 494 553 485 q 526 522 528 504 l 489 827 q 517 861 485 861 l 628 861 z "},"#":{"ha":833,"x_min":41,"x_max":792,"o":"m 749 587 q 782 575 772 587 q 792 538 792 564 q 782 500 792 511 q 749 489 772 489 l 618 489 l 574 323 l 702 323 q 735 312 725 323 q 745 274 745 300 q 735 236 745 248 q 702 225 725 225 l 549 225 l 492 7 q 479 -9 490 -3 q 456 -15 469 -15 q 422 -5 437 -15 q 407 22 407 5 q 408 31 407 24 l 459 225 l 281 225 l 225 7 q 212 -9 222 -3 q 189 -15 201 -15 q 155 -5 170 -15 q 140 22 140 5 q 141 31 140 24 l 192 225 l 83 225 q 51 236 60 225 q 41 274 41 248 q 51 312 41 300 q 83 323 60 323 l 217 323 l 260 489 l 131 489 q 98 500 108 489 q 88 538 88 511 q 98 575 88 564 q 131 587 108 587 l 286 587 l 340 798 q 354 814 343 808 q 377 820 364 820 q 411 810 396 820 q 426 783 426 800 q 425 774 426 781 l 376 587 l 553 587 l 608 798 q 621 814 610 808 q 644 820 631 820 q 678 810 663 820 q 693 783 693 800 q 692 774 693 781 l 643 587 l 749 587 m 484 323 l 528 489 l 351 489 l 307 323 l 484 323 z "},"$":{"ha":833,"x_min":121,"x_max":712,"o":"m 412 890 q 449 879 437 890 q 460 846 460 869 l 460 728 q 579 662 524 711 l 579 692 q 591 726 579 716 q 630 736 602 736 q 669 726 658 736 q 681 692 681 716 l 681 564 q 669 530 681 540 q 630 519 658 519 q 597 537 607 519 q 460 634 557 616 l 460 467 q 597 438 546 457 q 682 381 652 418 q 712 283 712 344 q 683 178 712 223 q 596 107 653 133 q 460 80 540 81 l 460 -41 q 449 -74 460 -64 q 412 -85 437 -85 q 376 -74 387 -85 q 365 -41 365 -64 l 365 87 q 223 162 281 104 l 223 124 q 212 90 223 100 q 172 80 200 80 q 133 90 144 80 q 121 124 121 100 l 121 287 q 133 321 121 311 q 172 331 144 331 q 195 325 186 331 q 209 303 203 318 q 266 223 228 252 q 365 184 304 194 l 365 373 q 229 404 277 384 q 152 458 180 423 q 125 549 125 493 q 156 651 125 608 q 241 715 186 693 q 365 736 296 736 l 365 846 q 376 879 365 869 q 412 890 387 890 m 365 638 q 267 613 302 637 q 232 549 232 590 q 246 514 232 528 q 287 492 260 500 q 365 476 311 484 l 365 638 m 460 178 q 568 210 530 182 q 605 283 605 238 q 590 321 605 306 q 547 345 575 336 q 460 362 517 355 l 460 178 z "},"%":{"ha":833,"x_min":34,"x_max":799,"o":"m 220 820 q 313 795 270 820 q 380 727 355 770 q 406 634 406 684 q 380 541 406 584 q 313 473 355 498 q 220 448 270 448 q 127 473 170 448 q 59 541 84 498 q 34 634 34 584 q 59 727 34 684 q 127 795 84 770 q 220 820 170 820 m 680 718 q 711 733 695 733 q 745 715 728 733 q 762 682 762 696 q 745 650 762 666 l 153 87 q 122 73 138 73 q 88 91 104 73 q 71 124 71 109 q 87 155 71 140 l 680 718 m 220 732 q 171 719 193 732 q 135 683 149 705 q 122 634 122 661 q 135 585 122 608 q 171 550 149 563 q 220 536 193 536 q 269 550 246 536 q 304 585 291 563 q 317 634 317 608 q 304 683 317 661 q 269 719 291 705 q 220 732 246 732 m 613 357 q 706 332 663 357 q 774 264 749 307 q 799 171 799 221 q 774 78 799 121 q 706 10 749 35 q 613 -15 663 -15 q 520 10 563 -15 q 452 78 477 35 q 427 171 427 121 q 452 264 427 221 q 520 332 477 307 q 613 357 563 357 m 613 269 q 564 255 587 269 q 529 220 542 242 q 515 171 515 197 q 529 122 515 144 q 564 86 542 100 q 613 73 587 73 q 662 86 640 73 q 697 122 684 100 q 711 171 711 144 q 697 220 711 197 q 662 255 684 242 q 613 269 640 269 z "},"&":{"ha":833,"x_min":100,"x_max":768,"o":"m 392 820 q 604 749 502 820 q 618 713 618 739 l 618 627 q 607 593 618 603 q 568 583 595 583 q 528 593 540 583 q 517 627 517 603 l 517 688 q 391 720 465 720 q 327 704 354 720 q 285 662 299 688 q 271 604 271 635 q 284 538 271 568 q 327 476 298 508 l 526 252 q 574 386 553 312 q 610 414 583 414 l 716 414 q 749 404 739 414 q 759 368 759 393 q 749 333 759 343 q 716 322 739 322 l 653 322 q 595 175 629 239 l 669 92 l 726 92 q 759 82 749 92 q 768 46 768 71 q 759 11 768 21 q 726 0 749 0 l 648 0 q 595 22 616 0 l 536 88 q 330 -15 448 -15 q 207 16 258 -15 q 127 97 155 46 q 100 210 100 149 q 134 332 100 279 q 232 430 169 386 q 165 604 165 509 q 193 713 165 664 q 273 791 221 763 q 392 820 324 820 m 294 361 q 228 292 248 328 q 207 210 207 256 q 222 146 207 175 q 266 102 238 118 q 330 85 294 85 q 471 161 410 85 l 294 361 z "},"'":{"ha":833,"x_min":329,"x_max":504,"o":"m 472 861 q 500 827 504 861 l 463 522 q 449 494 460 504 q 416 485 437 485 q 385 494 397 485 q 370 522 372 504 l 333 827 q 361 861 329 861 l 472 861 z "},"(":{"ha":833,"x_min":201,"x_max":587,"o":"m 523 932 q 537 937 530 937 q 558 929 548 937 q 575 909 568 922 q 587 873 587 890 q 578 853 587 859 q 381 650 460 776 q 302 351 302 524 q 381 53 302 178 q 578 -149 460 -72 q 587 -169 587 -155 q 575 -205 587 -186 q 558 -225 568 -218 q 537 -233 548 -233 q 523 -229 530 -233 q 367 -97 440 -179 q 248 100 294 -14 q 201 351 201 215 q 248 602 201 486 q 368 800 294 717 q 523 932 441 883 z "},")":{"ha":833,"x_min":246,"x_max":631,"o":"m 310 932 q 465 800 392 883 q 585 602 538 717 q 631 351 631 486 q 585 100 631 215 q 466 -97 538 -14 q 310 -229 393 -179 q 296 -233 302 -233 q 275 -225 285 -233 q 258 -205 265 -218 q 246 -169 246 -186 q 255 -149 246 -155 q 452 53 373 -72 q 531 351 531 178 q 452 650 531 524 q 255 853 372 776 q 246 873 246 859 q 258 909 246 890 q 275 929 265 922 q 296 937 285 937 q 310 932 302 937 z "},"*":{"ha":833,"x_min":130,"x_max":703,"o":"m 416 820 q 463 804 448 820 q 475 759 478 787 l 450 569 l 624 651 q 651 658 640 658 q 680 647 667 658 q 699 614 692 635 q 703 589 703 602 q 692 557 703 570 q 659 541 680 545 l 470 505 l 603 363 q 620 327 620 347 q 591 281 620 302 q 553 267 571 267 q 508 298 525 267 l 416 465 l 325 298 q 279 267 308 267 q 241 281 262 267 q 213 327 213 302 q 230 363 213 347 l 361 505 l 174 541 q 141 557 153 545 q 130 589 130 570 q 134 614 130 602 q 153 647 140 635 q 182 658 165 658 q 209 651 193 658 l 382 569 l 358 759 q 357 769 357 762 q 373 806 357 793 q 416 820 388 820 z "},"+":{"ha":833,"x_min":115,"x_max":718,"o":"m 416 696 q 452 686 441 696 q 463 653 463 676 l 463 441 l 675 441 q 708 430 698 441 q 718 395 718 420 q 708 359 718 370 q 675 349 698 349 l 463 349 l 463 136 q 452 103 463 113 q 416 94 441 94 q 381 103 391 94 q 370 136 370 113 l 370 349 l 158 349 q 125 359 135 349 q 115 395 115 370 q 125 430 115 420 q 158 441 135 441 l 370 441 l 370 653 q 381 686 370 676 q 416 696 391 696 z "},",":{"ha":833,"x_min":252,"x_max":508,"o":"m 484 199 q 502 193 496 199 q 508 176 508 186 q 503 157 508 167 l 359 -172 q 301 -199 347 -199 q 252 -165 252 -199 q 254 -155 252 -163 l 317 172 q 329 192 320 185 q 353 199 338 199 l 484 199 z "},"-":{"ha":833,"x_min":115,"x_max":718,"o":"m 675 441 q 708 430 698 441 q 718 395 718 420 q 708 359 718 370 q 675 349 698 349 l 158 349 q 125 359 135 349 q 115 395 115 370 q 125 430 115 420 q 158 441 135 441 l 675 441 z "},".":{"ha":833,"x_min":325,"x_max":508,"o":"m 416 203 q 487 194 465 203 q 508 161 508 184 l 508 36 q 487 3 508 13 q 416 -7 465 -7 q 346 3 368 -7 q 325 36 325 13 l 325 161 q 346 194 325 184 q 416 203 368 203 z "},"/":{"ha":833,"x_min":134,"x_max":699,"o":"m 636 945 q 681 935 663 945 q 699 909 699 925 q 696 898 699 904 l 241 -216 q 224 -234 236 -227 q 197 -241 212 -241 q 152 -231 170 -241 q 134 -205 134 -220 q 136 -193 134 -199 l 592 921 q 609 939 597 932 q 636 945 621 945 z "},":":{"ha":833,"x_min":325,"x_max":508,"o":"m 416 423 q 346 433 368 423 q 325 466 325 443 l 325 591 q 346 624 325 614 q 416 633 368 633 q 487 624 465 633 q 508 591 508 614 l 508 466 q 487 433 508 443 q 416 423 465 423 m 416 -7 q 346 3 368 -7 q 325 36 325 13 l 325 161 q 346 194 325 184 q 416 203 368 203 q 487 194 465 203 q 508 161 508 184 l 508 36 q 487 3 508 13 q 416 -7 465 -7 z "},";":{"ha":833,"x_min":266,"x_max":522,"o":"m 416 423 q 346 433 368 423 q 325 466 325 443 l 325 591 q 346 624 325 614 q 416 633 368 633 q 487 624 465 633 q 508 591 508 614 l 508 466 q 487 433 508 443 q 416 423 465 423 m 498 199 q 515 193 509 199 q 522 176 522 186 q 517 157 522 167 l 373 -172 q 315 -199 361 -199 q 266 -165 266 -199 q 267 -155 266 -163 l 331 172 q 343 192 334 185 q 366 199 352 199 l 498 199 z "},"<":{"ha":833,"x_min":85,"x_max":714,"o":"m 644 701 q 669 707 657 707 q 706 678 691 707 q 714 650 714 662 q 686 614 714 627 l 231 395 l 686 177 q 714 141 714 163 q 706 113 714 129 q 669 83 691 83 q 644 90 657 83 l 117 349 q 92 368 100 357 q 85 395 85 378 q 92 423 85 412 q 117 442 100 434 l 644 701 z "},"=":{"ha":833,"x_min":115,"x_max":718,"o":"m 675 576 q 708 566 698 576 q 718 530 718 555 q 708 495 718 505 q 675 484 698 484 l 158 484 q 125 495 135 484 q 115 530 115 505 q 125 566 115 555 q 158 576 135 576 l 675 576 m 675 305 q 708 295 698 305 q 718 259 718 284 q 708 223 718 234 q 675 213 698 213 l 158 213 q 125 223 135 213 q 115 259 115 234 q 125 295 115 284 q 158 305 135 305 l 675 305 z "},">":{"ha":833,"x_min":119,"x_max":748,"o":"m 716 442 q 741 423 733 434 q 748 395 748 412 q 741 368 748 378 q 716 349 733 357 l 189 90 q 164 83 176 83 q 127 113 142 83 q 119 141 119 129 q 146 177 119 163 l 602 395 l 146 614 q 119 650 119 627 q 127 678 119 662 q 164 707 142 707 q 189 701 176 707 l 716 442 z "},"?":{"ha":833,"x_min":172,"x_max":655,"o":"m 419 861 q 546 834 492 861 q 627 759 599 807 q 655 648 655 711 q 632 548 655 590 q 563 476 608 507 q 443 414 517 445 l 434 317 q 389 284 431 284 q 345 317 347 284 l 336 451 q 339 473 334 465 q 356 486 345 481 l 403 505 q 489 547 457 527 q 535 591 520 566 q 551 648 551 615 q 516 730 551 699 q 420 760 482 760 q 274 735 334 760 l 274 675 q 262 641 274 651 q 223 631 251 631 q 184 641 195 631 q 172 675 172 651 l 172 761 q 176 784 172 775 q 189 799 180 793 q 419 861 292 861 m 389 156 q 449 146 431 156 q 467 113 467 136 l 467 36 q 449 3 467 13 q 389 -7 431 -7 q 330 3 348 -7 q 311 36 311 13 l 311 113 q 330 146 311 136 q 389 156 348 156 z "},"@":{"ha":833,"x_min":34,"x_max":793,"o":"m 448 731 q 630 684 551 731 q 751 553 708 637 q 793 360 793 469 q 770 221 793 281 q 703 126 746 160 q 603 93 659 93 q 527 115 559 93 q 480 180 496 138 q 413 112 445 135 q 338 90 381 90 q 278 108 305 90 q 235 160 250 126 q 219 242 219 195 q 248 372 219 304 q 327 487 277 441 q 434 532 376 532 q 521 465 492 532 l 542 507 q 559 515 546 515 q 582 510 569 515 q 603 497 595 505 q 608 479 611 488 l 556 274 q 551 239 551 256 q 565 194 551 210 q 602 178 578 178 q 682 228 653 178 q 711 360 711 278 q 679 513 711 448 q 586 613 646 578 q 444 648 526 648 q 277 597 352 648 q 160 459 202 547 q 117 264 117 372 q 148 113 117 177 q 237 14 178 49 q 380 -20 296 -20 q 472 -14 427 -20 q 553 5 517 -7 q 560 6 558 6 q 588 -24 579 6 q 591 -43 591 -37 q 575 -68 591 -62 q 487 -94 538 -85 q 381 -104 436 -104 q 195 -59 273 -104 q 76 68 117 -15 q 34 264 34 151 q 88 502 34 395 q 236 670 142 609 q 448 731 330 731 m 431 446 q 378 416 407 446 q 330 339 349 386 q 311 243 311 292 q 323 196 311 212 q 355 180 335 180 q 418 211 389 180 q 465 289 448 242 q 483 380 483 336 q 469 429 483 412 q 431 446 456 446 z "},"A":{"ha":833,"x_min":7,"x_max":826,"o":"m 434 805 q 478 794 461 805 q 503 761 494 784 l 742 92 l 783 92 q 816 82 806 92 q 826 46 826 71 q 816 11 826 21 q 783 0 806 0 l 543 0 q 510 11 520 0 q 500 46 500 21 q 510 82 500 71 q 543 92 520 92 l 635 92 l 579 254 l 250 254 l 194 92 l 276 92 q 309 82 299 92 q 319 46 319 71 q 309 11 319 21 q 276 0 299 0 l 50 0 q 17 11 26 0 q 7 46 7 21 q 17 82 7 71 q 50 92 26 92 l 87 92 l 312 713 l 185 713 q 152 723 162 713 q 142 759 142 734 q 152 794 142 784 q 185 805 162 805 l 434 805 m 409 713 l 282 346 l 548 346 l 422 713 l 409 713 z "},"B":{"ha":833,"x_min":54,"x_max":742,"o":"m 437 805 q 572 778 516 805 q 655 702 627 751 q 684 587 684 652 q 660 495 684 535 q 593 431 637 456 q 704 356 665 408 q 742 230 742 305 q 711 107 742 159 q 623 28 681 56 q 481 0 564 0 l 97 0 q 64 11 74 0 q 54 46 54 21 q 64 82 54 71 q 97 92 74 92 l 180 92 l 180 713 l 97 713 q 64 723 74 713 q 54 759 54 734 q 64 794 54 784 q 97 805 74 805 l 437 805 m 281 462 l 422 462 q 540 494 500 462 q 580 587 580 527 q 541 681 580 649 q 422 713 501 713 l 281 713 l 281 462 m 281 92 l 461 92 q 590 128 545 92 q 635 230 635 164 q 465 370 635 370 l 281 370 l 281 92 z "},"C":{"ha":833,"x_min":80,"x_max":741,"o":"m 677 820 q 717 810 705 820 q 728 776 728 800 l 728 552 q 717 518 728 528 q 677 508 705 508 q 638 518 650 508 q 627 552 627 528 q 606 636 627 598 q 543 697 585 674 q 437 720 500 720 q 307 681 363 720 q 219 570 250 642 q 187 402 187 498 q 217 234 187 306 q 302 124 247 163 q 430 85 357 85 q 558 105 497 85 q 668 162 619 125 q 693 172 680 172 q 729 145 713 172 q 741 109 741 125 q 720 74 741 89 q 583 7 657 30 q 430 -15 509 -15 q 245 37 324 -15 q 123 183 166 89 q 80 402 80 277 q 124 621 80 526 q 248 768 168 715 q 430 820 328 820 q 543 798 494 820 q 627 736 593 777 l 627 776 q 638 810 627 800 q 677 820 650 820 z "},"D":{"ha":833,"x_min":54,"x_max":773,"o":"m 416 805 q 604 756 523 805 q 729 617 684 708 q 773 402 773 526 q 729 188 773 279 q 604 48 684 97 q 416 0 523 0 l 97 0 q 64 11 74 0 q 54 46 54 21 q 64 82 54 71 q 97 92 74 92 l 173 92 l 173 713 l 97 713 q 64 723 74 713 q 54 759 54 734 q 64 794 54 784 q 97 805 74 805 l 416 805 m 275 92 l 401 92 q 541 128 481 92 q 633 233 601 163 q 666 402 666 302 q 633 571 666 502 q 541 677 601 641 q 401 713 481 713 l 275 713 l 275 92 z "},"E":{"ha":833,"x_min":54,"x_max":746,"o":"m 695 292 q 734 281 723 292 q 746 248 746 271 l 746 46 q 736 11 746 21 q 703 0 726 0 l 97 0 q 64 11 74 0 q 54 46 54 21 q 64 82 54 71 q 97 92 74 92 l 166 92 l 166 713 l 97 713 q 64 723 74 713 q 54 759 54 734 q 64 794 54 784 q 97 805 74 805 l 690 805 q 723 794 713 805 q 732 759 732 784 l 732 587 q 721 553 732 563 q 682 543 709 543 q 642 553 654 543 q 631 587 631 563 l 631 713 l 268 713 l 268 461 l 443 461 l 443 523 q 453 557 443 547 q 491 567 464 567 q 529 557 518 567 q 539 523 539 547 l 539 307 q 529 273 539 283 q 491 263 518 263 q 453 273 464 263 q 443 307 443 283 l 443 369 l 268 369 l 268 92 l 644 92 l 644 248 q 656 281 644 271 q 695 292 667 292 z "},"F":{"ha":833,"x_min":54,"x_max":753,"o":"m 710 805 q 743 794 733 805 q 753 759 753 784 l 753 580 q 741 546 753 556 q 702 536 730 536 q 663 546 674 536 q 651 580 651 556 l 651 713 l 288 713 l 288 448 l 460 448 l 460 509 q 471 543 460 533 q 509 553 481 553 q 546 543 536 553 q 557 509 557 533 l 557 294 q 546 260 557 270 q 509 250 536 250 q 471 260 481 250 q 460 294 460 270 l 460 355 l 288 355 l 288 92 l 446 92 q 478 82 469 92 q 488 46 488 71 q 478 11 488 21 q 446 0 469 0 l 97 0 q 64 11 74 0 q 54 46 54 21 q 64 82 54 71 q 97 92 74 92 l 186 92 l 186 713 l 97 713 q 64 723 74 713 q 54 759 54 734 q 64 794 54 784 q 97 805 74 805 l 710 805 z "},"G":{"ha":833,"x_min":66,"x_max":792,"o":"m 669 820 q 709 810 697 820 q 720 776 720 800 l 720 579 q 709 545 720 555 q 669 535 697 535 q 630 545 642 535 q 618 579 618 555 q 596 652 618 620 q 532 702 574 684 q 430 720 489 720 q 297 681 355 720 q 206 570 239 642 q 174 402 174 498 q 204 234 174 306 q 292 124 235 163 q 423 85 349 85 q 626 124 542 85 l 626 278 l 458 278 q 426 289 435 278 q 416 324 416 299 q 426 360 416 349 q 458 370 435 370 l 749 370 q 782 360 772 370 q 792 324 792 349 q 782 289 792 299 q 749 278 772 278 l 728 278 l 728 97 q 703 50 728 64 q 575 2 648 18 q 423 -15 503 -15 q 236 37 317 -15 q 111 183 155 89 q 66 402 66 278 q 112 621 66 526 q 239 768 158 715 q 423 820 320 820 q 536 800 487 820 q 618 743 585 780 l 618 776 q 630 810 618 800 q 669 820 642 820 z "},"H":{"ha":833,"x_min":54,"x_max":779,"o":"m 736 805 q 769 794 759 805 q 779 759 779 784 q 769 723 779 734 q 736 713 759 713 l 687 713 l 687 92 l 736 92 q 769 82 759 92 q 779 46 779 71 q 769 11 779 21 q 736 0 759 0 l 523 0 q 490 11 500 0 q 480 46 480 21 q 490 82 480 71 q 523 92 500 92 l 585 92 l 585 369 l 248 369 l 248 92 l 310 92 q 343 82 333 92 q 353 46 353 71 q 343 11 353 21 q 310 0 333 0 l 97 0 q 64 11 74 0 q 54 46 54 21 q 64 82 54 71 q 97 92 74 92 l 146 92 l 146 713 l 97 713 q 64 723 74 713 q 54 759 54 734 q 64 794 54 784 q 97 805 74 805 l 310 805 q 343 794 333 805 q 353 759 353 784 q 343 723 353 734 q 310 713 333 713 l 248 713 l 248 461 l 585 461 l 585 713 l 523 713 q 490 723 500 713 q 480 759 480 734 q 490 794 480 784 q 523 805 500 805 l 736 805 z "},"I":{"ha":833,"x_min":136,"x_max":697,"o":"m 641 805 q 674 794 664 805 q 684 759 684 784 q 674 723 684 734 q 641 713 664 713 l 467 713 l 467 92 l 654 92 q 687 82 677 92 q 697 46 697 71 q 687 11 697 21 q 654 0 677 0 l 178 0 q 145 11 155 0 q 136 46 136 21 q 145 82 136 71 q 178 92 155 92 l 366 92 l 366 713 l 192 713 q 159 723 169 713 q 149 759 149 734 q 159 794 149 784 q 192 805 169 805 l 641 805 z "},"J":{"ha":833,"x_min":78,"x_max":785,"o":"m 743 805 q 775 794 766 805 q 785 759 785 784 q 775 723 785 734 q 743 713 766 713 l 606 713 l 606 226 q 537 46 606 107 q 335 -15 468 -15 q 195 13 258 -15 q 89 87 132 40 q 78 122 78 100 l 78 315 q 90 349 78 339 q 129 359 101 359 q 168 349 157 359 q 180 315 180 339 l 180 136 q 336 85 237 85 q 465 125 425 85 q 505 246 505 164 l 505 713 l 273 713 q 240 723 250 713 q 231 759 231 734 q 240 794 231 784 q 273 805 250 805 l 743 805 z "},"K":{"ha":833,"x_min":54,"x_max":806,"o":"m 743 805 q 775 794 766 805 q 785 759 785 784 q 775 723 785 734 q 743 713 766 713 l 701 713 l 417 438 q 433 439 422 439 q 575 371 522 439 q 612 310 596 344 q 647 225 628 276 q 661 190 650 218 q 683 141 672 161 q 744 92 709 92 l 763 92 q 796 82 786 92 q 806 46 806 71 q 796 11 806 21 q 763 0 786 0 l 707 0 q 591 94 639 0 q 551 187 574 128 q 522 257 535 229 q 494 308 509 286 q 453 343 477 331 q 397 355 428 355 q 342 345 368 355 q 295 315 315 335 l 275 296 l 275 92 l 385 92 q 417 82 408 92 q 427 46 427 71 q 417 11 427 21 q 385 0 408 0 l 97 0 q 64 11 74 0 q 54 46 54 21 q 64 82 54 71 q 97 92 74 92 l 173 92 l 173 713 l 97 713 q 64 723 74 713 q 54 759 54 734 q 64 794 54 784 q 97 805 74 805 l 337 805 q 370 794 360 805 q 380 759 380 784 q 370 723 380 734 q 337 713 360 713 l 275 713 l 275 422 l 572 713 l 523 713 q 490 723 500 713 q 480 759 480 734 q 490 794 480 784 q 523 805 500 805 l 743 805 z "},"L":{"ha":833,"x_min":54,"x_max":746,"o":"m 473 805 q 506 794 496 805 q 515 759 515 784 q 506 723 515 734 q 473 713 496 713 l 309 713 l 309 92 l 644 92 l 644 315 q 656 349 644 339 q 695 359 667 359 q 734 349 723 359 q 746 315 746 339 l 746 46 q 736 11 746 21 q 703 0 726 0 l 97 0 q 64 11 74 0 q 54 46 54 21 q 64 82 54 71 q 97 92 74 92 l 207 92 l 207 713 l 97 713 q 64 723 74 713 q 54 759 54 734 q 64 794 54 784 q 97 805 74 805 l 473 805 z "},"M":{"ha":833,"x_min":20,"x_max":812,"o":"m 749 805 q 782 794 772 805 q 792 759 792 784 q 782 723 792 734 q 749 713 772 713 l 715 713 l 733 92 l 770 92 q 803 82 793 92 q 812 46 812 71 q 803 11 812 21 q 770 0 793 0 l 557 0 q 524 11 534 0 q 514 46 514 21 q 524 82 514 71 q 557 92 534 92 l 632 92 l 617 648 l 479 261 q 455 227 470 237 q 416 217 441 217 q 377 227 392 217 q 354 261 363 237 l 215 648 l 201 92 l 276 92 q 309 82 299 92 q 319 46 319 71 q 309 11 319 21 q 276 0 299 0 l 63 0 q 30 11 40 0 q 20 46 20 21 q 30 82 20 71 q 63 92 40 92 l 100 92 l 117 713 l 83 713 q 51 723 60 713 q 41 759 41 734 q 51 794 41 784 q 83 805 60 805 l 227 805 q 252 800 243 805 q 266 783 262 794 l 416 370 l 566 783 q 606 805 574 805 l 749 805 z "},"N":{"ha":833,"x_min":47,"x_max":785,"o":"m 743 805 q 775 794 766 805 q 785 759 785 784 q 775 723 785 734 q 743 713 766 713 l 704 713 l 704 25 q 691 -4 704 7 q 653 -15 679 -15 q 596 22 617 -15 l 244 651 l 241 651 l 241 92 l 337 92 q 370 82 360 92 q 380 46 380 71 q 370 11 380 21 q 337 0 360 0 l 97 0 q 64 11 74 0 q 54 46 54 21 q 64 82 54 71 q 97 92 74 92 l 142 92 l 142 713 l 90 713 q 57 723 67 713 q 47 759 47 734 q 57 794 47 784 q 90 805 67 805 l 242 805 q 266 800 257 805 q 281 786 275 795 l 602 211 l 605 211 l 605 713 l 523 713 q 490 723 500 713 q 480 759 480 734 q 490 794 480 784 q 523 805 500 805 l 743 805 z "},"O":{"ha":833,"x_min":60,"x_max":773,"o":"m 416 820 q 603 768 522 820 q 729 621 684 715 q 773 402 773 526 q 729 183 773 278 q 603 37 684 89 q 416 -15 522 -15 q 230 37 311 -15 q 104 183 149 89 q 60 402 60 278 q 104 621 60 526 q 230 768 149 715 q 416 820 311 820 m 416 720 q 285 681 342 720 q 198 570 229 642 q 167 402 167 498 q 198 234 167 306 q 285 124 229 163 q 416 85 342 85 q 548 124 491 85 q 635 234 604 163 q 666 402 666 306 q 635 570 666 498 q 548 681 604 642 q 416 720 491 720 z "},"P":{"ha":833,"x_min":54,"x_max":754,"o":"m 468 805 q 623 773 558 805 q 721 683 687 741 q 754 548 754 625 q 721 414 754 471 q 623 325 687 357 q 468 294 558 294 l 309 294 l 309 92 l 471 92 q 504 82 494 92 q 514 46 514 71 q 504 11 514 21 q 471 0 494 0 l 97 0 q 64 11 74 0 q 54 46 54 21 q 64 82 54 71 q 97 92 74 92 l 207 92 l 207 713 l 97 713 q 64 723 74 713 q 54 759 54 734 q 64 794 54 784 q 97 805 74 805 l 468 805 m 309 386 l 454 386 q 597 429 548 386 q 647 548 647 471 q 597 669 647 626 q 454 713 547 713 l 309 713 l 309 386 z "},"Q":{"ha":833,"x_min":60,"x_max":773,"o":"m 416 820 q 603 771 522 820 q 729 631 684 722 q 773 419 773 540 q 729 208 773 298 q 603 68 684 117 q 416 19 522 19 q 381 20 397 19 l 294 -71 q 402 -50 349 -50 q 443 -52 424 -50 q 492 -61 463 -55 q 565 -71 538 -71 q 618 -62 592 -71 q 673 -33 644 -54 q 686 -28 680 -28 q 707 -37 696 -28 q 726 -58 718 -45 q 737 -93 737 -78 q 722 -121 737 -111 q 648 -163 683 -151 q 578 -175 613 -175 q 541 -172 561 -175 q 508 -167 521 -170 q 490 -163 496 -165 q 432 -153 455 -156 q 381 -149 408 -149 q 229 -182 308 -149 q 218 -184 224 -184 q 172 -153 196 -184 q 155 -113 155 -130 q 161 -96 155 -104 l 283 42 q 119 180 178 81 q 60 419 60 279 q 104 631 60 540 q 230 771 149 722 q 416 820 311 820 m 416 720 q 285 684 341 720 q 198 580 229 648 q 167 419 167 512 q 198 258 167 326 q 285 155 229 191 q 416 119 341 119 q 548 155 492 119 q 635 258 604 191 q 666 419 666 326 q 635 580 666 512 q 548 684 604 648 q 416 720 492 720 z "},"R":{"ha":833,"x_min":54,"x_max":806,"o":"m 440 805 q 586 777 525 805 q 678 696 646 748 q 709 576 709 645 q 659 446 709 499 q 522 372 609 392 q 585 324 559 357 q 621 269 606 296 q 654 201 635 241 q 683 141 673 160 q 744 92 709 92 l 763 92 q 796 82 786 92 q 806 46 806 71 q 796 11 806 21 q 763 0 786 0 l 714 0 q 645 21 673 0 q 591 94 617 43 q 554 173 576 124 q 521 242 534 218 q 491 292 509 267 q 442 335 471 320 q 374 349 414 349 l 281 349 l 281 92 l 370 92 q 402 82 393 92 q 412 46 412 71 q 402 11 412 21 q 370 0 393 0 l 97 0 q 64 11 74 0 q 54 46 54 21 q 64 82 54 71 q 97 92 74 92 l 180 92 l 180 713 l 97 713 q 64 723 74 713 q 54 759 54 734 q 64 794 54 784 q 97 805 74 805 l 440 805 m 281 441 l 419 441 q 602 576 602 441 q 556 677 602 642 q 426 713 510 713 l 281 713 l 281 441 z "},"S":{"ha":833,"x_min":107,"x_max":722,"o":"m 640 820 q 679 810 667 820 q 690 776 690 800 l 690 620 q 679 586 690 596 q 640 576 667 576 q 604 593 614 576 q 513 687 572 655 q 378 720 454 720 q 263 685 304 720 q 222 592 222 650 q 236 545 222 564 q 277 513 250 526 q 332 493 300 500 q 418 475 364 485 q 510 455 476 463 q 578 434 545 448 q 684 356 646 406 q 722 222 722 307 q 689 98 722 151 q 591 15 656 45 q 435 -15 526 -15 q 310 10 368 -15 q 209 82 252 35 l 209 29 q 197 -5 209 5 q 158 -15 186 -15 q 119 -5 130 -15 q 107 29 107 5 l 107 233 q 119 267 107 256 q 158 277 130 277 q 197 248 187 277 q 286 127 225 170 q 435 85 347 85 q 569 123 522 85 q 615 222 615 160 q 594 291 615 264 q 532 336 572 318 q 475 354 506 347 q 392 372 445 361 q 299 393 336 383 q 229 416 261 402 q 145 483 175 441 q 115 592 115 524 q 148 713 115 662 q 242 792 182 765 q 378 820 302 820 q 494 797 438 820 q 589 734 549 774 l 589 776 q 600 810 589 800 q 640 820 612 820 z "},"T":{"ha":833,"x_min":83,"x_max":750,"o":"m 707 805 q 740 794 730 805 q 750 759 750 784 l 750 503 q 739 469 750 479 q 699 459 727 459 q 660 469 671 459 q 648 503 648 479 l 648 713 l 467 713 l 467 92 l 627 92 q 660 82 650 92 q 670 46 670 71 q 660 11 670 21 q 627 0 650 0 l 205 0 q 173 11 182 0 q 163 46 163 21 q 173 82 163 71 q 205 92 182 92 l 366 92 l 366 713 l 184 713 l 184 503 q 173 469 184 479 q 134 459 161 459 q 94 469 106 459 q 83 503 83 479 l 83 759 q 93 794 83 784 q 125 805 102 805 l 707 805 z "},"U":{"ha":833,"x_min":47,"x_max":785,"o":"m 743 805 q 775 794 766 805 q 785 759 785 784 q 775 723 785 734 q 743 713 766 713 l 701 713 l 701 267 q 626 55 701 125 q 416 -15 552 -15 q 207 55 281 -15 q 132 267 132 125 l 132 713 l 90 713 q 57 723 67 713 q 47 759 47 734 q 57 794 47 784 q 90 805 67 805 l 310 805 q 343 794 333 805 q 353 759 353 784 q 343 723 353 734 q 310 713 333 713 l 234 713 l 234 280 q 278 131 234 176 q 416 85 322 85 q 555 131 511 85 q 599 280 599 176 l 599 713 l 523 713 q 490 723 500 713 q 480 759 480 734 q 490 794 480 784 q 523 805 500 805 l 743 805 z "},"V":{"ha":833,"x_min":7,"x_max":826,"o":"m 783 805 q 816 794 806 805 q 826 759 826 784 q 816 723 826 734 q 783 713 806 713 l 731 713 l 488 29 q 461 -5 479 5 q 414 -15 444 -15 q 368 -4 385 -15 q 342 29 351 6 l 101 713 l 50 713 q 17 723 26 713 q 7 759 7 734 q 17 794 7 784 q 50 805 26 805 l 303 805 q 336 794 326 805 q 346 759 346 784 q 336 723 346 734 q 303 713 326 713 l 208 713 l 415 113 l 625 713 l 557 713 q 524 723 534 713 q 514 759 514 734 q 524 794 514 784 q 557 805 534 805 l 783 805 z "},"W":{"ha":833,"x_min":-7,"x_max":840,"o":"m 797 805 q 830 794 820 805 q 840 759 840 784 q 830 723 840 734 q 797 713 820 713 l 760 713 l 667 29 q 649 -5 663 5 q 608 -15 635 -15 q 539 29 553 -15 l 414 423 l 287 29 q 216 -15 273 -15 q 176 -5 190 -15 q 159 29 162 5 l 69 713 l 36 713 q 3 723 13 713 q -7 759 -7 734 q 3 794 -7 784 q 36 805 13 805 l 269 805 q 302 794 292 805 q 312 759 312 784 q 302 723 312 734 q 269 713 292 713 l 170 713 l 238 170 l 366 568 q 414 600 375 600 q 448 593 436 600 q 464 573 460 587 l 591 170 l 661 713 l 577 713 q 544 723 554 713 q 534 759 534 734 q 544 794 534 784 q 577 805 554 805 l 797 805 z "},"X":{"ha":833,"x_min":34,"x_max":799,"o":"m 736 805 q 769 794 759 805 q 779 759 779 784 q 769 723 779 734 q 736 713 759 713 l 692 713 l 482 418 l 717 92 l 756 92 q 789 82 779 92 q 799 46 799 71 q 789 11 799 21 q 756 0 779 0 l 516 0 q 483 11 493 0 q 473 46 473 21 q 483 82 473 71 q 516 92 493 92 l 590 92 l 417 340 l 240 92 l 296 92 q 329 82 319 92 q 339 46 339 71 q 329 11 339 21 q 296 0 319 0 l 77 0 q 44 11 54 0 q 34 46 34 21 q 44 82 34 71 q 77 92 54 92 l 119 92 l 355 420 l 144 713 l 97 713 q 64 723 74 713 q 54 759 54 734 q 64 794 54 784 q 97 805 74 805 l 330 805 q 363 794 353 805 q 373 759 373 784 q 363 723 373 734 q 330 713 353 713 l 270 713 l 420 498 l 570 713 l 530 713 q 497 723 507 713 q 487 759 487 734 q 497 794 487 784 q 530 805 507 805 l 736 805 z "},"Y":{"ha":833,"x_min":41,"x_max":792,"o":"m 749 805 q 782 794 772 805 q 792 759 792 784 q 782 723 792 734 q 749 713 772 713 l 703 713 l 467 334 l 467 92 l 621 92 q 653 82 644 92 q 663 46 663 71 q 653 11 663 21 q 621 0 644 0 l 212 0 q 179 11 189 0 q 170 46 170 21 q 179 82 170 71 q 212 92 189 92 l 366 92 l 366 334 l 131 713 l 83 713 q 51 723 60 713 q 41 759 41 734 q 51 794 41 784 q 83 805 60 805 l 310 805 q 343 794 333 805 q 353 759 353 784 q 343 723 353 734 q 310 713 333 713 l 247 713 l 416 435 l 587 713 l 543 713 q 510 723 520 713 q 500 759 500 734 q 510 794 500 784 q 543 805 520 805 l 749 805 z "},"Z":{"ha":833,"x_min":113,"x_max":718,"o":"m 669 805 q 702 794 692 805 q 712 759 712 784 q 705 732 712 742 l 256 92 l 616 92 l 616 275 q 628 309 616 298 q 667 319 640 319 q 707 309 695 319 q 718 275 718 298 l 718 46 q 708 11 718 21 q 675 0 699 0 l 156 0 q 123 11 133 0 q 113 46 113 21 q 123 75 113 61 l 570 713 l 229 713 l 229 544 q 218 510 229 520 q 178 500 206 500 q 139 510 151 500 q 127 544 127 520 l 127 759 q 137 794 127 784 q 170 805 147 805 l 669 805 z "},"[":{"ha":833,"x_min":224,"x_max":590,"o":"m 547 -128 q 580 -139 570 -128 q 590 -177 590 -151 q 580 -215 590 -203 q 547 -226 570 -226 l 267 -226 q 234 -215 243 -226 q 224 -180 224 -205 l 224 884 q 234 920 224 909 q 267 930 243 930 l 547 930 q 580 919 570 930 q 590 882 590 908 q 580 844 590 855 q 547 833 570 833 l 326 833 l 326 -128 l 547 -128 z "},"\\":{"ha":833,"x_min":134,"x_max":699,"o":"m 197 945 q 224 939 212 945 q 241 921 236 932 l 696 -193 q 699 -205 699 -199 q 681 -231 699 -220 q 636 -241 663 -241 q 609 -234 621 -241 q 592 -216 597 -227 l 136 898 q 134 909 134 904 q 152 935 134 925 q 197 945 170 945 z "},"]":{"ha":833,"x_min":243,"x_max":609,"o":"m 566 930 q 599 920 589 930 q 609 884 609 909 l 609 -180 q 599 -215 609 -205 q 566 -226 589 -226 l 286 -226 q 253 -215 262 -226 q 243 -177 243 -203 q 253 -139 243 -151 q 286 -128 262 -128 l 507 -128 l 507 833 l 286 833 q 253 844 262 833 q 243 882 243 855 q 253 919 243 908 q 286 930 262 930 l 566 930 z "},"^":{"ha":833,"x_min":157,"x_max":675,"o":"m 416 820 q 446 814 435 820 q 463 795 456 808 l 671 394 q 675 380 675 387 q 666 359 675 368 q 642 345 656 350 q 614 340 629 340 q 591 345 601 340 q 577 357 581 349 l 416 683 l 256 357 q 242 345 252 349 q 219 340 232 340 q 191 345 203 340 q 167 359 176 350 q 157 380 157 368 q 161 394 157 387 l 370 795 q 387 814 377 808 q 416 820 397 820 z "},"_":{"ha":833,"x_min":-19,"x_max":852,"o":"m 836 -171 q 848 -180 844 -171 q 852 -217 852 -189 q 848 -254 852 -245 q 836 -263 844 -263 l -3 -263 q -15 -254 -12 -263 q -19 -217 -19 -245 q -15 -180 -19 -189 q -3 -171 -12 -171 l 836 -171 z "},"`":{"ha":833,"x_min":212,"x_max":550,"o":"m 539 777 q 550 756 550 769 q 534 721 550 739 q 503 704 519 704 q 481 711 493 704 l 227 859 q 212 886 212 868 q 233 932 212 905 q 278 960 255 960 q 303 951 291 960 l 539 777 z "},"a":{"ha":833,"x_min":92,"x_max":785,"o":"m 419 642 q 610 585 547 642 q 674 416 674 528 l 674 146 q 719 92 674 92 l 743 92 q 775 82 766 92 q 785 46 785 71 q 775 11 785 21 q 743 0 766 0 l 699 0 q 624 22 655 0 q 583 87 592 44 q 462 12 527 38 q 325 -15 397 -15 q 204 8 256 -15 q 121 77 151 32 q 92 183 92 121 q 168 341 92 290 q 366 393 245 393 q 572 358 474 393 l 572 416 q 535 512 572 481 q 416 543 498 543 q 311 529 366 543 q 206 490 256 515 q 185 484 195 484 q 148 516 163 484 q 140 543 140 532 q 165 580 140 567 q 288 626 222 610 q 419 642 353 642 m 367 297 q 244 270 289 297 q 199 185 199 243 q 233 108 199 136 q 329 81 267 81 q 572 193 464 81 l 572 267 q 473 289 526 281 q 367 297 420 297 z "},"b":{"ha":833,"x_min":25,"x_max":747,"o":"m 196 890 q 229 879 219 890 q 239 844 239 869 l 239 530 q 454 642 326 642 q 604 602 538 642 q 709 488 671 562 q 747 313 747 414 q 709 139 747 213 q 604 25 671 64 q 454 -15 538 -15 q 331 15 387 -15 q 232 100 275 45 l 232 46 q 222 11 232 21 q 189 0 212 0 l 81 0 q 48 11 58 0 q 39 46 39 21 q 48 82 39 71 q 81 92 58 92 l 137 92 l 137 798 l 68 798 q 35 808 45 798 q 25 844 25 819 q 35 879 25 869 q 68 890 45 890 l 196 890 m 447 541 q 339 514 387 541 q 266 435 292 487 q 239 313 239 384 q 266 191 239 243 q 339 113 292 140 q 447 85 387 85 q 551 114 507 85 q 617 195 594 143 q 640 313 640 246 q 617 432 640 380 q 551 512 594 484 q 447 541 507 541 z "},"c":{"ha":833,"x_min":86,"x_max":714,"o":"m 661 642 q 700 631 688 642 q 711 597 711 621 l 711 401 q 700 367 711 377 q 661 357 688 357 q 621 367 633 357 q 610 401 610 377 q 588 474 610 442 q 523 524 566 506 q 420 541 480 541 q 303 512 355 541 q 222 431 252 483 q 193 313 193 378 q 221 196 193 248 q 298 115 248 144 q 413 85 348 85 q 534 105 475 85 q 641 161 593 124 q 667 172 655 172 q 704 144 687 172 q 714 111 714 127 q 692 72 714 87 q 564 8 638 31 q 413 -15 490 -15 q 242 28 316 -15 q 127 145 168 71 q 86 313 86 220 q 127 481 86 407 q 243 599 169 556 q 413 642 317 642 q 524 620 473 642 q 610 557 574 597 l 610 597 q 621 631 610 621 q 661 642 633 642 z "},"d":{"ha":833,"x_min":86,"x_max":794,"o":"m 653 890 q 686 879 676 890 q 696 844 696 869 l 696 92 l 751 92 q 784 82 774 92 q 794 46 794 71 q 784 11 794 21 q 751 0 774 0 l 644 0 q 611 11 621 0 q 601 46 601 21 l 601 100 q 502 15 558 45 q 379 -15 446 -15 q 229 25 295 -15 q 124 139 162 64 q 86 313 86 213 q 124 488 86 414 q 229 602 162 562 q 379 642 295 642 q 594 530 507 642 l 594 798 l 484 798 q 451 808 461 798 q 441 844 441 819 q 451 879 441 869 q 484 890 461 890 l 653 890 m 386 541 q 282 512 326 541 q 216 432 239 484 q 193 313 193 380 q 216 195 193 246 q 282 114 239 143 q 386 85 326 85 q 493 113 446 85 q 567 191 541 140 q 594 313 594 243 q 567 435 594 384 q 493 514 541 487 q 386 541 446 541 z "},"e":{"ha":833,"x_min":99,"x_max":740,"o":"m 422 642 q 590 602 521 642 q 697 492 660 562 q 740 330 734 422 q 730 298 740 307 q 697 288 720 288 l 206 288 q 266 135 211 187 q 422 83 321 83 q 546 99 485 83 q 653 142 607 115 q 674 148 665 148 q 713 112 698 148 q 719 86 719 98 q 689 44 719 59 q 566 1 637 18 q 422 -15 494 -15 q 248 24 320 -15 q 137 138 175 64 q 99 313 99 212 q 140 485 99 410 q 255 601 182 559 q 422 642 328 642 m 422 543 q 284 501 339 543 q 213 383 230 458 l 627 383 q 562 502 613 461 q 422 543 511 543 z "},"f":{"ha":833,"x_min":127,"x_max":755,"o":"m 543 893 q 723 859 633 893 q 755 814 755 846 q 753 796 755 806 q 720 758 744 758 q 703 761 712 758 q 543 794 617 794 q 406 647 406 794 l 406 572 l 640 572 q 673 562 663 572 q 683 526 683 551 q 673 491 683 501 q 640 480 663 480 l 406 480 l 406 92 l 640 92 q 673 82 663 92 q 683 46 683 71 q 673 11 683 21 q 640 0 663 0 l 170 0 q 137 11 146 0 q 127 46 127 21 q 137 82 127 71 q 170 92 146 92 l 304 92 l 304 480 l 170 480 q 137 491 146 480 q 127 526 127 501 q 137 562 127 551 q 170 572 146 572 l 304 572 l 304 656 q 367 830 304 768 q 543 893 429 893 z "},"g":{"ha":833,"x_min":86,"x_max":794,"o":"m 379 642 q 502 612 446 642 q 601 526 558 582 l 601 581 q 611 616 601 606 q 644 627 621 627 l 751 627 q 784 616 774 627 q 794 581 794 606 q 784 545 794 555 q 751 534 774 534 l 696 534 l 696 -20 q 662 -159 696 -101 q 562 -248 627 -217 q 406 -278 497 -278 q 274 -267 340 -278 q 150 -235 208 -256 q 123 -199 123 -225 q 129 -172 123 -188 q 168 -134 141 -134 q 182 -137 175 -134 q 294 -167 235 -156 q 406 -178 352 -178 q 547 -133 499 -178 q 594 -12 594 -89 l 594 125 q 379 19 510 19 q 229 57 295 19 q 124 165 162 94 q 86 330 86 235 q 124 496 86 425 q 229 604 162 566 q 379 642 295 642 m 386 541 q 282 514 326 541 q 216 440 239 488 q 193 330 193 392 q 216 221 193 269 q 282 146 239 173 q 386 119 326 119 q 493 144 446 119 q 567 217 541 170 q 594 330 594 265 q 567 443 594 395 q 493 516 541 491 q 386 541 446 541 z "},"h":{"ha":833,"x_min":52,"x_max":786,"o":"m 216 890 q 249 879 239 890 q 259 844 259 869 l 259 506 q 361 607 303 572 q 486 642 419 642 q 593 615 548 642 q 663 538 639 588 q 688 420 688 488 l 688 92 l 743 92 q 776 82 766 92 q 786 46 786 71 q 776 11 786 21 q 743 0 766 0 l 524 0 q 491 11 500 0 q 481 46 481 21 q 491 82 481 71 q 524 92 500 92 l 586 92 l 586 410 q 558 506 586 471 q 476 541 530 541 q 369 508 418 541 q 289 416 319 475 q 259 286 259 358 l 259 92 l 321 92 q 354 82 345 92 q 364 46 364 71 q 354 11 364 21 q 321 0 345 0 l 102 0 q 69 11 79 0 q 59 46 59 21 q 69 82 59 71 q 102 92 79 92 l 157 92 l 157 798 l 95 798 q 62 808 72 798 q 52 844 52 819 q 62 879 52 869 q 95 890 72 890 l 216 890 z "},"i":{"ha":833,"x_min":127,"x_max":744,"o":"m 441 627 q 474 616 464 627 q 484 581 484 606 l 484 92 l 701 92 q 734 82 724 92 q 744 46 744 71 q 734 11 744 21 q 701 0 724 0 l 170 0 q 137 11 146 0 q 127 46 127 21 q 137 82 127 71 q 170 92 146 92 l 382 92 l 382 534 l 210 534 q 177 545 187 534 q 168 581 168 555 q 177 616 168 606 q 210 627 187 627 l 441 627 m 419 924 q 470 915 456 924 q 484 880 484 905 l 484 792 q 470 758 484 768 q 419 748 456 748 q 368 758 382 748 q 355 792 355 768 l 355 880 q 368 915 355 905 q 419 924 382 924 z "},"j":{"ha":833,"x_min":129,"x_max":612,"o":"m 570 627 q 603 616 593 627 q 612 581 612 606 l 612 -39 q 559 -218 612 -158 q 391 -278 506 -278 q 269 -257 334 -278 q 151 -202 204 -235 q 129 -167 129 -189 q 138 -136 129 -154 q 177 -105 154 -105 q 198 -112 189 -105 q 295 -161 245 -142 q 391 -179 345 -179 q 484 -143 457 -179 q 511 -30 511 -107 l 511 534 l 224 534 q 191 545 201 534 q 181 581 181 555 q 191 616 181 606 q 224 627 201 627 l 570 627 m 548 924 q 599 915 585 924 q 612 880 612 905 l 612 792 q 599 758 612 768 q 548 748 585 748 q 497 758 511 748 q 484 792 484 768 l 484 880 q 497 915 484 905 q 548 924 511 924 z "},"k":{"ha":833,"x_min":45,"x_max":786,"o":"m 743 92 q 776 82 766 92 q 786 46 786 71 q 776 11 786 21 q 743 0 766 0 l 524 0 q 491 11 500 0 q 481 46 481 21 q 491 82 481 71 q 524 92 500 92 l 572 92 l 402 294 l 279 186 l 279 92 l 328 92 q 361 82 351 92 q 371 46 371 71 q 361 11 371 21 q 328 0 351 0 l 102 0 q 69 11 79 0 q 59 46 59 21 q 69 82 59 71 q 102 92 79 92 l 177 92 l 177 798 l 88 798 q 55 808 65 798 q 45 844 45 819 q 55 879 45 869 q 88 890 65 890 l 236 890 q 269 879 259 890 q 279 844 279 869 l 279 307 l 537 534 l 489 534 q 456 545 466 534 q 446 581 446 555 q 456 616 446 606 q 489 627 466 627 l 715 627 q 748 616 739 627 q 758 581 758 606 q 748 545 758 555 q 715 534 739 534 l 675 534 l 476 359 l 704 92 l 743 92 z "},"l":{"ha":833,"x_min":120,"x_max":737,"o":"m 434 890 q 467 879 457 890 q 477 844 477 869 l 477 92 l 694 92 q 727 82 718 92 q 737 46 737 71 q 727 11 737 21 q 694 0 718 0 l 163 0 q 130 11 140 0 q 120 46 120 21 q 130 82 120 71 q 163 92 140 92 l 375 92 l 375 798 l 190 798 q 157 808 167 798 q 147 844 147 819 q 157 879 147 869 q 190 890 167 890 l 434 890 z "},"m":{"ha":833,"x_min":-3,"x_max":850,"o":"m 808 92 q 841 82 831 92 q 850 46 850 71 q 841 11 850 21 q 808 0 831 0 l 707 0 q 674 11 684 0 q 664 46 664 21 l 664 448 q 649 518 664 494 q 600 541 633 541 q 541 512 568 541 q 497 430 513 482 q 481 310 481 377 l 481 92 l 520 92 q 553 82 543 92 q 563 46 563 71 q 553 11 563 21 q 520 0 543 0 l 422 0 q 390 11 399 0 q 380 46 380 21 l 380 448 q 365 518 380 494 q 315 541 349 541 q 256 512 283 541 q 213 430 229 482 q 197 310 197 377 l 197 92 l 233 92 q 266 82 256 92 q 275 46 275 71 q 266 11 275 21 q 233 0 256 0 l 40 0 q 7 11 17 0 q -3 46 -3 21 q 7 82 -3 71 q 40 92 17 92 l 96 92 l 96 534 l 40 534 q 7 545 17 534 q -3 581 -3 555 q 7 616 -3 606 q 40 627 17 627 l 141 627 q 174 616 164 627 q 184 581 184 606 l 184 513 q 254 609 213 577 q 342 642 294 642 q 422 610 388 642 q 469 519 457 579 q 625 642 530 642 q 697 622 665 642 q 747 561 728 602 q 766 460 766 519 l 766 92 l 808 92 z "},"n":{"ha":833,"x_min":52,"x_max":793,"o":"m 493 642 q 600 615 555 642 q 670 538 646 588 q 694 420 694 488 l 694 92 l 750 92 q 783 82 773 92 q 793 46 793 71 q 783 11 793 21 q 750 0 773 0 l 530 0 q 497 11 507 0 q 488 46 488 21 q 497 82 488 71 q 530 92 507 92 l 593 92 l 593 410 q 565 506 593 471 q 483 541 537 541 q 375 508 425 541 q 296 416 326 475 q 266 286 266 358 l 266 92 l 328 92 q 361 82 351 92 q 371 46 371 71 q 361 11 371 21 q 328 0 351 0 l 109 0 q 76 11 85 0 q 66 46 66 21 q 76 82 66 71 q 109 92 85 92 l 164 92 l 164 534 l 95 534 q 62 545 72 534 q 52 581 52 555 q 62 616 52 606 q 95 627 72 627 l 216 627 q 249 616 239 627 q 259 581 259 606 l 259 499 q 364 605 304 568 q 493 642 424 642 z "},"o":{"ha":833,"x_min":90,"x_max":743,"o":"m 416 642 q 584 600 509 642 q 701 483 659 557 q 743 313 743 408 q 701 144 743 219 q 584 27 659 69 q 416 -15 509 -15 q 249 27 323 -15 q 132 144 174 69 q 90 313 90 219 q 132 483 90 408 q 249 600 174 557 q 416 642 323 642 m 416 541 q 301 512 351 541 q 224 432 251 484 q 197 313 197 380 q 224 195 197 247 q 301 114 251 143 q 416 85 351 85 q 532 114 482 85 q 609 195 582 143 q 636 313 636 247 q 609 432 636 380 q 532 512 582 484 q 416 541 482 541 z "},"p":{"ha":833,"x_min":25,"x_max":747,"o":"m 454 642 q 604 602 538 642 q 709 488 671 562 q 747 313 747 414 q 709 139 747 213 q 604 25 671 64 q 454 -15 538 -15 q 239 97 326 -15 l 239 -171 l 355 -171 q 388 -181 378 -171 q 398 -217 398 -192 q 388 -253 398 -242 q 355 -263 378 -263 l 68 -263 q 35 -253 45 -263 q 25 -217 25 -242 q 35 -181 25 -192 q 68 -171 45 -171 l 137 -171 l 137 534 l 81 534 q 48 545 58 534 q 39 581 39 555 q 48 616 39 606 q 81 627 58 627 l 189 627 q 222 616 212 627 q 232 581 232 606 l 232 526 q 331 612 275 582 q 454 642 387 642 m 447 541 q 339 514 387 541 q 266 435 292 487 q 239 313 239 384 q 266 191 239 243 q 339 113 292 140 q 447 85 387 85 q 551 114 507 85 q 617 195 594 143 q 640 313 640 246 q 617 432 640 380 q 551 512 594 484 q 447 541 507 541 z "},"q":{"ha":833,"x_min":86,"x_max":808,"o":"m 379 642 q 502 612 446 642 q 601 526 558 582 l 601 581 q 611 616 601 606 q 644 627 621 627 l 751 627 q 784 616 774 627 q 794 581 794 606 q 784 545 794 555 q 751 534 774 534 l 696 534 l 696 -171 l 765 -171 q 798 -181 788 -171 q 808 -217 808 -192 q 798 -253 808 -242 q 765 -263 788 -263 l 477 -263 q 445 -253 454 -263 q 435 -217 435 -242 q 445 -181 435 -192 q 477 -171 454 -171 l 594 -171 l 594 97 q 379 -15 507 -15 q 229 25 295 -15 q 124 139 162 64 q 86 313 86 213 q 124 488 86 414 q 229 602 162 562 q 379 642 295 642 m 386 541 q 282 512 326 541 q 216 432 239 484 q 193 313 193 380 q 216 195 193 246 q 282 114 239 143 q 386 85 326 85 q 493 113 446 85 q 567 191 541 140 q 594 313 594 243 q 567 435 594 384 q 493 514 541 487 q 386 541 446 541 z "},"r":{"ha":833,"x_min":100,"x_max":750,"o":"m 624 642 q 723 614 677 642 q 750 572 750 598 q 744 544 750 560 q 705 505 730 505 q 686 511 694 505 q 614 529 652 529 q 492 487 553 529 q 390 374 430 444 q 351 224 351 303 l 351 92 l 579 92 q 612 82 602 92 q 622 46 622 71 q 612 11 622 21 q 579 0 602 0 l 142 0 q 110 11 119 0 q 100 46 100 21 q 110 82 100 71 q 142 92 119 92 l 249 92 l 249 534 l 163 534 q 130 545 140 534 q 120 581 120 555 q 130 616 120 606 q 163 627 140 627 l 301 627 q 334 616 324 627 q 344 581 344 606 l 344 444 q 422 548 376 503 q 521 617 469 593 q 624 642 573 642 z "},"s":{"ha":833,"x_min":121,"x_max":712,"o":"m 630 642 q 669 631 658 642 q 681 597 681 621 l 681 469 q 669 435 681 445 q 630 425 658 425 q 597 442 607 425 q 513 520 568 498 q 372 543 457 543 q 269 520 306 543 q 232 454 232 496 q 246 419 232 433 q 287 397 260 406 q 339 385 309 389 q 415 376 368 381 q 521 362 481 369 q 597 343 562 356 q 682 286 652 323 q 712 188 712 249 q 681 81 712 127 q 591 10 650 35 q 449 -15 532 -15 q 320 5 376 -15 q 223 67 264 26 l 223 29 q 212 -5 223 5 q 172 -15 200 -15 q 133 -5 144 -15 q 121 29 121 5 l 121 192 q 133 226 121 216 q 172 236 144 236 q 195 230 186 236 q 209 208 203 223 q 290 113 233 143 q 442 83 347 83 q 563 112 521 83 q 605 188 605 140 q 590 226 605 211 q 547 250 575 241 q 493 263 524 258 q 414 273 462 268 q 308 287 351 279 q 229 309 265 294 q 152 363 180 328 q 125 454 125 398 q 156 556 125 513 q 241 620 186 598 q 365 642 296 642 q 485 622 431 642 q 579 567 540 602 l 579 597 q 591 631 579 621 q 630 642 602 642 z "},"t":{"ha":833,"x_min":79,"x_max":743,"o":"m 311 820 q 350 810 338 820 q 361 776 361 800 l 361 572 l 640 572 q 673 562 663 572 q 683 526 683 551 q 673 491 683 501 q 640 480 663 480 l 361 480 l 361 233 q 388 120 361 156 q 481 84 415 84 q 577 102 527 84 q 674 151 627 121 q 695 158 684 158 q 734 127 718 158 q 743 96 743 109 q 721 61 743 75 q 603 6 668 28 q 481 -15 538 -15 q 313 45 366 -15 q 260 224 260 105 l 260 480 l 122 480 q 89 491 99 480 q 79 526 79 501 q 89 562 79 551 q 122 572 99 572 l 260 572 l 260 776 q 271 810 260 800 q 311 820 283 820 z "},"u":{"ha":833,"x_min":49,"x_max":776,"o":"m 635 627 q 668 616 658 627 q 677 581 677 606 l 677 92 l 733 92 q 766 82 756 92 q 776 46 776 71 q 766 11 776 21 q 733 0 756 0 l 625 0 q 592 10 602 0 q 583 45 583 20 l 583 127 q 478 22 538 58 q 349 -15 418 -15 q 241 12 287 -15 q 172 89 196 39 q 147 206 147 139 l 147 534 l 92 534 q 59 545 68 534 q 49 581 49 555 q 59 616 49 606 q 92 627 68 627 l 206 627 q 239 616 229 627 q 249 581 249 606 l 249 216 q 277 121 249 156 q 359 85 304 85 q 466 119 416 85 q 546 210 516 152 q 576 340 576 269 l 576 534 l 479 534 q 447 545 456 534 q 437 581 437 555 q 447 616 437 606 q 479 627 456 627 l 635 627 z "},"v":{"ha":833,"x_min":34,"x_max":799,"o":"m 756 627 q 789 616 779 627 q 799 581 799 606 q 789 545 799 555 q 756 534 779 534 l 713 534 l 494 29 q 466 -4 485 6 q 414 -15 448 -15 q 364 -4 382 -15 q 336 29 346 6 l 119 534 l 77 534 q 44 545 54 534 q 34 581 34 555 q 44 616 34 606 q 77 627 54 627 l 317 627 q 350 616 340 627 q 359 581 359 606 q 350 545 359 555 q 317 534 340 534 l 230 534 l 415 92 l 602 534 l 543 534 q 510 545 520 534 q 500 581 500 555 q 510 616 500 606 q 543 627 520 627 l 756 627 z "},"w":{"ha":833,"x_min":-7,"x_max":840,"o":"m 797 627 q 830 616 820 627 q 840 581 840 606 q 830 545 840 555 q 797 534 820 534 l 781 534 l 647 29 q 627 -5 640 5 q 588 -15 614 -15 q 542 -4 559 -15 q 517 29 526 6 l 414 323 l 309 29 q 283 -4 300 6 q 237 -15 266 -15 q 198 -5 211 -15 q 179 29 185 5 l 48 534 l 36 534 q 3 545 13 534 q -7 581 -7 555 q 3 616 -7 606 q 36 627 13 627 l 235 627 q 268 616 258 627 q 278 581 278 606 q 268 545 278 555 q 235 534 258 534 l 152 534 l 250 140 l 363 454 q 380 477 368 469 q 414 486 393 486 q 467 459 457 486 l 579 140 l 680 534 l 611 534 q 578 545 588 534 q 568 581 568 555 q 578 616 568 606 q 611 627 588 627 l 797 627 z "},"x":{"ha":833,"x_min":47,"x_max":785,"o":"m 736 627 q 769 616 759 627 q 779 581 779 606 q 769 545 779 555 q 736 534 759 534 l 692 534 l 490 322 l 708 92 l 743 92 q 775 82 766 92 q 785 46 785 71 q 775 11 785 21 q 743 0 766 0 l 509 0 q 476 11 486 0 q 467 46 467 21 q 476 82 467 71 q 509 92 486 92 l 574 92 l 412 267 l 250 92 l 303 92 q 336 82 326 92 q 346 46 346 71 q 336 11 346 21 q 303 0 326 0 l 90 0 q 57 11 67 0 q 47 46 47 21 q 57 82 47 71 q 90 92 67 92 l 124 92 l 345 323 l 145 534 l 97 534 q 64 545 74 534 q 54 581 54 555 q 64 616 54 606 q 97 627 74 627 l 330 627 q 363 616 353 627 q 373 581 373 606 q 363 545 373 555 q 330 534 353 534 l 279 534 l 422 378 l 567 534 l 530 534 q 497 545 507 534 q 487 581 487 555 q 497 616 487 606 q 530 627 507 627 l 736 627 z "},"y":{"ha":833,"x_min":34,"x_max":799,"o":"m 756 627 q 789 616 779 627 q 799 581 799 606 q 789 545 799 555 q 756 534 779 534 l 714 534 l 437 -34 q 351 -176 393 -124 q 256 -251 309 -227 q 128 -278 203 -275 q 92 -266 104 -279 q 79 -222 79 -254 q 115 -176 79 -178 q 218 -154 180 -172 q 289 -91 256 -136 q 368 47 321 -47 l 119 534 l 77 534 q 44 545 54 534 q 34 581 34 555 q 44 616 34 606 q 77 627 54 627 l 317 627 q 350 616 340 627 q 359 581 359 606 q 350 545 359 555 q 317 534 340 534 l 230 534 l 421 153 l 604 534 l 543 534 q 510 545 520 534 q 500 581 500 555 q 510 616 500 606 q 543 627 520 627 l 756 627 z "},"z":{"ha":833,"x_min":121,"x_max":712,"o":"m 663 627 q 695 616 686 627 q 705 581 705 606 q 695 549 705 561 l 281 92 l 610 92 l 610 209 q 622 243 610 233 q 661 253 633 253 q 701 243 689 253 q 712 209 712 233 l 712 46 q 702 11 712 21 q 669 0 692 0 l 163 0 q 131 11 140 0 q 121 46 121 21 q 130 77 121 66 l 545 534 l 236 534 l 236 433 q 224 399 236 410 q 185 389 213 389 q 146 399 157 389 q 134 433 134 410 l 134 581 q 144 616 134 606 q 177 627 154 627 l 663 627 z "},"{":{"ha":833,"x_min":120,"x_max":671,"o":"m 629 930 q 662 919 652 930 q 671 882 671 908 q 662 844 671 855 q 629 833 652 833 q 516 813 557 833 q 458 752 475 793 q 444 642 441 710 l 446 593 q 412 459 450 512 q 288 370 374 406 l 288 363 q 412 290 374 338 q 450 167 450 241 q 450 144 450 152 l 444 62 q 444 37 444 54 q 488 -89 444 -50 q 629 -128 532 -128 q 662 -139 652 -128 q 671 -177 671 -151 q 662 -215 671 -203 q 629 -226 652 -226 q 417 -165 492 -226 q 341 18 341 -104 q 342 54 341 42 l 350 138 q 351 165 351 157 q 306 280 351 241 q 163 318 260 318 q 130 329 140 318 q 120 367 120 340 q 130 405 120 393 q 163 416 140 416 q 302 458 257 416 q 347 580 347 501 q 346 600 347 593 l 342 650 q 341 680 341 671 q 416 868 341 805 q 629 930 491 930 z "},"|":{"ha":833,"x_min":366,"x_max":467,"o":"m 416 945 q 456 935 444 945 q 467 901 467 925 l 467 -197 q 456 -231 467 -220 q 416 -241 444 -241 q 377 -231 389 -241 q 366 -197 366 -220 l 366 901 q 377 935 366 925 q 416 945 389 945 z "},"}":{"ha":833,"x_min":161,"x_max":713,"o":"m 204 930 q 417 868 342 930 q 492 680 492 805 q 490 650 492 671 l 487 600 q 486 580 486 593 q 531 458 486 501 q 670 416 576 416 q 703 405 693 416 q 713 367 713 393 q 703 329 713 340 q 670 318 693 318 q 527 280 572 318 q 481 165 481 241 q 483 138 481 157 l 490 54 q 492 18 492 42 q 416 -165 492 -104 q 204 -226 340 -226 q 171 -215 181 -226 q 161 -177 161 -203 q 171 -139 161 -151 q 204 -128 181 -128 q 345 -89 300 -128 q 389 37 389 -50 q 389 62 389 54 l 383 144 q 382 167 382 152 q 421 290 382 241 q 545 363 459 338 l 545 370 q 421 459 458 406 q 387 593 383 512 l 389 642 q 375 752 391 710 q 317 813 358 793 q 204 833 276 833 q 171 844 181 833 q 161 882 161 855 q 171 919 161 908 q 204 930 181 930 z "},"~":{"ha":833,"x_min":102,"x_max":731,"o":"m 283 498 q 357 484 323 498 q 435 443 391 470 q 498 409 474 420 q 549 398 523 398 q 654 455 607 398 q 680 468 665 468 q 709 456 695 468 q 731 421 731 440 q 726 404 731 412 q 648 322 694 353 q 549 291 602 291 q 476 305 510 291 q 397 347 442 319 q 334 380 359 369 q 283 391 309 391 q 178 334 226 391 q 153 321 168 321 q 123 333 138 321 q 102 368 102 349 q 106 385 102 378 q 184 468 138 437 q 283 498 231 498 z "},"":{"ha":833,"x_min":332,"x_max":501,"o":"m 416 444 q 352 453 372 444 q 332 486 332 463 l 332 591 q 352 624 332 614 q 416 633 372 633 q 481 624 461 633 q 501 591 501 614 l 501 486 q 481 453 501 463 q 416 444 461 444 m 372 -234 q 350 -226 357 -234 q 345 -200 343 -218 l 378 279 q 389 303 379 295 q 416 312 399 312 q 445 303 434 312 q 456 279 455 295 l 488 -200 q 483 -226 490 -218 q 460 -234 476 -234 l 372 -234 z "},"":{"ha":833,"x_min":86,"x_max":714,"o":"m 704 239 q 714 206 714 222 q 692 167 714 182 q 588 111 648 133 q 464 83 528 90 l 464 -41 q 453 -74 464 -64 q 416 -85 441 -85 q 380 -74 391 -85 q 369 -41 369 -64 l 369 83 q 219 136 283 92 q 121 251 155 180 q 86 408 86 322 q 121 565 86 494 q 221 680 157 635 q 369 734 285 724 l 369 846 q 380 879 369 869 q 416 890 391 890 q 453 879 441 890 q 464 846 464 869 l 464 732 q 545 704 508 725 q 610 652 583 684 l 610 692 q 621 726 610 716 q 661 736 633 736 q 700 726 688 736 q 711 692 711 716 l 711 496 q 700 462 711 472 q 661 452 688 452 q 621 462 633 452 q 610 496 610 472 q 572 588 610 551 q 464 633 534 625 l 464 184 q 558 208 513 190 q 641 256 603 227 q 667 267 655 267 q 704 239 687 267 m 193 408 q 215 303 193 351 q 276 224 237 255 q 369 184 316 193 l 369 631 q 277 589 317 621 q 215 511 237 558 q 193 408 193 465 z "},"":{"ha":833,"x_min":138,"x_max":699,"o":"m 419 820 q 536 801 480 820 q 638 749 591 783 q 652 713 652 739 l 652 627 q 641 593 652 603 q 602 583 629 583 q 562 593 574 583 q 551 627 551 603 l 551 688 q 418 720 498 720 q 353 704 381 720 q 309 660 324 688 q 294 600 294 633 q 304 545 294 571 q 334 479 314 518 q 363 420 351 449 l 573 420 q 606 410 596 420 q 616 374 616 399 q 606 339 616 349 q 573 328 596 328 l 385 328 q 385 304 385 320 q 289 90 385 185 q 382 106 336 106 q 423 103 404 106 q 469 94 441 100 q 535 83 511 83 q 637 121 585 83 q 650 125 644 125 q 670 119 660 125 q 688 99 680 112 q 699 67 699 83 q 695 51 699 58 q 685 38 692 43 q 611 -4 646 9 q 545 -16 577 -16 q 509 -13 526 -16 q 463 -4 492 -10 q 406 7 429 3 q 358 10 384 10 q 208 -23 288 10 q 197 -25 202 -25 q 155 0 175 -25 q 138 41 138 22 q 146 62 138 54 q 252 184 221 131 q 283 295 283 237 q 281 328 283 311 l 185 328 q 152 339 162 328 q 142 374 142 349 q 152 410 142 399 q 185 420 162 420 l 250 420 l 237 444 q 201 527 213 494 q 189 600 189 560 q 217 712 189 662 q 299 791 246 762 q 419 820 351 820 z "},"":{"ha":833,"x_min":75,"x_max":758,"o":"m 742 152 q 758 122 758 136 q 738 87 758 106 q 703 67 718 67 q 673 83 688 67 l 576 180 q 416 134 506 134 q 257 180 327 134 l 160 83 q 130 67 144 67 q 95 87 115 67 q 75 122 75 106 q 91 152 75 136 l 187 248 q 138 408 138 317 q 187 568 138 499 l 91 665 q 75 694 75 680 q 95 730 75 710 q 130 749 115 749 q 160 734 144 749 l 257 637 q 416 682 327 682 q 576 637 506 682 l 673 734 q 703 749 688 749 q 738 730 718 749 q 758 694 758 710 q 742 665 758 680 l 646 568 q 694 408 694 499 q 646 248 694 317 l 742 152 m 239 408 q 261 317 239 357 q 324 253 283 276 q 416 231 364 231 q 509 253 469 231 q 572 317 549 276 q 594 408 594 357 q 572 500 594 459 q 509 563 549 541 q 416 586 469 586 q 324 563 364 586 q 261 500 283 541 q 239 408 239 459 z "},"":{"ha":833,"x_min":41,"x_max":792,"o":"m 749 805 q 782 794 772 805 q 792 759 792 784 q 782 723 792 734 q 749 713 772 713 l 703 713 l 606 556 l 688 556 q 721 546 711 556 q 731 510 731 535 q 721 474 731 485 q 688 464 711 464 l 548 464 l 475 346 l 675 346 q 708 335 698 346 q 718 300 718 325 q 708 264 718 275 q 675 254 698 254 l 467 254 l 467 92 l 621 92 q 653 82 644 92 q 663 46 663 71 q 653 11 663 21 q 621 0 644 0 l 212 0 q 179 11 189 0 q 170 46 170 21 q 179 82 170 71 q 212 92 189 92 l 366 92 l 366 254 l 158 254 q 125 264 135 254 q 115 300 115 275 q 125 335 115 325 q 158 346 135 346 l 358 346 l 285 464 l 144 464 q 112 474 121 464 q 102 510 102 485 q 112 546 102 535 q 144 556 121 556 l 228 556 l 131 713 l 83 713 q 51 723 60 713 q 41 759 41 734 q 51 794 41 784 q 83 805 60 805 l 310 805 q 343 794 333 805 q 353 759 353 784 q 343 723 353 734 q 310 713 333 713 l 247 713 l 416 435 l 587 713 l 543 713 q 510 723 520 713 q 500 759 500 734 q 510 794 500 784 q 543 805 520 805 l 749 805 z "},"":{"ha":833,"x_min":366,"x_max":467,"o":"m 416 945 q 456 935 444 945 q 467 901 467 925 l 467 495 q 456 461 467 471 q 416 451 444 451 q 377 461 389 451 q 366 495 366 471 l 366 901 q 377 935 366 925 q 416 945 389 945 m 416 254 q 456 243 444 254 q 467 210 467 233 l 467 -197 q 456 -231 467 -220 q 416 -241 444 -241 q 377 -231 389 -241 q 366 -197 366 -220 l 366 210 q 377 243 366 233 q 416 254 389 254 z "},"":{"ha":833,"x_min":121,"x_max":711,"o":"m 627 805 q 660 794 650 805 q 670 759 670 784 l 670 625 q 659 591 670 602 q 619 581 647 581 q 580 591 591 581 q 568 625 568 602 l 568 713 l 406 713 q 311 640 311 713 q 333 575 311 604 q 399 519 355 547 l 598 396 q 683 320 654 361 q 711 222 711 279 q 688 145 711 179 q 618 77 665 111 q 629 7 629 43 q 608 -78 629 -41 q 544 -135 586 -115 q 440 -156 501 -156 l 205 -156 q 173 -145 182 -156 q 163 -110 163 -135 l 163 37 q 174 71 163 61 q 214 81 186 81 q 253 71 241 81 q 264 37 264 61 l 264 -64 l 427 -64 q 522 9 522 -64 q 500 74 522 45 q 434 130 478 102 l 235 253 q 150 329 178 288 q 121 427 121 370 q 144 504 121 470 q 215 572 167 537 q 203 642 203 605 q 225 727 203 690 q 289 784 247 764 q 393 805 332 805 l 627 805 m 267 490 q 238 459 248 475 q 229 424 229 443 q 245 377 229 397 q 296 336 261 358 l 496 212 q 565 158 534 189 q 594 190 585 174 q 604 225 604 206 q 588 272 604 252 q 536 313 572 291 l 337 437 q 267 490 295 463 z "},"":{"ha":833,"x_min":210,"x_max":623,"o":"m 274 924 q 325 915 311 924 q 338 880 338 905 l 338 792 q 325 758 338 768 q 274 748 311 748 q 223 758 237 748 q 210 792 210 768 l 210 880 q 223 915 210 905 q 274 924 237 924 m 559 924 q 610 915 596 924 q 623 880 623 905 l 623 792 q 610 758 623 768 q 559 748 596 748 q 508 758 522 748 q 494 792 494 768 l 494 880 q 508 915 494 905 q 559 924 522 924 z "},"":{"ha":833,"x_min":24,"x_max":808,"o":"m 416 820 q 619 765 530 820 q 758 614 708 709 q 808 403 808 518 q 758 192 808 288 q 618 41 708 96 q 416 -15 529 -15 q 214 41 304 -15 q 75 192 125 96 q 24 403 24 288 q 75 614 24 518 q 214 765 125 709 q 416 820 303 820 m 416 739 q 256 695 326 739 q 146 575 185 652 q 107 403 107 499 q 146 230 107 307 q 256 110 185 153 q 416 66 326 66 q 577 110 507 66 q 687 230 648 153 q 726 403 726 307 q 687 575 726 499 q 577 695 648 652 q 416 739 507 739 m 427 635 q 489 628 457 635 q 549 608 520 621 q 570 593 563 602 q 576 572 576 585 q 572 550 576 562 q 542 523 561 523 q 522 528 534 523 q 474 545 496 540 q 427 550 452 550 q 338 512 373 550 q 304 402 304 473 q 338 293 304 331 q 427 254 373 254 q 474 259 452 254 q 522 276 496 264 q 542 281 534 281 q 572 254 561 281 q 576 232 576 243 q 570 211 576 220 q 549 196 563 203 q 489 176 520 183 q 427 169 457 169 q 316 197 365 169 q 241 278 268 225 q 214 402 214 330 q 241 527 214 474 q 316 607 268 579 q 427 635 365 635 z "},"":{"ha":833,"x_min":164,"x_max":701,"o":"m 422 820 q 571 775 519 820 q 622 647 622 730 l 622 446 q 630 417 622 425 q 656 408 638 408 l 667 408 q 693 398 685 408 q 701 367 701 389 q 693 337 701 346 q 667 328 685 328 l 634 328 q 573 343 600 328 q 538 389 547 359 q 347 315 451 315 q 253 333 294 315 q 188 384 212 350 q 164 466 164 418 q 222 589 164 549 q 372 629 279 629 q 530 610 461 629 l 530 644 q 504 709 530 686 q 422 732 477 732 q 337 722 382 732 q 250 694 292 712 q 237 692 243 692 q 203 722 214 692 q 199 747 199 736 q 220 779 199 770 q 318 809 265 798 q 422 820 371 820 m 379 543 q 260 468 260 543 q 284 418 260 435 q 350 400 308 400 q 530 479 450 400 l 530 526 q 379 543 456 543 z "},"":{"ha":833,"x_min":95,"x_max":731,"o":"m 688 573 q 721 563 711 573 q 731 527 731 552 l 731 260 q 720 226 731 236 q 680 216 708 216 q 641 226 652 216 q 629 260 629 236 l 629 481 l 138 481 q 105 491 115 481 q 95 527 95 502 q 105 563 95 552 q 138 573 115 573 l 688 573 z "},"":{"ha":833,"x_min":90,"x_max":743,"o":"m 416 905 q 585 859 511 905 q 702 733 660 812 q 743 557 743 654 q 702 381 743 461 q 585 255 660 302 q 416 209 511 209 q 248 255 322 209 q 131 381 173 302 q 90 557 90 461 q 131 733 90 654 q 248 859 173 812 q 416 905 322 905 m 416 837 q 282 801 341 837 q 191 701 224 765 q 159 557 159 637 q 191 413 159 477 q 282 313 224 349 q 416 277 341 277 q 550 313 492 277 q 642 413 609 349 q 674 557 674 477 q 642 701 674 637 q 550 801 609 765 q 416 837 492 837 m 429 740 q 502 724 471 740 q 550 680 533 708 q 566 614 566 651 q 545 543 566 572 q 484 500 524 514 l 545 435 q 559 406 559 419 q 547 382 559 393 q 523 371 536 371 q 496 385 508 371 l 408 487 l 357 487 l 357 411 q 349 383 357 391 q 321 374 341 374 q 295 383 302 374 q 287 411 287 391 l 287 704 q 296 731 287 723 q 323 740 304 740 l 429 740 m 357 553 l 417 553 q 474 569 455 553 q 493 614 493 585 q 475 658 493 642 q 422 673 457 673 l 357 673 l 357 553 z "},"":{"ha":833,"x_min":197,"x_max":636,"o":"m 593 848 q 626 837 616 848 q 636 799 636 825 q 626 761 636 772 q 593 750 616 750 l 239 750 q 207 761 216 750 q 197 799 197 772 q 207 837 197 825 q 239 848 216 848 l 593 848 z "},"":{"ha":833,"x_min":167,"x_max":547,"o":"m 357 820 q 452 794 408 820 q 521 725 496 769 q 547 630 547 682 q 521 535 547 578 q 452 466 496 491 q 357 440 408 440 q 261 466 305 440 q 192 535 218 491 q 167 630 167 578 q 192 725 167 682 q 261 794 218 769 q 357 820 305 820 m 357 728 q 308 715 330 728 q 272 679 285 702 q 258 630 258 656 q 272 581 258 604 q 308 545 285 558 q 357 532 330 532 q 406 545 383 532 q 442 581 429 558 q 455 630 455 604 q 442 679 455 656 q 406 715 429 702 q 357 728 383 728 z "},"":{"ha":833,"x_min":115,"x_max":718,"o":"m 416 764 q 452 754 441 764 q 463 721 463 744 l 463 549 l 675 549 q 708 539 698 549 q 718 503 718 528 q 708 468 718 478 q 675 457 698 457 l 463 457 l 463 286 q 452 253 463 262 q 416 243 441 243 q 381 253 391 243 q 370 286 370 262 l 370 457 l 158 457 q 125 468 135 457 q 115 503 115 478 q 125 539 115 528 q 158 549 135 549 l 370 549 l 370 721 q 381 754 370 744 q 416 764 391 764 m 675 170 q 708 159 698 170 q 718 123 718 149 q 708 88 718 98 q 675 77 698 77 l 158 77 q 125 88 135 77 q 115 123 115 98 q 125 159 115 149 q 158 170 135 170 l 675 170 z "},"":{"ha":833,"x_min":195,"x_max":648,"o":"m 418 905 q 521 883 477 905 q 588 823 565 862 q 611 731 611 783 q 584 636 611 679 q 500 547 557 594 l 338 412 l 557 412 l 557 465 q 568 491 557 483 q 603 500 578 500 q 638 491 627 500 q 648 465 648 483 l 648 363 q 640 337 648 346 q 614 328 631 328 l 227 328 q 195 376 195 328 q 216 420 195 403 l 441 610 q 498 671 480 644 q 516 731 516 698 q 489 794 516 770 q 412 817 462 817 q 354 810 383 817 q 302 791 326 803 l 302 721 q 292 695 302 703 q 256 686 281 686 q 221 695 232 686 q 211 721 211 703 l 211 821 q 225 849 211 839 q 317 890 265 876 q 418 905 368 905 z "},"":{"ha":833,"x_min":205,"x_max":628,"o":"m 410 905 q 516 884 471 905 q 586 827 562 864 q 610 743 610 791 q 534 621 610 661 q 603 572 578 606 q 628 488 628 538 q 573 361 628 407 q 410 315 517 315 q 310 327 360 315 q 220 359 260 338 q 205 386 205 368 q 210 412 205 397 q 243 444 222 444 q 256 441 250 444 q 330 413 291 423 q 406 403 369 403 q 500 425 467 403 q 533 488 533 447 q 501 551 533 533 q 408 570 469 570 l 373 570 q 343 612 343 570 q 350 643 343 631 q 373 654 357 654 l 399 654 q 486 674 456 654 q 515 736 515 694 q 485 797 515 776 q 402 817 455 817 q 302 798 349 817 l 302 755 q 292 729 302 737 q 256 720 281 720 q 221 729 232 720 q 211 755 211 737 l 211 829 q 225 858 211 849 q 313 893 264 881 q 410 905 361 905 z "},"":{"ha":833,"x_min":283,"x_max":621,"o":"m 530 951 q 555 960 542 960 q 600 932 578 960 q 621 886 621 905 q 606 859 621 868 l 352 711 q 330 704 340 704 q 299 721 314 704 q 283 756 283 739 q 294 777 283 769 l 530 951 z "},"":{"ha":833,"x_min":148,"x_max":692,"o":"m 642 633 q 681 623 669 633 q 692 589 692 613 l 692 37 q 682 3 692 14 q 645 -7 671 -7 l 644 -7 q 607 3 617 -7 q 597 37 597 14 l 597 134 q 493 26 554 68 q 363 -15 431 -15 q 250 17 295 -15 l 250 -226 q 238 -260 250 -250 q 199 -270 227 -270 l 198 -270 q 159 -260 170 -270 q 148 -226 148 -250 l 148 589 q 159 623 148 613 q 198 633 170 633 l 199 633 q 238 623 227 633 q 250 589 250 613 l 250 216 q 280 120 250 155 q 373 85 310 85 q 475 120 425 85 q 558 213 526 155 q 590 340 590 272 l 590 589 q 601 623 590 613 q 640 633 612 633 l 642 633 z "},"":{"ha":833,"x_min":89,"x_max":758,"o":"m 715 805 q 748 794 738 805 q 758 759 758 784 q 748 723 758 734 q 715 713 738 713 l 669 713 l 669 -234 q 657 -268 669 -258 q 618 -278 646 -278 q 578 -268 590 -278 q 567 -234 567 -258 l 567 713 l 458 713 l 458 -234 q 447 -268 458 -258 q 408 -278 435 -278 q 368 -268 380 -278 q 357 -234 357 -258 l 357 340 q 217 371 277 343 q 122 451 156 399 q 89 572 89 503 q 124 697 89 644 q 224 777 160 749 q 372 805 288 805 l 715 805 z "},"":{"ha":833,"x_min":325,"x_max":508,"o":"m 416 498 q 487 489 465 498 q 508 456 508 479 l 508 331 q 487 298 508 308 q 416 288 465 288 q 346 298 368 288 q 325 331 325 308 l 325 456 q 346 489 325 479 q 416 498 368 498 z "},"":{"ha":833,"x_min":238,"x_max":587,"o":"m 450 -77 q 553 -108 518 -76 q 587 -191 587 -140 q 545 -285 587 -250 q 421 -320 503 -320 q 332 -312 375 -320 q 254 -288 288 -304 q 238 -264 238 -281 q 243 -240 238 -254 q 275 -210 255 -210 q 283 -211 280 -210 q 348 -229 313 -222 q 414 -237 382 -237 q 469 -225 449 -237 q 488 -193 488 -214 q 470 -160 488 -171 q 410 -149 452 -149 l 383 -150 q 367 -143 373 -150 q 360 -120 360 -136 l 360 19 l 450 19 l 450 -77 z "},"":{"ha":833,"x_min":209,"x_max":642,"o":"m 609 412 q 634 402 626 412 q 642 370 642 393 q 634 338 642 348 q 609 328 626 328 l 248 328 q 214 370 214 328 q 222 402 214 393 q 248 412 231 412 l 386 412 l 386 786 l 271 726 q 250 720 259 720 q 219 743 233 720 q 209 772 209 762 q 227 798 209 789 l 431 901 q 449 905 442 905 q 469 898 461 905 q 477 876 477 890 l 477 412 l 609 412 z "},"":{"ha":833,"x_min":159,"x_max":673,"o":"m 416 820 q 548 787 489 820 q 640 697 606 755 q 673 568 673 640 q 640 438 673 495 q 548 348 606 380 q 416 315 489 315 q 285 348 344 315 q 193 438 227 380 q 159 568 159 495 q 193 697 159 640 q 285 787 227 755 q 416 820 344 820 m 416 730 q 332 709 369 730 q 275 651 295 688 q 254 568 254 614 q 275 484 254 521 q 332 426 295 446 q 416 405 369 405 q 501 426 465 405 q 558 483 538 446 q 578 568 578 520 q 558 651 578 614 q 501 709 538 688 q 416 730 465 730 z "},"":{"ha":833,"x_min":-3,"x_max":836,"o":"m 359 499 q 352 472 359 480 q 331 463 345 463 l 29 463 q 1 499 1 463 q 29 534 1 534 l 144 534 l 144 846 l 49 796 q 31 791 39 791 q 5 810 16 791 q -3 835 -3 825 q 12 856 -3 848 l 182 942 q 197 945 189 945 q 214 939 208 945 q 221 922 221 933 l 221 534 l 331 534 q 352 526 345 534 q 359 499 359 517 m 748 553 q 758 528 758 541 q 748 509 758 515 l 125 129 q 115 126 121 126 q 85 145 99 126 q 75 171 75 159 q 85 189 75 183 l 707 570 q 718 572 712 572 q 748 553 734 572 m 809 52 q 829 43 823 52 q 836 16 836 35 q 829 -11 836 -3 q 809 -20 823 -20 l 747 -20 l 747 -123 q 739 -144 747 -137 q 709 -151 730 -151 q 680 -144 689 -151 q 671 -123 671 -137 l 671 -20 l 458 -20 q 436 -8 444 -20 q 427 24 427 3 q 429 41 427 35 q 437 55 431 47 l 652 311 q 672 330 662 323 q 697 336 683 336 q 732 327 717 336 q 747 304 747 317 l 747 52 l 809 52 m 671 52 l 674 232 l 524 52 l 671 52 z "},"":{"ha":833,"x_min":-3,"x_max":832,"o":"m 359 499 q 352 472 359 480 q 331 463 345 463 l 29 463 q 1 499 1 463 q 29 534 1 534 l 144 534 l 144 846 l 49 796 q 31 791 39 791 q 5 810 16 791 q -3 835 -3 825 q 12 856 -3 848 l 182 942 q 197 945 189 945 q 214 939 208 945 q 221 922 221 933 l 221 534 l 331 534 q 352 526 345 534 q 359 499 359 517 m 748 587 q 758 562 758 575 q 748 543 758 549 l 125 163 q 115 160 121 160 q 85 179 99 160 q 75 205 75 193 q 85 223 75 217 l 707 604 q 718 606 712 606 q 748 587 734 606 m 794 -3 q 823 -10 814 -3 q 832 -31 832 -17 l 832 -116 q 804 -146 832 -146 l 481 -146 q 454 -106 454 -146 q 471 -68 454 -84 l 660 90 q 707 140 692 117 q 722 191 722 163 q 699 243 722 224 q 635 262 677 262 q 587 257 610 262 q 543 241 563 251 l 543 182 q 534 160 543 168 q 505 153 526 153 q 476 160 485 153 q 467 182 467 168 l 467 265 q 479 289 467 281 q 555 323 512 311 q 640 336 598 336 q 758 296 715 336 q 801 191 801 257 q 779 111 801 147 q 709 37 756 75 l 574 -75 l 756 -75 l 756 -31 q 765 -10 756 -17 q 794 -3 774 -3 z "},"":{"ha":833,"x_min":14,"x_max":836,"o":"m 184 946 q 274 929 236 946 q 332 881 311 912 q 352 811 352 850 q 288 709 352 743 q 346 668 326 696 q 367 597 367 640 q 321 492 367 530 q 185 454 275 454 q 102 463 144 454 q 26 491 60 473 q 14 513 14 498 q 18 534 14 522 q 46 561 28 561 q 57 559 51 561 q 118 535 85 544 q 181 527 151 527 q 260 546 232 527 q 288 598 288 564 q 261 651 288 635 q 184 666 234 666 l 154 666 q 130 701 130 666 q 136 727 130 718 q 154 737 142 737 l 176 737 q 248 753 224 737 q 273 806 273 770 q 248 856 273 839 q 178 873 222 873 q 95 857 133 873 l 95 821 q 86 799 95 806 q 57 792 77 792 q 28 799 37 792 q 19 821 19 806 l 19 883 q 31 907 19 901 q 104 936 63 926 q 184 946 144 946 m 707 576 q 718 579 712 579 q 748 560 734 579 q 758 534 758 548 q 748 516 758 522 l 125 136 q 115 133 121 133 q 85 152 99 133 q 75 178 75 165 q 85 196 75 190 l 707 576 m 697 336 q 732 327 717 336 q 747 304 747 317 l 747 52 l 809 52 q 829 43 823 52 q 836 16 836 35 q 829 -11 836 -3 q 809 -20 823 -20 l 747 -20 l 747 -123 q 739 -144 747 -137 q 709 -151 730 -151 q 680 -144 689 -151 q 671 -123 671 -137 l 671 -20 l 458 -20 q 436 -8 444 -20 q 427 24 427 3 q 429 41 427 35 q 437 55 431 47 l 652 311 q 672 330 662 323 q 697 336 683 336 m 524 52 l 671 52 l 674 232 l 524 52 z "},"":{"ha":833,"x_min":178,"x_max":661,"o":"m 444 471 q 384 480 402 471 q 366 513 366 490 l 366 591 q 384 624 366 614 q 444 633 402 633 q 503 624 485 633 q 522 591 522 614 l 522 513 q 503 480 522 490 q 444 471 485 471 m 414 -234 q 287 -207 340 -234 q 206 -133 234 -180 q 178 -22 178 -85 q 201 78 178 37 q 270 151 224 120 q 390 212 316 182 l 399 310 q 444 342 402 342 q 488 310 486 342 l 497 176 q 493 154 498 162 q 477 141 488 146 l 430 122 q 344 80 376 100 q 297 36 313 60 q 282 -22 282 12 q 316 -103 282 -73 q 413 -134 351 -134 q 559 -109 499 -134 l 559 -48 q 570 -14 559 -24 q 610 -4 582 -4 q 649 -14 637 -4 q 661 -48 661 -24 l 661 -134 q 656 -158 661 -149 q 644 -172 652 -167 q 414 -234 541 -234 z "},"":{"ha":833,"x_min":7,"x_max":826,"o":"m 434 805 q 478 794 461 805 q 503 761 494 784 l 742 92 l 783 92 q 816 82 806 92 q 826 46 826 71 q 816 11 826 21 q 783 0 806 0 l 543 0 q 510 11 520 0 q 500 46 500 21 q 510 82 500 71 q 543 92 520 92 l 635 92 l 579 254 l 250 254 l 194 92 l 276 92 q 309 82 299 92 q 319 46 319 71 q 309 11 319 21 q 276 0 299 0 l 50 0 q 17 11 26 0 q 7 46 7 21 q 17 82 7 71 q 50 92 26 92 l 87 92 l 312 713 l 185 713 q 152 723 162 713 q 142 759 142 734 q 152 794 142 784 q 185 805 162 805 l 434 805 m 409 713 l 282 346 l 548 346 l 422 713 l 409 713 m 513 960 q 524 939 524 952 q 508 904 524 922 q 477 887 493 887 q 455 894 467 887 l 201 1042 q 186 1069 186 1051 q 207 1115 186 1088 q 252 1143 229 1143 q 277 1134 265 1143 l 513 960 z "},"":{"ha":833,"x_min":7,"x_max":826,"o":"m 434 805 q 478 794 461 805 q 503 761 494 784 l 742 92 l 783 92 q 816 82 806 92 q 826 46 826 71 q 816 11 826 21 q 783 0 806 0 l 543 0 q 510 11 520 0 q 500 46 500 21 q 510 82 500 71 q 543 92 520 92 l 635 92 l 579 254 l 250 254 l 194 92 l 276 92 q 309 82 299 92 q 319 46 319 71 q 309 11 319 21 q 276 0 299 0 l 50 0 q 17 11 26 0 q 7 46 7 21 q 17 82 7 71 q 50 92 26 92 l 87 92 l 312 713 l 185 713 q 152 723 162 713 q 142 759 142 734 q 152 794 142 784 q 185 805 162 805 l 434 805 m 409 713 l 282 346 l 548 346 l 422 713 l 409 713 m 488 1134 q 513 1143 500 1143 q 558 1115 536 1143 q 578 1069 578 1088 q 564 1042 578 1051 l 310 894 q 288 887 298 887 q 257 904 272 887 q 241 939 241 922 q 252 960 241 952 l 488 1134 z "},"":{"ha":833,"x_min":7,"x_max":826,"o":"m 434 805 q 478 794 461 805 q 503 761 494 784 l 742 92 l 783 92 q 816 82 806 92 q 826 46 826 71 q 816 11 826 21 q 783 0 806 0 l 543 0 q 510 11 520 0 q 500 46 500 21 q 510 82 500 71 q 543 92 520 92 l 635 92 l 579 254 l 250 254 l 194 92 l 276 92 q 309 82 299 92 q 319 46 319 71 q 309 11 319 21 q 276 0 299 0 l 50 0 q 17 11 26 0 q 7 46 7 21 q 17 82 7 71 q 50 92 26 92 l 87 92 l 312 713 l 185 713 q 152 723 162 713 q 142 759 142 734 q 152 794 142 784 q 185 805 162 805 l 434 805 m 409 713 l 282 346 l 548 346 l 422 713 l 409 713 m 403 1130 q 442 1116 427 1130 l 608 958 q 619 936 619 948 q 604 904 619 922 q 574 888 589 888 q 553 896 563 888 l 403 1013 l 253 896 q 232 888 243 888 q 202 904 216 888 q 186 936 186 922 q 197 958 186 948 l 363 1116 q 403 1130 378 1130 z "},"":{"ha":833,"x_min":7,"x_max":826,"o":"m 434 805 q 478 794 461 805 q 503 761 494 784 l 742 92 l 783 92 q 816 82 806 92 q 826 46 826 71 q 816 11 826 21 q 783 0 806 0 l 543 0 q 510 11 520 0 q 500 46 500 21 q 510 82 500 71 q 543 92 520 92 l 635 92 l 579 254 l 250 254 l 194 92 l 276 92 q 309 82 299 92 q 319 46 319 71 q 309 11 319 21 q 276 0 299 0 l 50 0 q 17 11 26 0 q 7 46 7 21 q 17 82 7 71 q 50 92 26 92 l 87 92 l 312 713 l 185 713 q 152 723 162 713 q 142 759 142 734 q 152 794 142 784 q 185 805 162 805 l 434 805 m 409 713 l 282 346 l 548 346 l 422 713 l 409 713 m 308 1075 q 351 1068 332 1075 q 397 1050 370 1062 q 437 1033 421 1038 q 471 1027 454 1027 q 514 1039 493 1027 q 557 1074 534 1050 q 576 1082 565 1082 q 608 1065 593 1082 q 623 1034 623 1050 q 613 1010 623 1021 q 544 947 581 968 q 471 926 507 926 q 428 933 447 926 q 381 951 408 939 q 341 968 357 963 q 307 974 325 974 q 265 962 286 974 q 222 928 244 951 q 202 920 214 920 q 170 937 185 920 q 156 967 156 951 q 165 991 156 980 q 235 1054 198 1034 q 308 1075 272 1075 z "},"":{"ha":833,"x_min":7,"x_max":826,"o":"m 434 805 q 478 794 461 805 q 503 761 494 784 l 742 92 l 783 92 q 816 82 806 92 q 826 46 826 71 q 816 11 826 21 q 783 0 806 0 l 543 0 q 510 11 520 0 q 500 46 500 21 q 510 82 500 71 q 543 92 520 92 l 635 92 l 579 254 l 250 254 l 194 92 l 276 92 q 309 82 299 92 q 319 46 319 71 q 309 11 319 21 q 276 0 299 0 l 50 0 q 17 11 26 0 q 7 46 7 21 q 17 82 7 71 q 50 92 26 92 l 87 92 l 312 713 l 185 713 q 152 723 162 713 q 142 759 142 734 q 152 794 142 784 q 185 805 162 805 l 434 805 m 409 713 l 282 346 l 548 346 l 422 713 l 409 713 m 260 1107 q 311 1098 298 1107 q 325 1063 325 1088 l 325 975 q 311 941 325 951 q 260 931 298 931 q 210 941 223 931 q 196 975 196 951 l 196 1063 q 210 1098 196 1088 q 260 1107 223 1107 m 545 1107 q 596 1098 583 1107 q 610 1063 610 1088 l 610 975 q 596 941 610 951 q 545 931 583 931 q 494 941 508 931 q 481 975 481 951 l 481 1063 q 494 1098 481 1088 q 545 1107 508 1107 z "},"":{"ha":833,"x_min":7,"x_max":826,"o":"m 434 805 q 478 794 461 805 q 503 761 494 784 l 742 92 l 783 92 q 816 82 806 92 q 826 46 826 71 q 816 11 826 21 q 783 0 806 0 l 543 0 q 510 11 520 0 q 500 46 500 21 q 510 82 500 71 q 543 92 520 92 l 635 92 l 579 254 l 250 254 l 194 92 l 276 92 q 309 82 299 92 q 319 46 319 71 q 309 11 319 21 q 276 0 299 0 l 50 0 q 17 11 26 0 q 7 46 7 21 q 17 82 7 71 q 50 92 26 92 l 87 92 l 312 713 l 185 713 q 152 723 162 713 q 142 759 142 734 q 152 794 142 784 q 185 805 162 805 l 434 805 m 409 713 l 282 346 l 548 346 l 422 713 l 409 713 m 389 1239 q 474 1217 436 1239 q 534 1157 513 1196 q 556 1072 556 1119 q 534 987 556 1025 q 474 927 513 949 q 389 905 436 905 q 304 927 342 905 q 244 987 266 949 q 222 1072 222 1025 q 244 1157 222 1119 q 304 1217 266 1196 q 389 1239 342 1239 m 389 1149 q 333 1128 354 1149 q 312 1072 312 1107 q 333 1016 312 1037 q 389 995 354 995 q 446 1016 425 995 q 467 1072 467 1037 q 446 1128 467 1107 q 389 1149 425 1149 z "},"":{"ha":833,"x_min":0,"x_max":772,"o":"m 721 805 q 754 794 744 805 q 764 759 764 784 l 764 587 q 752 553 764 563 q 713 543 741 543 q 673 553 685 543 q 662 587 662 563 l 662 713 l 486 713 l 486 465 l 616 465 q 649 454 639 465 q 659 418 659 444 q 649 383 659 393 q 616 372 639 372 l 486 372 l 486 92 l 670 92 l 670 248 q 682 281 670 271 q 721 292 693 292 q 760 281 749 292 q 772 248 772 271 l 772 46 q 762 11 772 21 q 729 0 752 0 l 427 0 q 394 11 404 0 q 384 46 384 21 l 384 254 l 231 254 l 182 92 l 242 92 q 275 82 265 92 q 285 46 285 71 q 275 11 285 21 q 242 0 265 0 l 43 0 q 10 11 20 0 q 0 46 0 21 q 10 82 0 71 q 43 92 20 92 l 77 92 l 267 713 l 199 713 q 166 723 176 713 q 157 759 157 734 q 166 794 157 784 q 199 805 176 805 l 721 805 m 370 713 l 259 346 l 384 346 l 384 713 l 370 713 z "},"":{"ha":833,"x_min":80,"x_max":741,"o":"m 729 145 q 741 109 741 125 q 720 74 741 89 q 470 -14 610 -3 l 470 -77 q 573 -108 538 -76 q 608 -191 608 -140 q 566 -285 608 -250 q 441 -320 524 -320 q 352 -312 395 -320 q 274 -288 309 -304 q 258 -264 258 -281 q 264 -240 258 -254 q 295 -210 275 -210 q 304 -211 300 -210 q 368 -229 333 -222 q 435 -237 403 -237 q 489 -225 469 -237 q 509 -193 509 -214 q 490 -160 509 -171 q 430 -149 472 -149 l 404 -150 q 387 -143 393 -150 q 380 -120 380 -136 l 380 -12 q 221 54 289 0 q 117 198 153 109 q 80 402 80 288 q 124 621 80 526 q 248 768 168 715 q 430 820 328 820 q 543 798 494 820 q 627 736 593 777 l 627 776 q 638 810 627 800 q 677 820 650 820 q 717 810 705 820 q 728 776 728 800 l 728 552 q 717 518 728 528 q 677 508 705 508 q 638 518 650 508 q 627 552 627 528 q 606 636 627 598 q 543 697 585 674 q 437 720 500 720 q 307 681 363 720 q 219 570 250 642 q 187 402 187 498 q 217 234 187 306 q 302 124 247 163 q 430 85 357 85 q 558 105 497 85 q 668 162 619 125 q 693 172 680 172 q 729 145 713 172 z "},"":{"ha":833,"x_min":54,"x_max":746,"o":"m 695 292 q 734 281 723 292 q 746 248 746 271 l 746 46 q 736 11 746 21 q 703 0 726 0 l 97 0 q 64 11 74 0 q 54 46 54 21 q 64 82 54 71 q 97 92 74 92 l 166 92 l 166 713 l 97 713 q 64 723 74 713 q 54 759 54 734 q 64 794 54 784 q 97 805 74 805 l 690 805 q 723 794 713 805 q 732 759 732 784 l 732 587 q 721 553 732 563 q 682 543 709 543 q 642 553 654 543 q 631 587 631 563 l 631 713 l 268 713 l 268 461 l 443 461 l 443 523 q 453 557 443 547 q 491 567 464 567 q 529 557 518 567 q 539 523 539 547 l 539 307 q 529 273 539 283 q 491 263 518 263 q 453 273 464 263 q 443 307 443 283 l 443 369 l 268 369 l 268 92 l 644 92 l 644 248 q 656 281 644 271 q 695 292 667 292 m 561 960 q 572 939 572 952 q 555 904 572 922 q 524 887 541 887 q 503 894 515 887 l 249 1042 q 234 1069 234 1051 q 254 1115 234 1088 q 300 1143 277 1143 q 325 1134 313 1143 l 561 960 z "},"":{"ha":833,"x_min":54,"x_max":746,"o":"m 695 292 q 734 281 723 292 q 746 248 746 271 l 746 46 q 736 11 746 21 q 703 0 726 0 l 97 0 q 64 11 74 0 q 54 46 54 21 q 64 82 54 71 q 97 92 74 92 l 166 92 l 166 713 l 97 713 q 64 723 74 713 q 54 759 54 734 q 64 794 54 784 q 97 805 74 805 l 690 805 q 723 794 713 805 q 732 759 732 784 l 732 587 q 721 553 732 563 q 682 543 709 543 q 642 553 654 543 q 631 587 631 563 l 631 713 l 268 713 l 268 461 l 443 461 l 443 523 q 453 557 443 547 q 491 567 464 567 q 529 557 518 567 q 539 523 539 547 l 539 307 q 529 273 539 283 q 491 263 518 263 q 453 273 464 263 q 443 307 443 283 l 443 369 l 268 369 l 268 92 l 644 92 l 644 248 q 656 281 644 271 q 695 292 667 292 m 508 1134 q 533 1143 520 1143 q 578 1115 556 1143 q 599 1069 599 1088 q 584 1042 599 1051 l 330 894 q 309 887 318 887 q 277 904 292 887 q 261 939 261 922 q 272 960 261 952 l 508 1134 z "},"":{"ha":833,"x_min":54,"x_max":746,"o":"m 695 292 q 734 281 723 292 q 746 248 746 271 l 746 46 q 736 11 746 21 q 703 0 726 0 l 97 0 q 64 11 74 0 q 54 46 54 21 q 64 82 54 71 q 97 92 74 92 l 166 92 l 166 713 l 97 713 q 64 723 74 713 q 54 759 54 734 q 64 794 54 784 q 97 805 74 805 l 690 805 q 723 794 713 805 q 732 759 732 784 l 732 587 q 721 553 732 563 q 682 543 709 543 q 642 553 654 543 q 631 587 631 563 l 631 713 l 268 713 l 268 461 l 443 461 l 443 523 q 453 557 443 547 q 491 567 464 567 q 529 557 518 567 q 539 523 539 547 l 539 307 q 529 273 539 283 q 491 263 518 263 q 453 273 464 263 q 443 307 443 283 l 443 369 l 268 369 l 268 92 l 644 92 l 644 248 q 656 281 644 271 q 695 292 667 292 m 437 1130 q 476 1116 461 1130 l 642 958 q 653 936 653 948 q 637 904 653 922 q 608 888 623 888 q 587 896 597 888 l 437 1013 l 287 896 q 266 888 277 888 q 236 904 250 888 q 220 936 220 922 q 231 958 220 948 l 397 1116 q 437 1130 412 1130 z "},"":{"ha":833,"x_min":54,"x_max":746,"o":"m 695 292 q 734 281 723 292 q 746 248 746 271 l 746 46 q 736 11 746 21 q 703 0 726 0 l 97 0 q 64 11 74 0 q 54 46 54 21 q 64 82 54 71 q 97 92 74 92 l 166 92 l 166 713 l 97 713 q 64 723 74 713 q 54 759 54 734 q 64 794 54 784 q 97 805 74 805 l 690 805 q 723 794 713 805 q 732 759 732 784 l 732 587 q 721 553 732 563 q 682 543 709 543 q 642 553 654 543 q 631 587 631 563 l 631 713 l 268 713 l 268 461 l 443 461 l 443 523 q 453 557 443 547 q 491 567 464 567 q 529 557 518 567 q 539 523 539 547 l 539 307 q 529 273 539 283 q 491 263 518 263 q 453 273 464 263 q 443 307 443 283 l 443 369 l 268 369 l 268 92 l 644 92 l 644 248 q 656 281 644 271 q 695 292 667 292 m 294 1107 q 345 1098 332 1107 q 359 1063 359 1088 l 359 975 q 345 941 359 951 q 294 931 332 931 q 243 941 257 931 q 230 975 230 951 l 230 1063 q 243 1098 230 1088 q 294 1107 257 1107 m 579 1107 q 630 1098 616 1107 q 644 1063 644 1088 l 644 975 q 630 941 644 951 q 579 931 616 931 q 528 941 542 931 q 515 975 515 951 l 515 1063 q 528 1098 515 1088 q 579 1107 542 1107 z "},"":{"ha":833,"x_min":136,"x_max":697,"o":"m 641 805 q 674 794 664 805 q 684 759 684 784 q 674 723 684 734 q 641 713 664 713 l 467 713 l 467 92 l 654 92 q 687 82 677 92 q 697 46 697 71 q 687 11 697 21 q 654 0 677 0 l 178 0 q 145 11 155 0 q 136 46 136 21 q 145 82 136 71 q 178 92 155 92 l 366 92 l 366 713 l 192 713 q 159 723 169 713 q 149 759 149 734 q 159 794 149 784 q 192 805 169 805 l 641 805 m 539 960 q 550 939 550 952 q 534 904 550 922 q 503 887 519 887 q 481 894 493 887 l 227 1042 q 212 1069 212 1051 q 233 1115 212 1088 q 278 1143 255 1143 q 303 1134 291 1143 l 539 960 z "},"":{"ha":833,"x_min":136,"x_max":697,"o":"m 641 805 q 674 794 664 805 q 684 759 684 784 q 674 723 684 734 q 641 713 664 713 l 467 713 l 467 92 l 654 92 q 687 82 677 92 q 697 46 697 71 q 687 11 697 21 q 654 0 677 0 l 178 0 q 145 11 155 0 q 136 46 136 21 q 145 82 136 71 q 178 92 155 92 l 366 92 l 366 713 l 192 713 q 159 723 169 713 q 149 759 149 734 q 159 794 149 784 q 192 805 169 805 l 641 805 m 530 1134 q 555 1143 542 1143 q 600 1115 578 1143 q 621 1069 621 1088 q 606 1042 621 1051 l 352 894 q 330 887 340 887 q 299 904 314 887 q 283 939 283 922 q 294 960 283 952 l 530 1134 z "},"":{"ha":833,"x_min":136,"x_max":697,"o":"m 641 805 q 674 794 664 805 q 684 759 684 784 q 674 723 684 734 q 641 713 664 713 l 467 713 l 467 92 l 654 92 q 687 82 677 92 q 697 46 697 71 q 687 11 697 21 q 654 0 677 0 l 178 0 q 145 11 155 0 q 136 46 136 21 q 145 82 136 71 q 178 92 155 92 l 366 92 l 366 713 l 192 713 q 159 723 169 713 q 149 759 149 734 q 159 794 149 784 q 192 805 169 805 l 641 805 m 416 1130 q 456 1116 441 1130 l 622 958 q 633 936 633 948 q 617 904 633 922 q 587 888 603 888 q 566 896 576 888 l 416 1013 l 267 896 q 245 888 256 888 q 216 904 230 888 q 200 936 200 922 q 211 958 200 948 l 377 1116 q 416 1130 392 1130 z "},"":{"ha":833,"x_min":136,"x_max":697,"o":"m 641 805 q 674 794 664 805 q 684 759 684 784 q 674 723 684 734 q 641 713 664 713 l 467 713 l 467 92 l 654 92 q 687 82 677 92 q 697 46 697 71 q 687 11 697 21 q 654 0 677 0 l 178 0 q 145 11 155 0 q 136 46 136 21 q 145 82 136 71 q 178 92 155 92 l 366 92 l 366 713 l 192 713 q 159 723 169 713 q 149 759 149 734 q 159 794 149 784 q 192 805 169 805 l 641 805 m 274 1107 q 325 1098 311 1107 q 338 1063 338 1088 l 338 975 q 325 941 338 951 q 274 931 311 931 q 223 941 237 931 q 210 975 210 951 l 210 1063 q 223 1098 210 1088 q 274 1107 237 1107 m 559 1107 q 610 1098 596 1107 q 623 1063 623 1088 l 623 975 q 610 941 623 951 q 559 931 596 931 q 508 941 522 931 q 494 975 494 951 l 494 1063 q 508 1098 494 1088 q 559 1107 522 1107 z "},"":{"ha":833,"x_min":34,"x_max":773,"o":"m 416 805 q 604 756 523 805 q 729 617 684 708 q 773 402 773 526 q 729 188 773 279 q 604 48 684 97 q 416 0 523 0 l 97 0 q 64 11 74 0 q 54 46 54 21 q 64 82 54 71 q 97 92 74 92 l 173 92 l 173 369 l 77 369 q 44 379 54 369 q 34 415 34 390 q 44 451 34 440 q 77 461 54 461 l 173 461 l 173 713 l 97 713 q 64 723 74 713 q 54 759 54 734 q 64 794 54 784 q 97 805 74 805 l 416 805 m 401 92 q 541 128 481 92 q 633 233 601 163 q 666 402 666 302 q 633 571 666 502 q 541 677 601 641 q 401 713 481 713 l 275 713 l 275 461 l 404 461 q 436 451 427 461 q 446 415 446 440 q 436 379 446 390 q 404 369 427 369 l 275 369 l 275 92 l 401 92 z "},"":{"ha":833,"x_min":47,"x_max":785,"o":"m 743 805 q 775 794 766 805 q 785 759 785 784 q 775 723 785 734 q 743 713 766 713 l 704 713 l 704 25 q 691 -4 704 7 q 653 -15 679 -15 q 596 22 617 -15 l 244 651 l 241 651 l 241 92 l 337 92 q 370 82 360 92 q 380 46 380 71 q 370 11 380 21 q 337 0 360 0 l 97 0 q 64 11 74 0 q 54 46 54 21 q 64 82 54 71 q 97 92 74 92 l 142 92 l 142 713 l 90 713 q 57 723 67 713 q 47 759 47 734 q 57 794 47 784 q 90 805 67 805 l 242 805 q 266 800 257 805 q 281 786 275 795 l 602 211 l 605 211 l 605 713 l 523 713 q 490 723 500 713 q 480 759 480 734 q 490 794 480 784 q 523 805 500 805 l 743 805 m 335 1075 q 378 1068 359 1075 q 425 1050 397 1062 q 465 1033 448 1038 q 498 1027 481 1027 q 541 1039 520 1027 q 584 1074 562 1050 q 604 1082 592 1082 q 635 1065 621 1082 q 650 1034 650 1050 q 640 1010 650 1021 q 571 947 608 968 q 498 926 534 926 q 455 933 474 926 q 408 951 435 939 q 368 968 385 963 q 334 974 352 974 q 292 962 313 974 q 249 928 271 951 q 229 920 241 920 q 197 937 212 920 q 183 967 183 951 q 193 991 183 980 q 262 1054 225 1034 q 335 1075 299 1075 z "},"":{"ha":833,"x_min":60,"x_max":773,"o":"m 416 820 q 603 768 522 820 q 729 621 684 715 q 773 402 773 526 q 729 183 773 278 q 603 37 684 89 q 416 -15 522 -15 q 230 37 311 -15 q 104 183 149 89 q 60 402 60 278 q 104 621 60 526 q 230 768 149 715 q 416 820 311 820 m 416 720 q 285 681 342 720 q 198 570 229 642 q 167 402 167 498 q 198 234 167 306 q 285 124 229 163 q 416 85 342 85 q 548 124 491 85 q 635 234 604 163 q 666 402 666 306 q 635 570 666 498 q 548 681 604 642 q 416 720 491 720 m 554 960 q 565 939 565 952 q 549 904 565 922 q 517 887 534 887 q 496 894 508 887 l 242 1042 q 227 1069 227 1051 q 248 1115 227 1088 q 293 1143 270 1143 q 318 1134 306 1143 l 554 960 z "},"":{"ha":833,"x_min":60,"x_max":773,"o":"m 416 820 q 603 768 522 820 q 729 621 684 715 q 773 402 773 526 q 729 183 773 278 q 603 37 684 89 q 416 -15 522 -15 q 230 37 311 -15 q 104 183 149 89 q 60 402 60 278 q 104 621 60 526 q 230 768 149 715 q 416 820 311 820 m 416 720 q 285 681 342 720 q 198 570 229 642 q 167 402 167 498 q 198 234 167 306 q 285 124 229 163 q 416 85 342 85 q 548 124 491 85 q 635 234 604 163 q 666 402 666 306 q 635 570 666 498 q 548 681 604 642 q 416 720 491 720 m 515 1134 q 540 1143 527 1143 q 585 1115 563 1143 q 606 1069 606 1088 q 591 1042 606 1051 l 337 894 q 315 887 325 887 q 284 904 299 887 q 268 939 268 922 q 279 960 268 952 l 515 1134 z "},"":{"ha":833,"x_min":60,"x_max":773,"o":"m 416 820 q 603 768 522 820 q 729 621 684 715 q 773 402 773 526 q 729 183 773 278 q 603 37 684 89 q 416 -15 522 -15 q 230 37 311 -15 q 104 183 149 89 q 60 402 60 278 q 104 621 60 526 q 230 768 149 715 q 416 820 311 820 m 416 720 q 285 681 342 720 q 198 570 229 642 q 167 402 167 498 q 198 234 167 306 q 285 124 229 163 q 416 85 342 85 q 548 124 491 85 q 635 234 604 163 q 666 402 666 306 q 635 570 666 498 q 548 681 604 642 q 416 720 491 720 m 416 1130 q 456 1116 441 1130 l 622 958 q 633 936 633 948 q 617 904 633 922 q 587 888 603 888 q 566 896 576 888 l 416 1013 l 267 896 q 245 888 256 888 q 216 904 230 888 q 200 936 200 922 q 211 958 200 948 l 377 1116 q 416 1130 392 1130 z "},"":{"ha":833,"x_min":60,"x_max":773,"o":"m 416 820 q 603 768 522 820 q 729 621 684 715 q 773 402 773 526 q 729 183 773 278 q 603 37 684 89 q 416 -15 522 -15 q 230 37 311 -15 q 104 183 149 89 q 60 402 60 278 q 104 621 60 526 q 230 768 149 715 q 416 820 311 820 m 416 720 q 285 681 342 720 q 198 570 229 642 q 167 402 167 498 q 198 234 167 306 q 285 124 229 163 q 416 85 342 85 q 548 124 491 85 q 635 234 604 163 q 666 402 666 306 q 635 570 666 498 q 548 681 604 642 q 416 720 491 720 m 335 1075 q 378 1068 359 1075 q 425 1050 397 1062 q 465 1033 448 1038 q 498 1027 481 1027 q 541 1039 520 1027 q 584 1074 562 1050 q 604 1082 592 1082 q 635 1065 621 1082 q 650 1034 650 1050 q 640 1010 650 1021 q 571 947 608 968 q 498 926 534 926 q 455 933 474 926 q 408 951 435 939 q 368 968 385 963 q 334 974 352 974 q 292 962 313 974 q 249 928 271 951 q 229 920 241 920 q 197 937 212 920 q 183 967 183 951 q 193 991 183 980 q 262 1054 225 1034 q 335 1075 299 1075 z "},"":{"ha":833,"x_min":60,"x_max":773,"o":"m 416 820 q 603 768 522 820 q 729 621 684 715 q 773 402 773 526 q 729 183 773 278 q 603 37 684 89 q 416 -15 522 -15 q 230 37 311 -15 q 104 183 149 89 q 60 402 60 278 q 104 621 60 526 q 230 768 149 715 q 416 820 311 820 m 416 720 q 285 681 342 720 q 198 570 229 642 q 167 402 167 498 q 198 234 167 306 q 285 124 229 163 q 416 85 342 85 q 548 124 491 85 q 635 234 604 163 q 666 402 666 306 q 635 570 666 498 q 548 681 604 642 q 416 720 491 720 m 274 1107 q 325 1098 311 1107 q 338 1063 338 1088 l 338 975 q 325 941 338 951 q 274 931 311 931 q 223 941 237 931 q 210 975 210 951 l 210 1063 q 223 1098 210 1088 q 274 1107 237 1107 m 559 1107 q 610 1098 596 1107 q 623 1063 623 1088 l 623 975 q 610 941 623 951 q 559 931 596 931 q 508 941 522 931 q 494 975 494 951 l 494 1063 q 508 1098 494 1088 q 559 1107 522 1107 z "},"":{"ha":833,"x_min":158,"x_max":675,"o":"m 593 637 q 623 653 610 653 q 656 635 638 653 q 675 602 675 616 q 659 572 675 588 l 481 395 l 659 218 q 675 188 675 201 q 656 155 675 173 q 623 136 638 136 q 593 153 610 136 l 416 330 l 239 153 q 210 136 223 136 q 176 155 195 136 q 158 188 158 173 q 174 218 158 201 l 351 395 l 174 572 q 158 602 158 588 q 176 635 158 616 q 210 653 195 653 q 239 637 223 653 l 416 460 l 593 637 z "},"":{"ha":833,"x_min":60,"x_max":773,"o":"m 726 849 q 750 814 750 832 q 740 786 750 802 l 680 699 q 749 569 725 644 q 773 402 773 493 q 729 183 773 278 q 603 37 684 89 q 416 -15 522 -15 q 223 41 307 -15 l 171 -34 q 139 -56 155 -56 q 107 -43 127 -56 q 82 -7 82 -26 q 93 20 82 4 l 153 106 q 84 236 108 161 q 60 402 60 312 q 104 621 60 526 q 230 768 149 715 q 416 820 311 820 q 609 764 526 820 l 662 840 q 694 862 677 862 q 726 849 707 862 m 416 720 q 285 681 342 720 q 198 570 229 642 q 167 402 167 498 q 216 198 167 279 l 550 680 q 416 720 492 720 m 282 126 q 416 85 340 85 q 548 124 491 85 q 635 234 604 163 q 666 402 666 306 q 616 608 666 526 l 282 126 z "},"":{"ha":833,"x_min":47,"x_max":785,"o":"m 743 805 q 775 794 766 805 q 785 759 785 784 q 775 723 785 734 q 743 713 766 713 l 701 713 l 701 267 q 626 55 701 125 q 416 -15 552 -15 q 207 55 281 -15 q 132 267 132 125 l 132 713 l 90 713 q 57 723 67 713 q 47 759 47 734 q 57 794 47 784 q 90 805 67 805 l 310 805 q 343 794 333 805 q 353 759 353 784 q 343 723 353 734 q 310 713 333 713 l 234 713 l 234 280 q 278 131 234 176 q 416 85 322 85 q 555 131 511 85 q 599 280 599 176 l 599 713 l 523 713 q 490 723 500 713 q 480 759 480 734 q 490 794 480 784 q 523 805 500 805 l 743 805 m 539 960 q 550 939 550 952 q 534 904 550 922 q 503 887 519 887 q 481 894 493 887 l 227 1042 q 212 1069 212 1051 q 233 1115 212 1088 q 278 1143 255 1143 q 303 1134 291 1143 l 539 960 z "},"":{"ha":833,"x_min":47,"x_max":785,"o":"m 743 805 q 775 794 766 805 q 785 759 785 784 q 775 723 785 734 q 743 713 766 713 l 701 713 l 701 267 q 626 55 701 125 q 416 -15 552 -15 q 207 55 281 -15 q 132 267 132 125 l 132 713 l 90 713 q 57 723 67 713 q 47 759 47 734 q 57 794 47 784 q 90 805 67 805 l 310 805 q 343 794 333 805 q 353 759 353 784 q 343 723 353 734 q 310 713 333 713 l 234 713 l 234 280 q 278 131 234 176 q 416 85 322 85 q 555 131 511 85 q 599 280 599 176 l 599 713 l 523 713 q 490 723 500 713 q 480 759 480 734 q 490 794 480 784 q 523 805 500 805 l 743 805 m 530 1134 q 555 1143 542 1143 q 600 1115 578 1143 q 621 1069 621 1088 q 606 1042 621 1051 l 352 894 q 330 887 340 887 q 299 904 314 887 q 283 939 283 922 q 294 960 283 952 l 530 1134 z "},"":{"ha":833,"x_min":47,"x_max":785,"o":"m 743 805 q 775 794 766 805 q 785 759 785 784 q 775 723 785 734 q 743 713 766 713 l 701 713 l 701 267 q 626 55 701 125 q 416 -15 552 -15 q 207 55 281 -15 q 132 267 132 125 l 132 713 l 90 713 q 57 723 67 713 q 47 759 47 734 q 57 794 47 784 q 90 805 67 805 l 310 805 q 343 794 333 805 q 353 759 353 784 q 343 723 353 734 q 310 713 333 713 l 234 713 l 234 280 q 278 131 234 176 q 416 85 322 85 q 555 131 511 85 q 599 280 599 176 l 599 713 l 523 713 q 490 723 500 713 q 480 759 480 734 q 490 794 480 784 q 523 805 500 805 l 743 805 m 416 1130 q 456 1116 441 1130 l 622 958 q 633 936 633 948 q 617 904 633 922 q 587 888 603 888 q 566 896 576 888 l 416 1013 l 267 896 q 245 888 256 888 q 216 904 230 888 q 200 936 200 922 q 211 958 200 948 l 377 1116 q 416 1130 392 1130 z "},"":{"ha":833,"x_min":47,"x_max":785,"o":"m 743 805 q 775 794 766 805 q 785 759 785 784 q 775 723 785 734 q 743 713 766 713 l 701 713 l 701 267 q 626 55 701 125 q 416 -15 552 -15 q 207 55 281 -15 q 132 267 132 125 l 132 713 l 90 713 q 57 723 67 713 q 47 759 47 734 q 57 794 47 784 q 90 805 67 805 l 310 805 q 343 794 333 805 q 353 759 353 784 q 343 723 353 734 q 310 713 333 713 l 234 713 l 234 280 q 278 131 234 176 q 416 85 322 85 q 555 131 511 85 q 599 280 599 176 l 599 713 l 523 713 q 490 723 500 713 q 480 759 480 734 q 490 794 480 784 q 523 805 500 805 l 743 805 m 274 1107 q 325 1098 311 1107 q 338 1063 338 1088 l 338 975 q 325 941 338 951 q 274 931 311 931 q 223 941 237 931 q 210 975 210 951 l 210 1063 q 223 1098 210 1088 q 274 1107 237 1107 m 559 1107 q 610 1098 596 1107 q 623 1063 623 1088 l 623 975 q 610 941 623 951 q 559 931 596 931 q 508 941 522 931 q 494 975 494 951 l 494 1063 q 508 1098 494 1088 q 559 1107 522 1107 z "},"":{"ha":833,"x_min":41,"x_max":792,"o":"m 536 1134 q 562 1143 549 1143 q 607 1115 585 1143 q 627 1069 627 1088 q 612 1042 627 1051 l 359 894 q 337 887 347 887 q 306 904 321 887 q 290 939 290 922 q 300 960 290 952 l 536 1134 m 749 805 q 782 794 772 805 q 792 759 792 784 q 782 723 792 734 q 749 713 772 713 l 703 713 l 467 334 l 467 92 l 621 92 q 653 82 644 92 q 663 46 663 71 q 653 11 663 21 q 621 0 644 0 l 212 0 q 179 11 189 0 q 170 46 170 21 q 179 82 170 71 q 212 92 189 92 l 366 92 l 366 334 l 131 713 l 83 713 q 51 723 60 713 q 41 759 41 734 q 51 794 41 784 q 83 805 60 805 l 310 805 q 343 794 333 805 q 353 759 353 784 q 343 723 353 734 q 310 713 333 713 l 247 713 l 416 435 l 587 713 l 543 713 q 510 723 520 713 q 500 759 500 734 q 510 794 500 784 q 543 805 520 805 l 749 805 z "},"":{"ha":833,"x_min":75,"x_max":727,"o":"m 471 805 q 504 794 494 805 q 514 759 514 784 q 504 723 514 734 q 471 713 494 713 l 325 713 l 325 629 l 481 629 q 616 600 561 629 q 699 520 671 571 q 727 406 727 470 q 699 292 727 342 q 616 214 671 242 q 481 185 561 185 l 325 185 l 325 92 l 471 92 q 504 82 494 92 q 514 46 514 71 q 504 11 514 21 q 471 0 494 0 l 117 0 q 84 11 94 0 q 75 46 75 21 q 84 82 75 71 q 117 92 94 92 l 223 92 l 223 713 l 117 713 q 84 723 94 713 q 75 759 75 734 q 84 794 75 784 q 117 805 94 805 l 471 805 m 325 277 l 467 277 q 581 311 541 277 q 620 406 620 345 q 582 501 620 465 q 467 536 544 536 l 325 536 l 325 277 z "},"":{"ha":833,"x_min":27,"x_max":713,"o":"m 418 893 q 558 862 500 893 q 645 778 616 831 q 674 659 674 725 q 643 551 674 597 q 556 476 612 505 q 671 388 629 448 q 713 244 713 327 q 678 105 713 164 q 581 16 644 47 q 437 -15 519 -15 q 392 -4 403 -15 q 380 37 380 7 q 391 74 380 62 q 424 85 401 85 q 557 127 509 85 q 606 245 606 168 q 559 374 606 328 q 432 420 512 420 q 399 431 409 420 q 389 467 389 442 q 399 502 389 491 q 432 515 409 513 q 533 559 498 522 q 568 659 568 597 q 529 759 568 722 q 415 795 489 795 q 307 751 346 795 q 268 632 268 707 l 268 46 q 258 11 268 21 q 225 0 248 0 l 70 0 q 37 11 47 0 q 27 46 27 21 q 37 82 27 71 q 70 92 47 92 l 166 92 l 166 640 q 196 771 166 714 q 283 861 227 829 q 418 893 340 893 z "},"":{"ha":833,"x_min":92,"x_max":785,"o":"m 419 642 q 610 585 547 642 q 674 416 674 528 l 674 146 q 719 92 674 92 l 743 92 q 775 82 766 92 q 785 46 785 71 q 775 11 785 21 q 743 0 766 0 l 699 0 q 624 22 655 0 q 583 87 592 44 q 462 12 527 38 q 325 -15 397 -15 q 204 8 256 -15 q 121 77 151 32 q 92 183 92 121 q 168 341 92 290 q 366 393 245 393 q 572 358 474 393 l 572 416 q 535 512 572 481 q 416 543 498 543 q 311 529 366 543 q 206 490 256 515 q 185 484 195 484 q 148 516 163 484 q 140 543 140 532 q 165 580 140 567 q 288 626 222 610 q 419 642 353 642 m 367 297 q 244 270 289 297 q 199 185 199 243 q 233 108 199 136 q 329 81 267 81 q 572 193 464 81 l 572 267 q 473 289 526 281 q 367 297 420 297 m 581 777 q 592 756 592 769 q 576 721 592 739 q 545 704 561 704 q 523 711 535 704 l 269 859 q 254 886 254 868 q 275 932 254 905 q 320 960 297 960 q 345 951 333 960 l 581 777 z "},"":{"ha":833,"x_min":92,"x_max":785,"o":"m 419 642 q 610 585 547 642 q 674 416 674 528 l 674 146 q 719 92 674 92 l 743 92 q 775 82 766 92 q 785 46 785 71 q 775 11 785 21 q 743 0 766 0 l 699 0 q 624 22 655 0 q 583 87 592 44 q 462 12 527 38 q 325 -15 397 -15 q 204 8 256 -15 q 121 77 151 32 q 92 183 92 121 q 168 341 92 290 q 366 393 245 393 q 572 358 474 393 l 572 416 q 535 512 572 481 q 416 543 498 543 q 311 529 366 543 q 206 490 256 515 q 185 484 195 484 q 148 516 163 484 q 140 543 140 532 q 165 580 140 567 q 288 626 222 610 q 419 642 353 642 m 367 297 q 244 270 289 297 q 199 185 199 243 q 233 108 199 136 q 329 81 267 81 q 572 193 464 81 l 572 267 q 473 289 526 281 q 367 297 420 297 m 488 951 q 513 960 500 960 q 558 932 536 960 q 578 886 578 905 q 564 859 578 868 l 310 711 q 288 704 298 704 q 257 721 272 704 q 241 756 241 739 q 252 777 241 769 l 488 951 z "},"":{"ha":833,"x_min":92,"x_max":785,"o":"m 419 642 q 610 585 547 642 q 674 416 674 528 l 674 146 q 719 92 674 92 l 743 92 q 775 82 766 92 q 785 46 785 71 q 775 11 785 21 q 743 0 766 0 l 699 0 q 624 22 655 0 q 583 87 592 44 q 462 12 527 38 q 325 -15 397 -15 q 204 8 256 -15 q 121 77 151 32 q 92 183 92 121 q 168 341 92 290 q 366 393 245 393 q 572 358 474 393 l 572 416 q 535 512 572 481 q 416 543 498 543 q 311 529 366 543 q 206 490 256 515 q 185 484 195 484 q 148 516 163 484 q 140 543 140 532 q 165 580 140 567 q 288 626 222 610 q 419 642 353 642 m 367 297 q 244 270 289 297 q 199 185 199 243 q 233 108 199 136 q 329 81 267 81 q 572 193 464 81 l 572 267 q 473 289 526 281 q 367 297 420 297 m 416 947 q 456 933 441 947 l 622 775 q 633 753 633 765 q 617 721 633 739 q 587 705 603 705 q 566 713 576 705 l 416 830 l 267 713 q 245 705 256 705 q 216 721 230 705 q 200 753 200 739 q 211 775 200 765 l 377 933 q 416 947 392 947 z "},"":{"ha":833,"x_min":92,"x_max":785,"o":"m 419 642 q 610 585 547 642 q 674 416 674 528 l 674 146 q 719 92 674 92 l 743 92 q 775 82 766 92 q 785 46 785 71 q 775 11 785 21 q 743 0 766 0 l 699 0 q 624 22 655 0 q 583 87 592 44 q 462 12 527 38 q 325 -15 397 -15 q 204 8 256 -15 q 121 77 151 32 q 92 183 92 121 q 168 341 92 290 q 366 393 245 393 q 572 358 474 393 l 572 416 q 535 512 572 481 q 416 543 498 543 q 311 529 366 543 q 206 490 256 515 q 185 484 195 484 q 148 516 163 484 q 140 543 140 532 q 165 580 140 567 q 288 626 222 610 q 419 642 353 642 m 367 297 q 244 270 289 297 q 199 185 199 243 q 233 108 199 136 q 329 81 267 81 q 572 193 464 81 l 572 267 q 473 289 526 281 q 367 297 420 297 m 335 892 q 378 885 359 892 q 425 867 397 879 q 465 850 448 855 q 498 844 481 844 q 541 856 520 844 q 584 890 562 867 q 604 899 592 899 q 635 882 621 899 q 650 851 650 867 q 640 827 650 838 q 571 764 608 785 q 498 743 534 743 q 455 750 474 743 q 408 768 435 756 q 368 785 385 780 q 334 791 352 791 q 292 779 313 791 q 249 745 271 768 q 229 736 241 736 q 197 753 212 736 q 183 784 183 768 q 193 808 183 797 q 262 871 225 850 q 335 892 299 892 z "},"":{"ha":833,"x_min":92,"x_max":785,"o":"m 419 642 q 610 585 547 642 q 674 416 674 528 l 674 146 q 719 92 674 92 l 743 92 q 775 82 766 92 q 785 46 785 71 q 775 11 785 21 q 743 0 766 0 l 699 0 q 624 22 655 0 q 583 87 592 44 q 462 12 527 38 q 325 -15 397 -15 q 204 8 256 -15 q 121 77 151 32 q 92 183 92 121 q 168 341 92 290 q 366 393 245 393 q 572 358 474 393 l 572 416 q 535 512 572 481 q 416 543 498 543 q 311 529 366 543 q 206 490 256 515 q 185 484 195 484 q 148 516 163 484 q 140 543 140 532 q 165 580 140 567 q 288 626 222 610 q 419 642 353 642 m 367 297 q 244 270 289 297 q 199 185 199 243 q 233 108 199 136 q 329 81 267 81 q 572 193 464 81 l 572 267 q 473 289 526 281 q 367 297 420 297 m 274 924 q 325 915 311 924 q 338 880 338 905 l 338 792 q 325 758 338 768 q 274 748 311 748 q 223 758 237 748 q 210 792 210 768 l 210 880 q 223 915 210 905 q 274 924 237 924 m 559 924 q 610 915 596 924 q 623 880 623 905 l 623 792 q 610 758 623 768 q 559 748 596 748 q 508 758 522 748 q 494 792 494 768 l 494 880 q 508 915 494 905 q 559 924 522 924 z "},"":{"ha":833,"x_min":92,"x_max":785,"o":"m 419 642 q 610 585 547 642 q 674 416 674 528 l 674 146 q 719 92 674 92 l 743 92 q 775 82 766 92 q 785 46 785 71 q 775 11 785 21 q 743 0 766 0 l 699 0 q 624 22 655 0 q 583 87 592 44 q 462 12 527 38 q 325 -15 397 -15 q 204 8 256 -15 q 121 77 151 32 q 92 183 92 121 q 168 341 92 290 q 366 393 245 393 q 572 358 474 393 l 572 416 q 535 512 572 481 q 416 543 498 543 q 311 529 366 543 q 206 490 256 515 q 185 484 195 484 q 148 516 163 484 q 140 543 140 532 q 165 580 140 567 q 288 626 222 610 q 419 642 353 642 m 367 297 q 244 270 289 297 q 199 185 199 243 q 233 108 199 136 q 329 81 267 81 q 572 193 464 81 l 572 267 q 473 289 526 281 q 367 297 420 297 m 421 1056 q 506 1034 468 1056 q 566 974 545 1013 q 588 889 588 936 q 566 804 588 842 q 506 744 545 766 q 421 722 468 722 q 336 744 374 722 q 276 804 298 766 q 254 889 254 842 q 276 974 254 936 q 336 1034 298 1013 q 421 1056 374 1056 m 421 966 q 365 945 386 966 q 344 889 344 924 q 365 833 344 854 q 421 812 386 812 q 477 833 456 812 q 498 889 498 854 q 477 945 498 924 q 421 966 456 966 z "},"":{"ha":833,"x_min":51,"x_max":781,"o":"m 578 642 q 729 563 682 642 q 781 340 777 484 q 771 308 781 317 q 738 298 761 298 l 467 298 q 578 83 471 83 q 638 96 611 83 q 694 136 665 109 q 720 148 705 148 q 758 127 741 148 q 772 93 772 110 q 754 57 772 74 q 672 3 717 22 q 578 -15 627 -15 q 413 83 468 -15 q 331 11 380 37 q 227 -15 282 -15 q 134 7 174 -15 q 73 68 94 28 q 51 163 51 109 q 135 335 51 276 q 366 393 220 393 l 366 408 q 347 510 366 477 q 277 543 328 543 q 217 532 246 543 q 157 496 188 520 q 128 486 144 486 q 93 503 109 486 q 79 537 79 519 q 94 570 79 556 q 277 642 178 642 q 427 563 380 642 q 492 622 454 602 q 578 642 530 642 m 580 543 q 505 508 532 543 q 471 393 479 473 l 674 393 q 647 505 669 467 q 580 543 625 543 m 366 298 q 206 264 257 298 q 155 163 155 231 q 175 102 155 124 q 230 81 195 81 q 299 100 268 81 q 348 154 330 119 q 366 231 366 188 l 366 298 z "},"":{"ha":833,"x_min":86,"x_max":714,"o":"m 704 144 q 714 111 714 127 q 692 72 714 87 q 582 14 645 36 q 450 -14 518 -8 l 450 -77 q 553 -108 518 -76 q 587 -191 587 -140 q 545 -285 587 -250 q 421 -320 503 -320 q 332 -312 375 -320 q 254 -288 288 -304 q 238 -264 238 -281 q 243 -240 238 -254 q 275 -210 255 -210 q 283 -211 280 -210 q 348 -229 313 -222 q 414 -237 382 -237 q 469 -225 449 -237 q 488 -193 488 -214 q 470 -160 488 -171 q 410 -149 452 -149 l 383 -150 q 367 -143 373 -150 q 360 -120 360 -136 l 360 -12 q 215 44 277 0 q 120 159 153 89 q 86 313 86 229 q 127 481 86 407 q 243 599 169 556 q 413 642 317 642 q 524 620 473 642 q 610 557 574 597 l 610 597 q 621 631 610 621 q 661 642 633 642 q 700 631 688 642 q 711 597 711 621 l 711 401 q 700 367 711 377 q 661 357 688 357 q 621 367 633 357 q 610 401 610 377 q 588 474 610 442 q 523 524 566 506 q 420 541 480 541 q 303 512 355 541 q 222 431 252 483 q 193 313 193 378 q 221 196 193 248 q 298 115 248 144 q 413 85 348 85 q 534 105 475 85 q 641 161 593 124 q 667 172 655 172 q 704 144 687 172 z "},"":{"ha":833,"x_min":99,"x_max":740,"o":"m 422 642 q 590 602 521 642 q 697 492 660 562 q 740 330 734 422 q 730 298 740 307 q 697 288 720 288 l 206 288 q 266 135 211 187 q 422 83 321 83 q 546 99 485 83 q 653 142 607 115 q 674 148 665 148 q 713 112 698 148 q 719 86 719 98 q 689 44 719 59 q 566 1 637 18 q 422 -15 494 -15 q 248 24 320 -15 q 137 138 175 64 q 99 313 99 212 q 140 485 99 410 q 255 601 182 559 q 422 642 328 642 m 422 543 q 284 501 339 543 q 213 383 230 458 l 627 383 q 562 502 613 461 q 422 543 511 543 m 581 777 q 592 756 592 769 q 576 721 592 739 q 545 704 561 704 q 523 711 535 704 l 269 859 q 254 886 254 868 q 275 932 254 905 q 320 960 297 960 q 345 951 333 960 l 581 777 z "},"":{"ha":833,"x_min":99,"x_max":740,"o":"m 422 642 q 590 602 521 642 q 697 492 660 562 q 740 330 734 422 q 730 298 740 307 q 697 288 720 288 l 206 288 q 266 135 211 187 q 422 83 321 83 q 546 99 485 83 q 653 142 607 115 q 674 148 665 148 q 713 112 698 148 q 719 86 719 98 q 689 44 719 59 q 566 1 637 18 q 422 -15 494 -15 q 248 24 320 -15 q 137 138 175 64 q 99 313 99 212 q 140 485 99 410 q 255 601 182 559 q 422 642 328 642 m 422 543 q 284 501 339 543 q 213 383 230 458 l 627 383 q 562 502 613 461 q 422 543 511 543 m 515 951 q 540 960 527 960 q 585 932 563 960 q 606 886 606 905 q 591 859 606 868 l 337 711 q 315 704 325 704 q 284 721 299 704 q 268 756 268 739 q 279 777 268 769 l 515 951 z "},"":{"ha":833,"x_min":99,"x_max":740,"o":"m 422 642 q 590 602 521 642 q 697 492 660 562 q 740 330 734 422 q 730 298 740 307 q 697 288 720 288 l 206 288 q 266 135 211 187 q 422 83 321 83 q 546 99 485 83 q 653 142 607 115 q 674 148 665 148 q 713 112 698 148 q 719 86 719 98 q 689 44 719 59 q 566 1 637 18 q 422 -15 494 -15 q 248 24 320 -15 q 137 138 175 64 q 99 313 99 212 q 140 485 99 410 q 255 601 182 559 q 422 642 328 642 m 422 543 q 284 501 339 543 q 213 383 230 458 l 627 383 q 562 502 613 461 q 422 543 511 543 m 430 947 q 469 933 454 947 l 635 775 q 646 753 646 765 q 631 721 646 739 q 601 705 616 705 q 580 713 590 705 l 430 830 l 280 713 q 259 705 270 705 q 229 721 243 705 q 214 753 214 739 q 224 775 214 765 l 391 933 q 430 947 406 947 z "},"":{"ha":833,"x_min":99,"x_max":740,"o":"m 422 642 q 590 602 521 642 q 697 492 660 562 q 740 330 734 422 q 730 298 740 307 q 697 288 720 288 l 206 288 q 266 135 211 187 q 422 83 321 83 q 546 99 485 83 q 653 142 607 115 q 674 148 665 148 q 713 112 698 148 q 719 86 719 98 q 689 44 719 59 q 566 1 637 18 q 422 -15 494 -15 q 248 24 320 -15 q 137 138 175 64 q 99 313 99 212 q 140 485 99 410 q 255 601 182 559 q 422 642 328 642 m 422 543 q 284 501 339 543 q 213 383 230 458 l 627 383 q 562 502 613 461 q 422 543 511 543 m 281 924 q 332 915 318 924 q 345 880 345 905 l 345 792 q 332 758 345 768 q 281 748 318 748 q 230 758 243 748 q 216 792 216 768 l 216 880 q 230 915 216 905 q 281 924 243 924 m 566 924 q 616 915 603 924 q 630 880 630 905 l 630 792 q 616 758 630 768 q 566 748 603 748 q 515 758 528 748 q 501 792 501 768 l 501 880 q 515 915 501 905 q 566 924 528 924 z "},"":{"ha":833,"x_min":127,"x_max":744,"o":"m 441 627 q 474 616 464 627 q 484 581 484 606 l 484 92 l 701 92 q 734 82 724 92 q 744 46 744 71 q 734 11 744 21 q 701 0 724 0 l 170 0 q 137 11 146 0 q 127 46 127 21 q 137 82 127 71 q 170 92 146 92 l 382 92 l 382 534 l 210 534 q 177 545 187 534 q 168 581 168 555 q 177 616 168 606 q 210 627 187 627 l 441 627 m 513 777 q 524 756 524 769 q 508 721 524 739 q 477 704 493 704 q 455 711 467 704 l 201 859 q 186 886 186 868 q 207 932 186 905 q 252 960 229 960 q 277 951 265 960 l 513 777 z "},"":{"ha":833,"x_min":127,"x_max":744,"o":"m 441 627 q 474 616 464 627 q 484 581 484 606 l 484 92 l 701 92 q 734 82 724 92 q 744 46 744 71 q 734 11 744 21 q 701 0 724 0 l 170 0 q 137 11 146 0 q 127 46 127 21 q 137 82 127 71 q 170 92 146 92 l 382 92 l 382 534 l 210 534 q 177 545 187 534 q 168 581 168 555 q 177 616 168 606 q 210 627 187 627 l 441 627 m 488 951 q 513 960 500 960 q 558 932 536 960 q 578 886 578 905 q 564 859 578 868 l 310 711 q 288 704 298 704 q 257 721 272 704 q 241 756 241 739 q 252 777 241 769 l 488 951 z "},"":{"ha":833,"x_min":127,"x_max":744,"o":"m 441 627 q 474 616 464 627 q 484 581 484 606 l 484 92 l 701 92 q 734 82 724 92 q 744 46 744 71 q 734 11 744 21 q 701 0 724 0 l 170 0 q 137 11 146 0 q 127 46 127 21 q 137 82 127 71 q 170 92 146 92 l 382 92 l 382 534 l 210 534 q 177 545 187 534 q 168 581 168 555 q 177 616 168 606 q 210 627 187 627 l 441 627 m 416 947 q 456 933 441 947 l 622 775 q 633 753 633 765 q 617 721 633 739 q 587 705 603 705 q 566 713 576 705 l 416 830 l 267 713 q 245 705 256 705 q 216 721 230 705 q 200 753 200 739 q 211 775 200 765 l 377 933 q 416 947 392 947 z "},"":{"ha":833,"x_min":127,"x_max":744,"o":"m 441 627 q 474 616 464 627 q 484 581 484 606 l 484 92 l 701 92 q 734 82 724 92 q 744 46 744 71 q 734 11 744 21 q 701 0 724 0 l 170 0 q 137 11 146 0 q 127 46 127 21 q 137 82 127 71 q 170 92 146 92 l 382 92 l 382 534 l 210 534 q 177 545 187 534 q 168 581 168 555 q 177 616 168 606 q 210 627 187 627 l 441 627 m 274 924 q 325 915 311 924 q 338 880 338 905 l 338 792 q 325 758 338 768 q 274 748 311 748 q 223 758 237 748 q 210 792 210 768 l 210 880 q 223 915 210 905 q 274 924 237 924 m 559 924 q 610 915 596 924 q 623 880 623 905 l 623 792 q 610 758 623 768 q 559 748 596 748 q 508 758 522 748 q 494 792 494 768 l 494 880 q 508 915 494 905 q 559 924 522 924 z "},"":{"ha":833,"x_min":95,"x_max":738,"o":"m 541 742 q 738 293 738 561 q 696 132 738 202 q 581 24 654 62 q 416 -15 508 -15 q 252 24 325 -15 q 137 132 178 62 q 95 293 95 202 q 137 454 95 384 q 252 562 178 524 q 416 601 325 601 q 578 549 498 601 q 437 703 529 630 l 274 642 q 253 637 262 637 q 233 645 241 637 q 218 670 224 652 q 212 695 212 683 q 241 728 212 718 l 342 766 q 260 810 312 784 q 235 842 235 823 q 244 873 235 855 q 283 903 260 903 q 307 897 295 903 q 457 809 392 856 l 618 869 q 639 874 629 874 q 659 866 651 874 q 674 841 667 859 q 680 816 680 828 q 650 783 680 793 l 541 742 m 416 85 q 529 111 480 85 q 604 184 577 137 q 631 293 631 231 q 604 402 631 355 q 529 475 577 449 q 416 500 480 500 q 304 475 353 500 q 229 402 256 449 q 202 293 202 355 q 229 184 202 231 q 304 111 256 137 q 416 85 353 85 z "},"":{"ha":833,"x_min":52,"x_max":793,"o":"m 493 642 q 600 615 555 642 q 670 538 646 588 q 694 420 694 488 l 694 92 l 750 92 q 783 82 773 92 q 793 46 793 71 q 783 11 793 21 q 750 0 773 0 l 530 0 q 497 11 507 0 q 488 46 488 21 q 497 82 488 71 q 530 92 507 92 l 593 92 l 593 410 q 565 506 593 471 q 483 541 537 541 q 375 508 425 541 q 296 416 326 475 q 266 286 266 358 l 266 92 l 328 92 q 361 82 351 92 q 371 46 371 71 q 361 11 371 21 q 328 0 351 0 l 109 0 q 76 11 85 0 q 66 46 66 21 q 76 82 66 71 q 109 92 85 92 l 164 92 l 164 534 l 95 534 q 62 545 72 534 q 52 581 52 555 q 62 616 52 606 q 95 627 72 627 l 216 627 q 249 616 239 627 q 259 581 259 606 l 259 499 q 364 605 304 568 q 493 642 424 642 m 335 892 q 378 885 359 892 q 425 867 397 879 q 465 850 448 855 q 498 844 481 844 q 541 856 520 844 q 584 890 562 867 q 604 899 592 899 q 635 882 621 899 q 650 851 650 867 q 640 827 650 838 q 571 764 608 785 q 498 743 534 743 q 455 750 474 743 q 408 768 435 756 q 368 785 385 780 q 334 791 352 791 q 292 779 313 791 q 249 745 271 768 q 229 736 241 736 q 197 753 212 736 q 183 784 183 768 q 193 808 183 797 q 262 871 225 850 q 335 892 299 892 z "},"":{"ha":833,"x_min":90,"x_max":743,"o":"m 416 642 q 584 600 509 642 q 701 483 659 557 q 743 313 743 408 q 701 144 743 219 q 584 27 659 69 q 416 -15 509 -15 q 249 27 323 -15 q 132 144 174 69 q 90 313 90 219 q 132 483 90 408 q 249 600 174 557 q 416 642 323 642 m 416 541 q 301 512 351 541 q 224 432 251 484 q 197 313 197 380 q 224 195 197 247 q 301 114 251 143 q 416 85 351 85 q 532 114 482 85 q 609 195 582 143 q 636 313 636 247 q 609 432 636 380 q 532 512 582 484 q 416 541 482 541 m 554 777 q 565 756 565 769 q 549 721 565 739 q 517 704 534 704 q 496 711 508 704 l 242 859 q 227 886 227 868 q 248 932 227 905 q 293 960 270 960 q 318 951 306 960 l 554 777 z "},"":{"ha":833,"x_min":90,"x_max":743,"o":"m 416 642 q 584 600 509 642 q 701 483 659 557 q 743 313 743 408 q 701 144 743 219 q 584 27 659 69 q 416 -15 509 -15 q 249 27 323 -15 q 132 144 174 69 q 90 313 90 219 q 132 483 90 408 q 249 600 174 557 q 416 642 323 642 m 416 541 q 301 512 351 541 q 224 432 251 484 q 197 313 197 380 q 224 195 197 247 q 301 114 251 143 q 416 85 351 85 q 532 114 482 85 q 609 195 582 143 q 636 313 636 247 q 609 432 636 380 q 532 512 582 484 q 416 541 482 541 m 515 951 q 540 960 527 960 q 585 932 563 960 q 606 886 606 905 q 591 859 606 868 l 337 711 q 315 704 325 704 q 284 721 299 704 q 268 756 268 739 q 279 777 268 769 l 515 951 z "},"":{"ha":833,"x_min":90,"x_max":743,"o":"m 416 642 q 584 600 509 642 q 701 483 659 557 q 743 313 743 408 q 701 144 743 219 q 584 27 659 69 q 416 -15 509 -15 q 249 27 323 -15 q 132 144 174 69 q 90 313 90 219 q 132 483 90 408 q 249 600 174 557 q 416 642 323 642 m 416 541 q 301 512 351 541 q 224 432 251 484 q 197 313 197 380 q 224 195 197 247 q 301 114 251 143 q 416 85 351 85 q 532 114 482 85 q 609 195 582 143 q 636 313 636 247 q 609 432 636 380 q 532 512 582 484 q 416 541 482 541 m 416 947 q 456 933 441 947 l 622 775 q 633 753 633 765 q 617 721 633 739 q 587 705 603 705 q 566 713 576 705 l 416 830 l 267 713 q 245 705 256 705 q 216 721 230 705 q 200 753 200 739 q 211 775 200 765 l 377 933 q 416 947 392 947 z "},"":{"ha":833,"x_min":90,"x_max":743,"o":"m 416 642 q 584 600 509 642 q 701 483 659 557 q 743 313 743 408 q 701 144 743 219 q 584 27 659 69 q 416 -15 509 -15 q 249 27 323 -15 q 132 144 174 69 q 90 313 90 219 q 132 483 90 408 q 249 600 174 557 q 416 642 323 642 m 416 541 q 301 512 351 541 q 224 432 251 484 q 197 313 197 380 q 224 195 197 247 q 301 114 251 143 q 416 85 351 85 q 532 114 482 85 q 609 195 582 143 q 636 313 636 247 q 609 432 636 380 q 532 512 582 484 q 416 541 482 541 m 335 892 q 378 885 359 892 q 425 867 397 879 q 465 850 448 855 q 498 844 481 844 q 541 856 520 844 q 584 890 562 867 q 604 899 592 899 q 635 882 621 899 q 650 851 650 867 q 640 827 650 838 q 571 764 608 785 q 498 743 534 743 q 455 750 474 743 q 408 768 435 756 q 368 785 385 780 q 334 791 352 791 q 292 779 313 791 q 249 745 271 768 q 229 736 241 736 q 197 753 212 736 q 183 784 183 768 q 193 808 183 797 q 262 871 225 850 q 335 892 299 892 z "},"":{"ha":833,"x_min":90,"x_max":743,"o":"m 416 642 q 584 600 509 642 q 701 483 659 557 q 743 313 743 408 q 701 144 743 219 q 584 27 659 69 q 416 -15 509 -15 q 249 27 323 -15 q 132 144 174 69 q 90 313 90 219 q 132 483 90 408 q 249 600 174 557 q 416 642 323 642 m 416 541 q 301 512 351 541 q 224 432 251 484 q 197 313 197 380 q 224 195 197 247 q 301 114 251 143 q 416 85 351 85 q 532 114 482 85 q 609 195 582 143 q 636 313 636 247 q 609 432 636 380 q 532 512 582 484 q 416 541 482 541 m 274 924 q 325 915 311 924 q 338 880 338 905 l 338 792 q 325 758 338 768 q 274 748 311 748 q 223 758 237 748 q 210 792 210 768 l 210 880 q 223 915 210 905 q 274 924 237 924 m 559 924 q 610 915 596 924 q 623 880 623 905 l 623 792 q 610 758 623 768 q 559 748 596 748 q 508 758 522 748 q 494 792 494 768 l 494 880 q 508 915 494 905 q 559 924 522 924 z "},"":{"ha":833,"x_min":115,"x_max":718,"o":"m 416 715 q 471 706 454 715 q 488 673 488 696 l 488 602 q 471 569 488 579 q 416 559 454 559 q 362 569 378 559 q 345 602 345 579 l 345 673 q 362 706 345 696 q 416 715 378 715 m 675 441 q 708 430 698 441 q 718 395 718 420 q 708 359 718 370 q 675 349 698 349 l 158 349 q 125 359 135 349 q 115 395 115 370 q 125 430 115 420 q 158 441 135 441 l 675 441 m 416 231 q 471 221 454 231 q 488 188 488 211 l 488 117 q 471 84 488 94 q 416 75 454 75 q 362 84 378 75 q 345 117 345 94 l 345 188 q 362 221 345 211 q 416 231 378 231 z "},"":{"ha":833,"x_min":57,"x_max":776,"o":"m 758 643 q 776 609 776 624 q 759 578 776 594 l 686 507 q 743 313 743 423 q 701 144 743 219 q 584 27 659 69 q 416 -15 509 -15 q 307 2 358 -15 q 213 52 255 20 l 139 -20 q 109 -35 122 -35 q 75 -16 94 -35 q 57 18 57 3 q 73 48 57 32 l 147 120 q 90 313 90 203 q 132 483 90 408 q 249 600 174 557 q 416 642 323 642 q 527 625 475 642 q 620 576 578 608 l 693 646 q 724 662 710 662 q 758 643 739 662 m 197 313 q 224 194 197 245 l 545 504 q 416 541 491 541 q 301 512 351 541 q 224 432 251 484 q 197 313 197 380 m 636 313 q 608 433 636 381 l 288 123 q 416 85 341 85 q 532 114 482 85 q 609 195 582 143 q 636 313 636 247 z "},"":{"ha":833,"x_min":49,"x_max":776,"o":"m 635 627 q 668 616 658 627 q 677 581 677 606 l 677 92 l 733 92 q 766 82 756 92 q 776 46 776 71 q 766 11 776 21 q 733 0 756 0 l 625 0 q 592 10 602 0 q 583 45 583 20 l 583 127 q 478 22 538 58 q 349 -15 418 -15 q 241 12 287 -15 q 172 89 196 39 q 147 206 147 139 l 147 534 l 92 534 q 59 545 68 534 q 49 581 49 555 q 59 616 49 606 q 92 627 68 627 l 206 627 q 239 616 229 627 q 249 581 249 606 l 249 216 q 277 121 249 156 q 359 85 304 85 q 466 119 416 85 q 546 210 516 152 q 576 340 576 269 l 576 534 l 479 534 q 447 545 456 534 q 437 581 437 555 q 447 616 437 606 q 479 627 456 627 l 635 627 m 547 777 q 558 756 558 769 q 542 721 558 739 q 511 704 527 704 q 489 711 501 704 l 235 859 q 220 886 220 868 q 241 932 220 905 q 286 960 263 960 q 311 951 299 960 l 547 777 z "},"":{"ha":833,"x_min":49,"x_max":776,"o":"m 635 627 q 668 616 658 627 q 677 581 677 606 l 677 92 l 733 92 q 766 82 756 92 q 776 46 776 71 q 766 11 776 21 q 733 0 756 0 l 625 0 q 592 10 602 0 q 583 45 583 20 l 583 127 q 478 22 538 58 q 349 -15 418 -15 q 241 12 287 -15 q 172 89 196 39 q 147 206 147 139 l 147 534 l 92 534 q 59 545 68 534 q 49 581 49 555 q 59 616 49 606 q 92 627 68 627 l 206 627 q 239 616 229 627 q 249 581 249 606 l 249 216 q 277 121 249 156 q 359 85 304 85 q 466 119 416 85 q 546 210 516 152 q 576 340 576 269 l 576 534 l 479 534 q 447 545 456 534 q 437 581 437 555 q 447 616 437 606 q 479 627 456 627 l 635 627 m 528 951 q 553 960 541 960 q 599 932 576 960 q 619 886 619 905 q 604 859 619 868 l 351 711 q 329 704 338 704 q 298 721 313 704 q 281 756 281 739 q 292 777 281 769 l 528 951 z "},"":{"ha":833,"x_min":49,"x_max":776,"o":"m 635 627 q 668 616 658 627 q 677 581 677 606 l 677 92 l 733 92 q 766 82 756 92 q 776 46 776 71 q 766 11 776 21 q 733 0 756 0 l 625 0 q 592 10 602 0 q 583 45 583 20 l 583 127 q 478 22 538 58 q 349 -15 418 -15 q 241 12 287 -15 q 172 89 196 39 q 147 206 147 139 l 147 534 l 92 534 q 59 545 68 534 q 49 581 49 555 q 59 616 49 606 q 92 627 68 627 l 206 627 q 239 616 229 627 q 249 581 249 606 l 249 216 q 277 121 249 156 q 359 85 304 85 q 466 119 416 85 q 546 210 516 152 q 576 340 576 269 l 576 534 l 479 534 q 447 545 456 534 q 437 581 437 555 q 447 616 437 606 q 479 627 456 627 l 635 627 m 410 947 q 449 933 434 947 l 615 775 q 626 753 626 765 q 610 721 626 739 q 581 705 596 705 q 559 713 570 705 l 410 830 l 260 713 q 239 705 250 705 q 209 721 223 705 q 193 753 193 739 q 204 775 193 765 l 370 933 q 410 947 385 947 z "},"":{"ha":833,"x_min":49,"x_max":776,"o":"m 635 627 q 668 616 658 627 q 677 581 677 606 l 677 92 l 733 92 q 766 82 756 92 q 776 46 776 71 q 766 11 776 21 q 733 0 756 0 l 625 0 q 592 10 602 0 q 583 45 583 20 l 583 127 q 478 22 538 58 q 349 -15 418 -15 q 241 12 287 -15 q 172 89 196 39 q 147 206 147 139 l 147 534 l 92 534 q 59 545 68 534 q 49 581 49 555 q 59 616 49 606 q 92 627 68 627 l 206 627 q 239 616 229 627 q 249 581 249 606 l 249 216 q 277 121 249 156 q 359 85 304 85 q 466 119 416 85 q 546 210 516 152 q 576 340 576 269 l 576 534 l 479 534 q 447 545 456 534 q 437 581 437 555 q 447 616 437 606 q 479 627 456 627 l 635 627 m 260 924 q 311 915 298 924 q 325 880 325 905 l 325 792 q 311 758 325 768 q 260 748 298 748 q 210 758 223 748 q 196 792 196 768 l 196 880 q 210 915 196 905 q 260 924 223 924 m 545 924 q 596 915 583 924 q 610 880 610 905 l 610 792 q 596 758 610 768 q 545 748 583 748 q 494 758 508 748 q 481 792 481 768 l 481 880 q 494 915 481 905 q 545 924 508 924 z "},"":{"ha":833,"x_min":34,"x_max":799,"o":"m 756 627 q 789 616 779 627 q 799 581 799 606 q 789 545 799 555 q 756 534 779 534 l 714 534 l 437 -34 q 351 -176 393 -124 q 256 -251 309 -227 q 128 -278 203 -275 q 92 -266 104 -279 q 79 -222 79 -254 q 115 -176 79 -178 q 218 -154 180 -172 q 289 -91 256 -136 q 368 47 321 -47 l 119 534 l 77 534 q 44 545 54 534 q 34 581 34 555 q 44 616 34 606 q 77 627 54 627 l 317 627 q 350 616 340 627 q 359 581 359 606 q 350 545 359 555 q 317 534 340 534 l 230 534 l 421 153 l 604 534 l 543 534 q 510 545 520 534 q 500 581 500 555 q 510 616 500 606 q 543 627 520 627 l 756 627 m 530 951 q 555 960 542 960 q 600 932 578 960 q 621 886 621 905 q 606 859 621 868 l 352 711 q 330 704 340 704 q 299 721 314 704 q 283 756 283 739 q 294 777 283 769 l 530 951 z "},"":{"ha":833,"x_min":25,"x_max":747,"o":"m 196 890 q 229 879 219 890 q 239 844 239 869 l 239 530 q 454 642 326 642 q 604 602 538 642 q 709 488 671 562 q 747 313 747 414 q 709 139 747 213 q 604 25 671 64 q 454 -15 538 -15 q 239 97 326 -15 l 239 -171 l 355 -171 q 388 -181 378 -171 q 398 -217 398 -192 q 388 -253 398 -242 q 355 -263 378 -263 l 68 -263 q 35 -253 45 -263 q 25 -217 25 -242 q 35 -181 25 -192 q 68 -171 45 -171 l 137 -171 l 137 798 l 81 798 q 48 808 58 798 q 39 844 39 819 q 48 879 39 869 q 81 890 58 890 l 196 890 m 447 541 q 339 514 387 541 q 266 435 292 487 q 239 313 239 384 q 266 191 239 243 q 339 113 292 140 q 447 85 387 85 q 551 114 507 85 q 617 195 594 143 q 640 313 640 246 q 617 432 640 380 q 551 512 594 484 q 447 541 507 541 z "},"":{"ha":833,"x_min":34,"x_max":799,"o":"m 756 627 q 789 616 779 627 q 799 581 799 606 q 789 545 799 555 q 756 534 779 534 l 714 534 l 437 -34 q 351 -176 393 -124 q 256 -251 309 -227 q 128 -278 203 -275 q 92 -266 104 -279 q 79 -222 79 -254 q 115 -176 79 -178 q 218 -154 180 -172 q 289 -91 256 -136 q 368 47 321 -47 l 119 534 l 77 534 q 44 545 54 534 q 34 581 34 555 q 44 616 34 606 q 77 627 54 627 l 317 627 q 350 616 340 627 q 359 581 359 606 q 350 545 359 555 q 317 534 340 534 l 230 534 l 421 153 l 604 534 l 543 534 q 510 545 520 534 q 500 581 500 555 q 510 616 500 606 q 543 627 520 627 l 756 627 m 274 924 q 325 915 311 924 q 338 880 338 905 l 338 792 q 325 758 338 768 q 274 748 311 748 q 223 758 237 748 q 210 792 210 768 l 210 880 q 223 915 210 905 q 274 924 237 924 m 559 924 q 610 915 596 924 q 623 880 623 905 l 623 792 q 610 758 623 768 q 559 748 596 748 q 508 758 522 748 q 494 792 494 768 l 494 880 q 508 915 494 905 q 559 924 522 924 z "},"":{"ha":833,"x_min":7,"x_max":826,"o":"m 559 1031 q 592 1020 583 1031 q 602 982 602 1008 q 592 944 602 956 q 559 933 583 933 l 205 933 q 173 944 182 933 q 163 982 163 956 q 173 1020 163 1008 q 205 1031 182 1031 l 559 1031 m 434 805 q 478 794 461 805 q 503 761 494 784 l 742 92 l 783 92 q 816 82 806 92 q 826 46 826 71 q 816 11 826 21 q 783 0 806 0 l 543 0 q 510 11 520 0 q 500 46 500 21 q 510 82 500 71 q 543 92 520 92 l 635 92 l 579 254 l 250 254 l 194 92 l 276 92 q 309 82 299 92 q 319 46 319 71 q 309 11 319 21 q 276 0 299 0 l 50 0 q 17 11 26 0 q 7 46 7 21 q 17 82 7 71 q 50 92 26 92 l 87 92 l 312 713 l 185 713 q 152 723 162 713 q 142 759 142 734 q 152 794 142 784 q 185 805 162 805 l 434 805 m 409 713 l 282 346 l 548 346 l 422 713 l 409 713 z "},"":{"ha":833,"x_min":92,"x_max":785,"o":"m 419 642 q 610 585 547 642 q 674 416 674 528 l 674 146 q 719 92 674 92 l 743 92 q 775 82 766 92 q 785 46 785 71 q 775 11 785 21 q 743 0 766 0 l 699 0 q 624 22 655 0 q 583 87 592 44 q 462 12 527 38 q 325 -15 397 -15 q 204 8 256 -15 q 121 77 151 32 q 92 183 92 121 q 168 341 92 290 q 366 393 245 393 q 572 358 474 393 l 572 416 q 535 512 572 481 q 416 543 498 543 q 311 529 366 543 q 206 490 256 515 q 185 484 195 484 q 148 516 163 484 q 140 543 140 532 q 165 580 140 567 q 288 626 222 610 q 419 642 353 642 m 367 297 q 244 270 289 297 q 199 185 199 243 q 233 108 199 136 q 329 81 267 81 q 572 193 464 81 l 572 267 q 473 289 526 281 q 367 297 420 297 m 593 848 q 626 837 616 848 q 636 799 636 825 q 626 761 636 772 q 593 750 616 750 l 239 750 q 207 761 216 750 q 197 799 197 772 q 207 837 197 825 q 239 848 216 848 l 593 848 z "},"":{"ha":833,"x_min":7,"x_max":826,"o":"m 434 805 q 478 794 461 805 q 503 761 494 784 l 742 92 l 783 92 q 816 82 806 92 q 826 46 826 71 q 816 11 826 21 q 783 0 806 0 l 543 0 q 510 11 520 0 q 500 46 500 21 q 510 82 500 71 q 543 92 520 92 l 635 92 l 579 254 l 250 254 l 194 92 l 276 92 q 309 82 299 92 q 319 46 319 71 q 309 11 319 21 q 276 0 299 0 l 50 0 q 17 11 26 0 q 7 46 7 21 q 17 82 7 71 q 50 92 26 92 l 87 92 l 312 713 l 185 713 q 152 723 162 713 q 142 759 142 734 q 152 794 142 784 q 185 805 162 805 l 434 805 m 409 713 l 282 346 l 548 346 l 422 713 l 409 713 m 589 1112 q 616 1100 608 1107 q 625 1079 625 1092 q 625 1070 625 1074 q 552 951 609 994 q 403 909 496 909 q 253 951 310 909 q 181 1070 197 994 q 180 1079 180 1074 q 189 1100 180 1092 q 217 1112 198 1107 q 236 1114 227 1114 q 265 1097 259 1114 q 315 1026 281 1049 q 403 1003 349 1003 q 492 1026 458 1003 q 541 1097 526 1049 q 570 1114 547 1114 q 589 1112 578 1114 z "},"":{"ha":833,"x_min":92,"x_max":785,"o":"m 419 642 q 610 585 547 642 q 674 416 674 528 l 674 146 q 719 92 674 92 l 743 92 q 775 82 766 92 q 785 46 785 71 q 775 11 785 21 q 743 0 766 0 l 699 0 q 624 22 655 0 q 583 87 592 44 q 462 12 527 38 q 325 -15 397 -15 q 204 8 256 -15 q 121 77 151 32 q 92 183 92 121 q 168 341 92 290 q 366 393 245 393 q 572 358 474 393 l 572 416 q 535 512 572 481 q 416 543 498 543 q 311 529 366 543 q 206 490 256 515 q 185 484 195 484 q 148 516 163 484 q 140 543 140 532 q 165 580 140 567 q 288 626 222 610 q 419 642 353 642 m 367 297 q 244 270 289 297 q 199 185 199 243 q 233 108 199 136 q 329 81 267 81 q 572 193 464 81 l 572 267 q 473 289 526 281 q 367 297 420 297 m 604 928 q 632 917 623 924 q 641 896 641 909 q 640 887 641 890 q 568 768 625 810 q 418 726 511 726 q 269 768 326 726 q 197 887 212 810 q 196 896 196 890 q 205 917 196 909 q 233 928 214 924 q 252 930 243 930 q 281 914 275 930 q 330 843 296 866 q 418 820 364 820 q 507 843 473 820 q 556 914 541 866 q 585 930 562 930 q 604 928 594 930 z "},"":{"ha":833,"x_min":7,"x_max":826,"o":"m 741 0 q 655 -98 681 -56 q 629 -176 629 -139 q 643 -213 629 -200 q 681 -226 657 -226 q 758 -214 716 -226 q 765 -213 763 -213 q 791 -250 785 -213 q 793 -267 793 -262 q 787 -290 793 -281 q 770 -302 781 -298 q 659 -320 719 -320 q 559 -285 595 -320 q 523 -191 523 -250 q 550 -94 523 -141 q 629 0 577 -47 l 543 0 q 510 11 520 0 q 500 46 500 21 q 510 82 500 71 q 543 92 520 92 l 635 92 l 579 254 l 250 254 l 194 92 l 276 92 q 309 82 299 92 q 319 46 319 71 q 309 11 319 21 q 276 0 299 0 l 50 0 q 17 11 26 0 q 7 46 7 21 q 17 82 7 71 q 50 92 26 92 l 87 92 l 312 713 l 185 713 q 152 723 162 713 q 142 759 142 734 q 152 794 142 784 q 185 805 162 805 l 434 805 q 478 794 461 805 q 503 761 494 784 l 742 92 l 783 92 q 816 82 806 92 q 826 46 826 71 q 816 11 826 21 q 783 0 806 0 l 741 0 m 282 346 l 548 346 l 422 713 l 409 713 l 282 346 z "},"":{"ha":833,"x_min":92,"x_max":785,"o":"m 744 -214 q 751 -213 749 -213 q 778 -250 772 -213 q 779 -267 779 -262 q 773 -290 779 -281 q 756 -302 768 -298 q 645 -320 705 -320 q 546 -285 582 -320 q 509 -191 509 -250 q 541 -86 509 -137 q 633 16 573 -36 q 583 87 593 39 q 462 12 527 38 q 325 -15 397 -15 q 204 8 256 -15 q 121 77 151 32 q 92 183 92 121 q 168 341 92 290 q 366 393 245 393 q 572 358 474 393 l 572 416 q 535 512 572 481 q 416 543 498 543 q 311 529 366 543 q 206 490 256 515 q 185 484 195 484 q 148 516 163 484 q 140 543 140 532 q 165 580 140 567 q 288 626 222 610 q 419 642 353 642 q 610 585 547 642 q 674 416 674 528 l 674 146 q 719 92 674 92 l 743 92 q 775 82 766 92 q 785 46 785 71 q 775 11 785 21 q 743 0 766 0 l 728 0 q 641 -98 667 -56 q 615 -176 615 -139 q 629 -213 615 -200 q 667 -226 644 -226 q 744 -214 703 -226 m 572 267 q 473 289 526 281 q 367 297 420 297 q 244 270 289 297 q 199 185 199 243 q 233 108 199 136 q 329 81 267 81 q 572 193 464 81 l 572 267 z "},"":{"ha":833,"x_min":80,"x_max":741,"o":"m 542 1134 q 567 1143 554 1143 q 612 1115 590 1143 q 633 1069 633 1088 q 618 1042 633 1051 l 364 894 q 342 887 352 887 q 311 904 326 887 q 295 939 295 922 q 306 960 295 952 l 542 1134 m 677 820 q 717 810 705 820 q 728 776 728 800 l 728 552 q 717 518 728 528 q 677 508 705 508 q 638 518 650 508 q 627 552 627 528 q 606 636 627 598 q 543 697 585 674 q 437 720 500 720 q 307 681 363 720 q 219 570 250 642 q 187 402 187 498 q 217 234 187 306 q 302 124 247 163 q 430 85 357 85 q 558 105 497 85 q 668 162 619 125 q 693 172 680 172 q 729 145 713 172 q 741 109 741 125 q 720 74 741 89 q 583 7 657 30 q 430 -15 509 -15 q 245 37 324 -15 q 123 183 166 89 q 80 402 80 277 q 124 621 80 526 q 248 768 168 715 q 430 820 328 820 q 543 798 494 820 q 627 736 593 777 l 627 776 q 638 810 627 800 q 677 820 650 820 z "},"":{"ha":833,"x_min":86,"x_max":714,"o":"m 661 642 q 700 631 688 642 q 711 597 711 621 l 711 401 q 700 367 711 377 q 661 357 688 357 q 621 367 633 357 q 610 401 610 377 q 588 474 610 442 q 523 524 566 506 q 420 541 480 541 q 303 512 355 541 q 222 431 252 483 q 193 313 193 378 q 221 196 193 248 q 298 115 248 144 q 413 85 348 85 q 534 105 475 85 q 641 161 593 124 q 667 172 655 172 q 704 144 687 172 q 714 111 714 127 q 692 72 714 87 q 564 8 638 31 q 413 -15 490 -15 q 242 28 316 -15 q 127 145 168 71 q 86 313 86 220 q 127 481 86 407 q 243 599 169 556 q 413 642 317 642 q 524 620 473 642 q 610 557 574 597 l 610 597 q 621 631 610 621 q 661 642 633 642 m 528 951 q 553 960 540 960 q 598 932 576 960 q 618 886 618 905 q 604 859 618 868 l 350 711 q 328 704 338 704 q 297 721 312 704 q 281 756 281 739 q 292 777 281 769 l 528 951 z "},"":{"ha":833,"x_min":80,"x_max":741,"o":"m 444 1130 q 483 1116 468 1130 l 649 958 q 660 936 660 948 q 644 904 660 922 q 614 888 630 888 q 593 896 604 888 l 444 1013 l 294 896 q 273 888 283 888 q 243 904 257 888 q 227 936 227 922 q 238 958 227 948 l 404 1116 q 444 1130 419 1130 m 677 820 q 717 810 705 820 q 728 776 728 800 l 728 552 q 717 518 728 528 q 677 508 705 508 q 638 518 650 508 q 627 552 627 528 q 606 636 627 598 q 543 697 585 674 q 437 720 500 720 q 307 681 363 720 q 219 570 250 642 q 187 402 187 498 q 217 234 187 306 q 302 124 247 163 q 430 85 357 85 q 558 105 497 85 q 668 162 619 125 q 693 172 680 172 q 729 145 713 172 q 741 109 741 125 q 720 74 741 89 q 583 7 657 30 q 430 -15 509 -15 q 245 37 324 -15 q 123 183 166 89 q 80 402 80 277 q 124 621 80 526 q 248 768 168 715 q 430 820 328 820 q 543 798 494 820 q 627 736 593 777 l 627 776 q 638 810 627 800 q 677 820 650 820 z "},"":{"ha":833,"x_min":86,"x_max":714,"o":"m 423 947 q 463 933 448 947 l 629 775 q 640 753 640 765 q 624 721 640 739 q 594 705 610 705 q 573 713 583 705 l 423 830 l 273 713 q 252 705 263 705 q 222 721 237 705 q 207 753 207 739 q 218 775 207 765 l 384 933 q 423 947 399 947 m 661 642 q 700 631 688 642 q 711 597 711 621 l 711 401 q 700 367 711 377 q 661 357 688 357 q 621 367 633 357 q 610 401 610 377 q 588 474 610 442 q 523 524 566 506 q 420 541 480 541 q 303 512 355 541 q 222 431 252 483 q 193 313 193 378 q 221 196 193 248 q 298 115 248 144 q 413 85 348 85 q 534 105 475 85 q 641 161 593 124 q 667 172 655 172 q 704 144 687 172 q 714 111 714 127 q 692 72 714 87 q 564 8 638 31 q 413 -15 490 -15 q 242 28 316 -15 q 127 145 168 71 q 86 313 86 220 q 127 481 86 407 q 243 599 169 556 q 413 642 317 642 q 524 620 473 642 q 610 557 574 597 l 610 597 q 621 631 610 621 q 661 642 633 642 z "},"":{"ha":833,"x_min":80,"x_max":741,"o":"m 430 1107 q 481 1098 467 1107 q 494 1063 494 1088 l 494 975 q 481 941 494 951 q 430 931 467 931 q 379 941 393 931 q 366 975 366 951 l 366 1063 q 379 1098 366 1088 q 430 1107 393 1107 m 677 820 q 717 810 705 820 q 728 776 728 800 l 728 552 q 717 518 728 528 q 677 508 705 508 q 638 518 650 508 q 627 552 627 528 q 606 636 627 598 q 543 697 585 674 q 437 720 500 720 q 307 681 363 720 q 219 570 250 642 q 187 402 187 498 q 217 234 187 306 q 302 124 247 163 q 430 85 357 85 q 558 105 497 85 q 668 162 619 125 q 693 172 680 172 q 729 145 713 172 q 741 109 741 125 q 720 74 741 89 q 583 7 657 30 q 430 -15 509 -15 q 245 37 324 -15 q 123 183 166 89 q 80 402 80 277 q 124 621 80 526 q 248 768 168 715 q 430 820 328 820 q 543 798 494 820 q 627 736 593 777 l 627 776 q 638 810 627 800 q 677 820 650 820 z "},"":{"ha":833,"x_min":86,"x_max":714,"o":"m 661 642 q 700 631 688 642 q 711 597 711 621 l 711 401 q 700 367 711 377 q 661 357 688 357 q 621 367 633 357 q 610 401 610 377 q 588 474 610 442 q 523 524 566 506 q 420 541 480 541 q 303 512 355 541 q 222 431 252 483 q 193 313 193 378 q 221 196 193 248 q 298 115 248 144 q 413 85 348 85 q 534 105 475 85 q 641 161 593 124 q 667 172 655 172 q 704 144 687 172 q 714 111 714 127 q 692 72 714 87 q 564 8 638 31 q 413 -15 490 -15 q 242 28 316 -15 q 127 145 168 71 q 86 313 86 220 q 127 481 86 407 q 243 599 169 556 q 413 642 317 642 q 524 620 473 642 q 610 557 574 597 l 610 597 q 621 631 610 621 q 661 642 633 642 m 423 924 q 474 915 460 924 q 488 880 488 905 l 488 792 q 474 758 488 768 q 423 748 460 748 q 372 758 386 748 q 359 792 359 768 l 359 880 q 372 915 359 905 q 423 924 386 924 z "},"":{"ha":833,"x_min":80,"x_max":741,"o":"m 677 820 q 717 810 705 820 q 728 776 728 800 l 728 552 q 717 518 728 528 q 677 508 705 508 q 638 518 650 508 q 627 552 627 528 q 606 636 627 598 q 543 697 585 674 q 437 720 500 720 q 307 681 363 720 q 219 570 250 642 q 187 402 187 498 q 217 234 187 306 q 302 124 247 163 q 430 85 357 85 q 558 105 497 85 q 668 162 619 125 q 693 172 680 172 q 729 145 713 172 q 741 109 741 125 q 720 74 741 89 q 583 7 657 30 q 430 -15 509 -15 q 245 37 324 -15 q 123 183 166 89 q 80 402 80 277 q 124 621 80 526 q 248 768 168 715 q 430 820 328 820 q 543 798 494 820 q 627 736 593 777 l 627 776 q 638 810 627 800 q 677 820 650 820 m 437 889 q 397 903 412 889 l 231 1061 q 220 1083 220 1071 q 236 1115 220 1097 q 266 1131 250 1131 q 287 1123 277 1131 l 437 1006 l 587 1123 q 608 1131 597 1131 q 637 1115 623 1131 q 653 1083 653 1097 q 642 1061 653 1071 l 476 903 q 437 889 461 889 z "},"":{"ha":833,"x_min":86,"x_max":714,"o":"m 661 642 q 700 631 688 642 q 711 597 711 621 l 711 401 q 700 367 711 377 q 661 357 688 357 q 621 367 633 357 q 610 401 610 377 q 588 474 610 442 q 523 524 566 506 q 420 541 480 541 q 303 512 355 541 q 222 431 252 483 q 193 313 193 378 q 221 196 193 248 q 298 115 248 144 q 413 85 348 85 q 534 105 475 85 q 641 161 593 124 q 667 172 655 172 q 704 144 687 172 q 714 111 714 127 q 692 72 714 87 q 564 8 638 31 q 413 -15 490 -15 q 242 28 316 -15 q 127 145 168 71 q 86 313 86 220 q 127 481 86 407 q 243 599 169 556 q 413 642 317 642 q 524 620 473 642 q 610 557 574 597 l 610 597 q 621 631 610 621 q 661 642 633 642 m 423 706 q 384 720 399 706 l 218 878 q 207 900 207 888 q 222 932 207 914 q 252 948 237 948 q 273 940 263 948 l 423 823 l 573 940 q 594 948 583 948 q 624 932 610 948 q 640 900 640 914 q 629 878 640 888 l 463 720 q 423 706 448 706 z "},"":{"ha":833,"x_min":54,"x_max":773,"o":"m 416 805 q 604 756 523 805 q 729 617 684 708 q 773 402 773 526 q 729 188 773 279 q 604 48 684 97 q 416 0 523 0 l 97 0 q 64 11 74 0 q 54 46 54 21 q 64 82 54 71 q 97 92 74 92 l 173 92 l 173 713 l 97 713 q 64 723 74 713 q 54 759 54 734 q 64 794 54 784 q 97 805 74 805 l 416 805 m 275 92 l 401 92 q 541 128 481 92 q 633 233 601 163 q 666 402 666 302 q 633 571 666 502 q 541 677 601 641 q 401 713 481 713 l 275 713 l 275 92 m 396 889 q 357 903 372 889 l 191 1061 q 180 1083 180 1071 q 195 1115 180 1097 q 225 1131 210 1131 q 246 1123 236 1131 l 396 1006 l 546 1123 q 567 1131 556 1131 q 597 1115 583 1131 q 612 1083 612 1097 q 602 1061 612 1071 l 435 903 q 396 889 420 889 z "},"":{"ha":833,"x_min":86,"x_max":901,"o":"m 585 890 q 618 879 608 890 q 628 844 628 869 l 628 92 l 684 92 q 716 82 707 92 q 726 46 726 71 q 716 11 726 21 q 684 0 707 0 l 576 0 q 543 11 553 0 q 533 46 533 21 l 533 97 q 345 -15 464 -15 q 212 25 271 -15 q 120 139 153 64 q 86 313 86 213 q 120 488 86 414 q 212 602 153 562 q 345 642 271 642 q 526 532 460 642 l 526 798 l 416 798 q 384 808 393 798 q 374 844 374 819 q 384 879 374 869 q 416 890 393 890 l 585 890 m 882 890 q 896 885 891 890 q 901 871 901 880 q 897 855 901 865 l 806 609 q 756 585 798 585 q 727 592 737 585 q 717 613 717 600 q 718 623 717 616 l 774 868 q 802 890 779 890 l 882 890 m 352 541 q 266 512 302 541 q 212 432 231 484 q 193 313 193 380 q 212 195 193 246 q 266 114 231 143 q 352 85 302 85 q 444 113 405 85 q 505 191 484 140 q 526 313 526 242 q 505 436 526 385 q 444 514 484 487 q 352 541 405 541 z "},"":{"ha":833,"x_min":54,"x_max":773,"o":"m 416 805 q 604 756 523 805 q 729 617 684 708 q 773 402 773 526 q 729 188 773 279 q 604 48 684 97 q 416 0 523 0 l 97 0 q 64 11 74 0 q 54 46 54 21 q 64 82 54 71 q 97 92 74 92 l 173 92 l 173 365 l 106 365 q 74 376 83 365 q 64 414 64 387 q 74 451 64 440 q 106 463 83 463 l 173 463 l 173 713 l 97 713 q 64 723 74 713 q 54 759 54 734 q 64 794 54 784 q 97 805 74 805 l 416 805 m 401 92 q 541 128 481 92 q 633 233 601 163 q 666 402 666 302 q 633 571 666 502 q 541 677 601 641 q 401 713 481 713 l 275 713 l 275 463 l 460 463 q 493 451 484 463 q 503 414 503 440 q 493 376 503 387 q 460 365 484 365 l 275 365 l 275 92 l 401 92 z "},"":{"ha":833,"x_min":101,"x_max":799,"o":"m 682 658 l 682 92 l 738 92 q 771 82 761 92 q 781 46 781 71 q 771 11 781 21 q 738 0 761 0 l 630 0 q 597 11 607 0 q 587 46 587 21 l 587 94 q 494 13 547 41 q 379 -15 441 -15 q 236 22 299 -15 q 137 129 173 59 q 101 293 101 199 q 137 457 101 387 q 236 564 173 527 q 379 601 299 601 q 581 501 498 601 l 581 658 l 375 658 q 342 668 352 658 q 332 704 332 679 q 342 740 332 729 q 375 750 352 750 l 581 750 l 581 798 l 471 798 q 438 808 448 798 q 428 844 428 819 q 438 879 428 869 q 471 890 448 890 l 640 890 q 672 879 663 890 q 682 844 682 869 l 682 750 l 756 750 q 789 740 779 750 q 799 704 799 729 q 789 668 799 679 q 756 658 779 658 l 682 658 m 386 85 q 486 110 442 85 q 555 182 530 135 q 581 293 581 229 q 555 404 581 357 q 486 476 530 451 q 386 500 442 500 q 289 474 330 500 q 227 400 248 448 q 205 293 205 353 q 227 185 205 233 q 289 112 248 138 q 386 85 330 85 z "},"":{"ha":833,"x_min":54,"x_max":746,"o":"m 608 1031 q 641 1020 631 1031 q 650 982 650 1008 q 641 944 650 956 q 608 933 631 933 l 254 933 q 221 944 231 933 q 211 982 211 956 q 221 1020 211 1008 q 254 1031 231 1031 l 608 1031 m 695 292 q 734 281 723 292 q 746 248 746 271 l 746 46 q 736 11 746 21 q 703 0 726 0 l 97 0 q 64 11 74 0 q 54 46 54 21 q 64 82 54 71 q 97 92 74 92 l 166 92 l 166 713 l 97 713 q 64 723 74 713 q 54 759 54 734 q 64 794 54 784 q 97 805 74 805 l 690 805 q 723 794 713 805 q 732 759 732 784 l 732 587 q 721 553 732 563 q 682 543 709 543 q 642 553 654 543 q 631 587 631 563 l 631 713 l 268 713 l 268 461 l 443 461 l 443 523 q 453 557 443 547 q 491 567 464 567 q 529 557 518 567 q 539 523 539 547 l 539 307 q 529 273 539 283 q 491 263 518 263 q 453 273 464 263 q 443 307 443 283 l 443 369 l 268 369 l 268 92 l 644 92 l 644 248 q 656 281 644 271 q 695 292 667 292 z "},"":{"ha":833,"x_min":99,"x_max":740,"o":"m 607 848 q 640 837 630 848 q 650 799 650 825 q 640 761 650 772 q 607 750 630 750 l 253 750 q 220 761 230 750 q 210 799 210 772 q 220 837 210 825 q 253 848 230 848 l 607 848 m 422 642 q 590 602 521 642 q 697 492 660 562 q 740 330 734 422 q 730 298 740 307 q 697 288 720 288 l 206 288 q 266 135 211 187 q 422 83 321 83 q 546 99 485 83 q 653 142 607 115 q 674 148 665 148 q 713 112 698 148 q 719 86 719 98 q 689 44 719 59 q 566 1 637 18 q 422 -15 494 -15 q 248 24 320 -15 q 137 138 175 64 q 99 313 99 212 q 140 485 99 410 q 255 601 182 559 q 422 642 328 642 m 422 543 q 284 501 339 543 q 213 383 230 458 l 627 383 q 562 502 613 461 q 422 543 511 543 z "},"":{"ha":833,"x_min":54,"x_max":746,"o":"m 416 1107 q 467 1098 454 1107 q 481 1063 481 1088 l 481 975 q 467 941 481 951 q 416 931 454 931 q 366 941 379 931 q 352 975 352 951 l 352 1063 q 366 1098 352 1088 q 416 1107 379 1107 m 695 292 q 734 281 723 292 q 746 248 746 271 l 746 46 q 736 11 746 21 q 703 0 726 0 l 97 0 q 64 11 74 0 q 54 46 54 21 q 64 82 54 71 q 97 92 74 92 l 166 92 l 166 713 l 97 713 q 64 723 74 713 q 54 759 54 734 q 64 794 54 784 q 97 805 74 805 l 690 805 q 723 794 713 805 q 732 759 732 784 l 732 587 q 721 553 732 563 q 682 543 709 543 q 642 553 654 543 q 631 587 631 563 l 631 713 l 268 713 l 268 461 l 443 461 l 443 523 q 453 557 443 547 q 491 567 464 567 q 529 557 518 567 q 539 523 539 547 l 539 307 q 529 273 539 283 q 491 263 518 263 q 453 273 464 263 q 443 307 443 283 l 443 369 l 268 369 l 268 92 l 644 92 l 644 248 q 656 281 644 271 q 695 292 667 292 z "},"":{"ha":833,"x_min":99,"x_max":740,"o":"m 430 924 q 481 915 467 924 q 494 880 494 905 l 494 792 q 481 758 494 768 q 430 748 467 748 q 379 758 393 748 q 366 792 366 768 l 366 880 q 379 915 366 905 q 430 924 393 924 m 422 642 q 590 602 521 642 q 697 492 660 562 q 740 330 734 422 q 730 298 740 307 q 697 288 720 288 l 206 288 q 266 135 211 187 q 422 83 321 83 q 546 99 485 83 q 653 142 607 115 q 674 148 665 148 q 713 112 698 148 q 719 86 719 98 q 689 44 719 59 q 566 1 637 18 q 422 -15 494 -15 q 248 24 320 -15 q 137 138 175 64 q 99 313 99 212 q 140 485 99 410 q 255 601 182 559 q 422 642 328 642 m 422 543 q 284 501 339 543 q 213 383 230 458 l 627 383 q 562 502 613 461 q 422 543 511 543 z "},"":{"ha":833,"x_min":54,"x_max":746,"o":"m 687 0 q 601 -98 627 -56 q 574 -176 574 -139 q 589 -213 574 -200 q 627 -226 603 -226 q 703 -214 662 -226 q 711 -213 709 -213 q 737 -250 731 -213 q 739 -267 739 -262 q 733 -290 739 -281 q 715 -302 727 -298 q 604 -320 665 -320 q 505 -285 541 -320 q 469 -191 469 -250 q 496 -94 469 -141 q 574 0 523 -47 l 97 0 q 64 11 74 0 q 54 46 54 21 q 64 82 54 71 q 97 92 74 92 l 166 92 l 166 713 l 97 713 q 64 723 74 713 q 54 759 54 734 q 64 794 54 784 q 97 805 74 805 l 690 805 q 723 794 713 805 q 732 759 732 784 l 732 587 q 721 553 732 563 q 682 543 709 543 q 642 553 654 543 q 631 587 631 563 l 631 713 l 268 713 l 268 461 l 443 461 l 443 523 q 453 557 443 547 q 491 567 464 567 q 529 557 518 567 q 539 523 539 547 l 539 307 q 529 273 539 283 q 491 263 518 263 q 453 273 464 263 q 443 307 443 283 l 443 369 l 268 369 l 268 92 l 644 92 l 644 248 q 656 281 644 271 q 695 292 667 292 q 734 281 723 292 q 746 248 746 271 l 746 46 q 736 11 746 21 q 703 0 726 0 l 687 0 z "},"":{"ha":833,"x_min":99,"x_max":740,"o":"m 422 642 q 590 602 521 642 q 697 492 660 562 q 740 330 734 422 q 730 298 740 307 q 697 288 720 288 l 206 288 q 266 135 211 187 q 422 83 321 83 q 546 99 485 83 q 653 142 607 115 q 674 148 665 148 q 713 112 698 148 q 719 86 719 98 q 689 44 719 59 q 629 -3 671 35 q 546 -100 571 -58 q 520 -177 520 -141 q 534 -215 520 -201 q 572 -228 549 -228 q 649 -221 610 -228 q 675 -230 665 -218 q 684 -269 684 -242 q 679 -290 684 -282 q 661 -302 673 -298 q 550 -320 610 -320 q 451 -285 487 -320 q 414 -191 414 -250 q 441 -97 414 -142 q 519 -6 468 -52 q 422 -15 468 -15 q 248 24 320 -15 q 137 138 175 64 q 99 313 99 212 q 140 485 99 410 q 255 601 182 559 q 422 642 328 642 m 422 543 q 284 501 339 543 q 213 383 230 458 l 627 383 q 562 502 613 461 q 422 543 511 543 z "},"":{"ha":833,"x_min":54,"x_max":746,"o":"m 695 292 q 734 281 723 292 q 746 248 746 271 l 746 46 q 736 11 746 21 q 703 0 726 0 l 97 0 q 64 11 74 0 q 54 46 54 21 q 64 82 54 71 q 97 92 74 92 l 166 92 l 166 713 l 97 713 q 64 723 74 713 q 54 759 54 734 q 64 794 54 784 q 97 805 74 805 l 690 805 q 723 794 713 805 q 732 759 732 784 l 732 587 q 721 553 732 563 q 682 543 709 543 q 642 553 654 543 q 631 587 631 563 l 631 713 l 268 713 l 268 461 l 443 461 l 443 523 q 453 557 443 547 q 491 567 464 567 q 529 557 518 567 q 539 523 539 547 l 539 307 q 529 273 539 283 q 491 263 518 263 q 453 273 464 263 q 443 307 443 283 l 443 369 l 268 369 l 268 92 l 644 92 l 644 248 q 656 281 644 271 q 695 292 667 292 m 416 889 q 377 903 392 889 l 211 1061 q 200 1083 200 1071 q 216 1115 200 1097 q 245 1131 230 1131 q 267 1123 256 1131 l 416 1006 l 566 1123 q 587 1131 576 1131 q 617 1115 603 1131 q 633 1083 633 1097 q 622 1061 633 1071 l 456 903 q 416 889 441 889 z "},"":{"ha":833,"x_min":99,"x_max":740,"o":"m 422 642 q 590 602 521 642 q 697 492 660 562 q 740 330 734 422 q 730 298 740 307 q 697 288 720 288 l 206 288 q 266 135 211 187 q 422 83 321 83 q 546 99 485 83 q 653 142 607 115 q 674 148 665 148 q 713 112 698 148 q 719 86 719 98 q 689 44 719 59 q 566 1 637 18 q 422 -15 494 -15 q 248 24 320 -15 q 137 138 175 64 q 99 313 99 212 q 140 485 99 410 q 255 601 182 559 q 422 642 328 642 m 422 543 q 284 501 339 543 q 213 383 230 458 l 627 383 q 562 502 613 461 q 422 543 511 543 m 427 706 q 388 720 403 706 l 222 878 q 211 900 211 888 q 227 932 211 914 q 256 948 241 948 q 277 940 267 948 l 427 823 l 577 940 q 598 948 587 948 q 628 932 614 948 q 644 900 644 914 q 633 878 644 888 l 467 720 q 427 706 452 706 z "},"":{"ha":833,"x_min":66,"x_max":792,"o":"m 437 1130 q 476 1116 461 1130 l 642 958 q 653 936 653 948 q 637 904 653 922 q 608 888 623 888 q 587 896 597 888 l 437 1013 l 287 896 q 266 888 277 888 q 236 904 250 888 q 220 936 220 922 q 231 958 220 948 l 397 1116 q 437 1130 412 1130 m 669 820 q 709 810 697 820 q 720 776 720 800 l 720 579 q 709 545 720 555 q 669 535 697 535 q 630 545 642 535 q 618 579 618 555 q 596 652 618 620 q 532 702 574 684 q 430 720 489 720 q 297 681 355 720 q 206 570 239 642 q 174 402 174 498 q 204 234 174 306 q 292 124 235 163 q 423 85 349 85 q 626 124 542 85 l 626 278 l 458 278 q 426 289 435 278 q 416 324 416 299 q 426 360 416 349 q 458 370 435 370 l 749 370 q 782 360 772 370 q 792 324 792 349 q 782 289 792 299 q 749 278 772 278 l 728 278 l 728 97 q 703 50 728 64 q 575 2 648 18 q 423 -15 503 -15 q 236 37 317 -15 q 111 183 155 89 q 66 402 66 278 q 112 621 66 526 q 239 768 158 715 q 423 820 320 820 q 536 800 487 820 q 618 743 585 780 l 618 776 q 630 810 618 800 q 669 820 642 820 z "},"":{"ha":833,"x_min":86,"x_max":794,"o":"m 379 642 q 502 612 446 642 q 601 526 558 582 l 601 581 q 611 616 601 606 q 644 627 621 627 l 751 627 q 784 616 774 627 q 794 581 794 606 q 784 545 794 555 q 751 534 774 534 l 696 534 l 696 -20 q 662 -159 696 -101 q 562 -248 627 -217 q 406 -278 497 -278 q 274 -267 340 -278 q 150 -235 208 -256 q 123 -199 123 -225 q 129 -172 123 -188 q 168 -134 141 -134 q 182 -137 175 -134 q 294 -167 235 -156 q 406 -178 352 -178 q 547 -133 499 -178 q 594 -12 594 -89 l 594 125 q 379 19 510 19 q 229 57 295 19 q 124 165 162 94 q 86 330 86 235 q 124 496 86 425 q 229 604 162 566 q 379 642 295 642 m 386 541 q 282 514 326 541 q 216 440 239 488 q 193 330 193 392 q 216 221 193 269 q 282 146 239 173 q 386 119 326 119 q 493 144 446 119 q 567 217 541 170 q 594 330 594 265 q 567 443 594 395 q 493 516 541 491 q 386 541 446 541 m 416 947 q 456 933 441 947 l 622 775 q 633 753 633 765 q 617 721 633 739 q 587 705 603 705 q 566 713 576 705 l 416 830 l 267 713 q 245 705 256 705 q 216 721 230 705 q 200 753 200 739 q 211 775 200 765 l 377 933 q 416 947 392 947 z "},"":{"ha":833,"x_min":66,"x_max":792,"o":"m 669 820 q 709 810 697 820 q 720 776 720 800 l 720 579 q 709 545 720 555 q 669 535 697 535 q 630 545 642 535 q 618 579 618 555 q 596 652 618 620 q 532 702 574 684 q 430 720 489 720 q 297 681 355 720 q 206 570 239 642 q 174 402 174 498 q 204 234 174 306 q 292 124 235 163 q 423 85 349 85 q 626 124 542 85 l 626 278 l 458 278 q 426 289 435 278 q 416 324 416 299 q 426 360 416 349 q 458 370 435 370 l 749 370 q 782 360 772 370 q 792 324 792 349 q 782 289 792 299 q 749 278 772 278 l 728 278 l 728 97 q 703 50 728 64 q 575 2 648 18 q 423 -15 503 -15 q 236 37 317 -15 q 111 183 155 89 q 66 402 66 278 q 112 621 66 526 q 239 768 158 715 q 423 820 320 820 q 536 800 487 820 q 618 743 585 780 l 618 776 q 630 810 618 800 q 669 820 642 820 m 609 1112 q 637 1100 628 1107 q 646 1079 646 1092 q 645 1070 646 1074 q 573 951 629 994 q 423 909 516 909 q 274 951 330 909 q 201 1070 217 994 q 201 1079 201 1074 q 210 1100 201 1092 q 237 1112 218 1107 q 256 1114 248 1114 q 286 1097 279 1114 q 335 1026 301 1049 q 423 1003 369 1003 q 512 1026 478 1003 q 561 1097 546 1049 q 590 1114 567 1114 q 609 1112 599 1114 z "},"":{"ha":833,"x_min":86,"x_max":794,"o":"m 379 642 q 502 612 446 642 q 601 526 558 582 l 601 581 q 611 616 601 606 q 644 627 621 627 l 751 627 q 784 616 774 627 q 794 581 794 606 q 784 545 794 555 q 751 534 774 534 l 696 534 l 696 -20 q 662 -159 696 -101 q 562 -248 627 -217 q 406 -278 497 -278 q 274 -267 340 -278 q 150 -235 208 -256 q 123 -199 123 -225 q 129 -172 123 -188 q 168 -134 141 -134 q 182 -137 175 -134 q 294 -167 235 -156 q 406 -178 352 -178 q 547 -133 499 -178 q 594 -12 594 -89 l 594 125 q 379 19 510 19 q 229 57 295 19 q 124 165 162 94 q 86 330 86 235 q 124 496 86 425 q 229 604 162 566 q 379 642 295 642 m 386 541 q 282 514 326 541 q 216 440 239 488 q 193 330 193 392 q 216 221 193 269 q 282 146 239 173 q 386 119 326 119 q 493 144 446 119 q 567 217 541 170 q 594 330 594 265 q 567 443 594 395 q 493 516 541 491 q 386 541 446 541 m 602 928 q 630 917 621 924 q 639 896 639 909 q 638 887 639 890 q 566 768 623 810 q 416 726 509 726 q 267 768 323 726 q 195 887 210 810 q 194 896 194 890 q 203 917 194 909 q 231 928 212 924 q 250 930 241 930 q 279 914 273 930 q 328 843 294 866 q 416 820 362 820 q 505 843 471 820 q 554 914 539 866 q 583 930 560 930 q 602 928 592 930 z "},"":{"ha":833,"x_min":66,"x_max":792,"o":"m 423 1107 q 474 1098 460 1107 q 488 1063 488 1088 l 488 975 q 474 941 488 951 q 423 931 460 931 q 372 941 386 931 q 359 975 359 951 l 359 1063 q 372 1098 359 1088 q 423 1107 386 1107 m 669 820 q 709 810 697 820 q 720 776 720 800 l 720 579 q 709 545 720 555 q 669 535 697 535 q 630 545 642 535 q 618 579 618 555 q 596 652 618 620 q 532 702 574 684 q 430 720 489 720 q 297 681 355 720 q 206 570 239 642 q 174 402 174 498 q 204 234 174 306 q 292 124 235 163 q 423 85 349 85 q 626 124 542 85 l 626 278 l 458 278 q 426 289 435 278 q 416 324 416 299 q 426 360 416 349 q 458 370 435 370 l 749 370 q 782 360 772 370 q 792 324 792 349 q 782 289 792 299 q 749 278 772 278 l 728 278 l 728 97 q 703 50 728 64 q 575 2 648 18 q 423 -15 503 -15 q 236 37 317 -15 q 111 183 155 89 q 66 402 66 278 q 112 621 66 526 q 239 768 158 715 q 423 820 320 820 q 536 800 487 820 q 618 743 585 780 l 618 776 q 630 810 618 800 q 669 820 642 820 z "},"":{"ha":833,"x_min":86,"x_max":794,"o":"m 379 642 q 502 612 446 642 q 601 526 558 582 l 601 581 q 611 616 601 606 q 644 627 621 627 l 751 627 q 784 616 774 627 q 794 581 794 606 q 784 545 794 555 q 751 534 774 534 l 696 534 l 696 -20 q 662 -159 696 -101 q 562 -248 627 -217 q 406 -278 497 -278 q 274 -267 340 -278 q 150 -235 208 -256 q 123 -199 123 -225 q 129 -172 123 -188 q 168 -134 141 -134 q 182 -137 175 -134 q 294 -167 235 -156 q 406 -178 352 -178 q 547 -133 499 -178 q 594 -12 594 -89 l 594 125 q 379 19 510 19 q 229 57 295 19 q 124 165 162 94 q 86 330 86 235 q 124 496 86 425 q 229 604 162 566 q 379 642 295 642 m 386 541 q 282 514 326 541 q 216 440 239 488 q 193 330 193 392 q 216 221 193 269 q 282 146 239 173 q 386 119 326 119 q 493 144 446 119 q 567 217 541 170 q 594 330 594 265 q 567 443 594 395 q 493 516 541 491 q 386 541 446 541 m 416 924 q 467 915 454 924 q 481 880 481 905 l 481 792 q 467 758 481 768 q 416 748 454 748 q 366 758 379 748 q 352 792 352 768 l 352 880 q 366 915 352 905 q 416 924 379 924 z "},"":{"ha":833,"x_min":66,"x_max":792,"o":"m 669 820 q 709 810 697 820 q 720 776 720 800 l 720 579 q 709 545 720 555 q 669 535 697 535 q 630 545 642 535 q 618 579 618 555 q 596 652 618 620 q 532 702 574 684 q 430 720 489 720 q 297 681 355 720 q 206 570 239 642 q 174 402 174 498 q 204 234 174 306 q 292 124 235 163 q 423 85 349 85 q 626 124 542 85 l 626 278 l 458 278 q 426 289 435 278 q 416 324 416 299 q 426 360 416 349 q 458 370 435 370 l 749 370 q 782 360 772 370 q 792 324 792 349 q 782 289 792 299 q 749 278 772 278 l 728 278 l 728 97 q 703 50 728 64 q 575 2 648 18 q 423 -15 503 -15 q 236 37 317 -15 q 111 183 155 89 q 66 402 66 278 q 112 621 66 526 q 239 768 158 715 q 423 820 320 820 q 536 800 487 820 q 618 743 585 780 l 618 776 q 630 810 618 800 q 669 820 642 820 m 372 -357 q 336 -349 348 -357 q 325 -326 325 -340 q 326 -315 325 -323 l 369 -121 q 397 -99 374 -99 l 476 -99 q 495 -117 495 -99 q 491 -134 495 -125 l 412 -331 q 372 -357 401 -357 z "},"":{"ha":833,"x_min":86,"x_max":794,"o":"m 473 979 q 509 971 497 979 q 520 949 520 963 q 519 938 520 946 l 476 743 q 448 722 471 722 l 369 722 q 350 739 350 722 q 354 756 350 747 l 433 954 q 473 979 444 979 m 379 642 q 502 612 446 642 q 601 526 558 582 l 601 581 q 611 616 601 606 q 644 627 621 627 l 751 627 q 784 616 774 627 q 794 581 794 606 q 784 545 794 555 q 751 534 774 534 l 696 534 l 696 -20 q 662 -159 696 -101 q 562 -248 627 -217 q 406 -278 497 -278 q 274 -267 340 -278 q 150 -235 208 -256 q 123 -199 123 -225 q 129 -172 123 -188 q 168 -134 141 -134 q 182 -137 175 -134 q 294 -167 235 -156 q 406 -178 352 -178 q 547 -133 499 -178 q 594 -12 594 -89 l 594 125 q 379 19 510 19 q 229 57 295 19 q 124 165 162 94 q 86 330 86 235 q 124 496 86 425 q 229 604 162 566 q 379 642 295 642 m 386 541 q 282 514 326 541 q 216 440 239 488 q 193 330 193 392 q 216 221 193 269 q 282 146 239 173 q 386 119 326 119 q 493 144 446 119 q 567 217 541 170 q 594 330 594 265 q 567 443 594 395 q 493 516 541 491 q 386 541 446 541 z "},"":{"ha":833,"x_min":54,"x_max":779,"o":"m 736 805 q 769 794 759 805 q 779 759 779 784 q 769 723 779 734 q 736 713 759 713 l 687 713 l 687 92 l 736 92 q 769 82 759 92 q 779 46 779 71 q 769 11 779 21 q 736 0 759 0 l 523 0 q 490 11 500 0 q 480 46 480 21 q 490 82 480 71 q 523 92 500 92 l 585 92 l 585 369 l 248 369 l 248 92 l 310 92 q 343 82 333 92 q 353 46 353 71 q 343 11 353 21 q 310 0 333 0 l 97 0 q 64 11 74 0 q 54 46 54 21 q 64 82 54 71 q 97 92 74 92 l 146 92 l 146 713 l 97 713 q 64 723 74 713 q 54 759 54 734 q 64 794 54 784 q 97 805 74 805 l 310 805 q 343 794 333 805 q 353 759 353 784 q 343 723 353 734 q 310 713 333 713 l 248 713 l 248 461 l 585 461 l 585 713 l 523 713 q 490 723 500 713 q 480 759 480 734 q 490 794 480 784 q 523 805 500 805 l 736 805 m 416 1130 q 456 1116 441 1130 l 622 958 q 633 936 633 948 q 617 904 633 922 q 587 888 603 888 q 566 896 576 888 l 416 1013 l 267 896 q 245 888 256 888 q 216 904 230 888 q 200 936 200 922 q 211 958 200 948 l 377 1116 q 416 1130 392 1130 z "},"":{"ha":833,"x_min":52,"x_max":786,"o":"m 410 1198 q 449 1184 434 1198 l 615 1026 q 626 1004 626 1016 q 610 972 626 989 q 581 956 596 956 q 559 964 570 956 l 410 1081 l 260 964 q 239 956 250 956 q 209 972 223 956 q 193 1004 193 989 q 204 1026 193 1016 l 370 1184 q 410 1198 385 1198 m 216 890 q 249 879 239 890 q 259 844 259 869 l 259 506 q 361 607 303 572 q 486 642 419 642 q 593 615 548 642 q 663 538 639 588 q 688 420 688 488 l 688 92 l 743 92 q 776 82 766 92 q 786 46 786 71 q 776 11 786 21 q 743 0 766 0 l 524 0 q 491 11 500 0 q 481 46 481 21 q 491 82 481 71 q 524 92 500 92 l 586 92 l 586 410 q 558 506 586 471 q 476 541 530 541 q 369 508 418 541 q 289 416 319 475 q 259 286 259 358 l 259 92 l 321 92 q 354 82 345 92 q 364 46 364 71 q 354 11 364 21 q 321 0 345 0 l 102 0 q 69 11 79 0 q 59 46 59 21 q 69 82 59 71 q 102 92 79 92 l 157 92 l 157 798 l 95 798 q 62 808 72 798 q 52 844 52 819 q 62 879 52 869 q 95 890 72 890 l 216 890 z "},"":{"ha":833,"x_min":20,"x_max":812,"o":"m 736 805 q 769 794 759 805 q 779 759 779 784 q 769 723 779 734 q 736 713 759 713 l 687 713 l 687 627 l 770 627 q 803 616 793 627 q 812 581 812 606 q 803 545 812 555 q 770 534 793 534 l 687 534 l 687 92 l 736 92 q 769 82 759 92 q 779 46 779 71 q 769 11 779 21 q 736 0 759 0 l 523 0 q 490 11 500 0 q 480 46 480 21 q 490 82 480 71 q 523 92 500 92 l 585 92 l 585 369 l 248 369 l 248 92 l 310 92 q 343 82 333 92 q 353 46 353 71 q 343 11 353 21 q 310 0 333 0 l 97 0 q 64 11 74 0 q 54 46 54 21 q 64 82 54 71 q 97 92 74 92 l 146 92 l 146 534 l 63 534 q 30 545 40 534 q 20 581 20 555 q 30 616 20 606 q 63 627 40 627 l 146 627 l 146 713 l 97 713 q 64 723 74 713 q 54 759 54 734 q 64 794 54 784 q 97 805 74 805 l 310 805 q 343 794 333 805 q 353 759 353 784 q 343 723 353 734 q 310 713 333 713 l 248 713 l 248 627 l 585 627 l 585 713 l 523 713 q 490 723 500 713 q 480 759 480 734 q 490 794 480 784 q 523 805 500 805 l 736 805 m 248 534 l 248 461 l 585 461 l 585 534 l 248 534 z "},"":{"ha":833,"x_min":14,"x_max":786,"o":"m 743 92 q 776 82 766 92 q 786 46 786 71 q 776 11 786 21 q 743 0 766 0 l 524 0 q 491 11 500 0 q 481 46 481 21 q 491 82 481 71 q 524 92 500 92 l 586 92 l 586 370 q 558 465 586 430 q 476 500 530 500 q 369 467 418 500 q 289 376 319 434 q 259 245 259 317 l 259 92 l 321 92 q 354 82 345 92 q 364 46 364 71 q 354 11 364 21 q 321 0 345 0 l 102 0 q 69 11 79 0 q 59 46 59 21 q 69 82 59 71 q 102 92 79 92 l 157 92 l 157 658 l 56 658 q 23 668 33 658 q 14 704 14 679 q 23 740 14 729 q 56 750 33 750 l 157 750 l 157 798 l 95 798 q 62 808 72 798 q 52 844 52 819 q 62 879 52 869 q 95 890 72 890 l 216 890 q 249 879 239 890 q 259 844 259 869 l 259 750 l 424 750 q 457 740 447 750 q 467 704 467 729 q 457 668 467 679 q 424 658 447 658 l 259 658 l 259 465 q 361 566 303 531 q 486 601 419 601 q 593 574 548 601 q 663 497 639 547 q 688 380 688 447 l 688 92 l 743 92 z "},"":{"ha":833,"x_min":136,"x_max":697,"o":"m 641 805 q 674 794 664 805 q 684 759 684 784 q 674 723 684 734 q 641 713 664 713 l 467 713 l 467 92 l 654 92 q 687 82 677 92 q 697 46 697 71 q 687 11 697 21 q 654 0 677 0 l 178 0 q 145 11 155 0 q 136 46 136 21 q 145 82 136 71 q 178 92 155 92 l 366 92 l 366 713 l 192 713 q 159 723 169 713 q 149 759 149 734 q 159 794 149 784 q 192 805 169 805 l 641 805 m 593 1031 q 626 1020 616 1031 q 636 982 636 1008 q 626 944 636 956 q 593 933 616 933 l 239 933 q 207 944 216 933 q 197 982 197 956 q 207 1020 197 1008 q 239 1031 216 1031 l 593 1031 z "},"":{"ha":833,"x_min":127,"x_max":744,"o":"m 441 627 q 474 616 464 627 q 484 581 484 606 l 484 92 l 701 92 q 734 82 724 92 q 744 46 744 71 q 734 11 744 21 q 701 0 724 0 l 170 0 q 137 11 146 0 q 127 46 127 21 q 137 82 127 71 q 170 92 146 92 l 382 92 l 382 534 l 210 534 q 177 545 187 534 q 168 581 168 555 q 177 616 168 606 q 210 627 187 627 l 441 627 m 587 848 q 620 837 610 848 q 629 799 629 825 q 620 761 629 772 q 587 750 610 750 l 233 750 q 200 761 210 750 q 190 799 190 772 q 200 837 190 825 q 233 848 210 848 l 587 848 z "},"":{"ha":833,"x_min":136,"x_max":697,"o":"m 654 92 q 687 82 677 92 q 697 46 697 71 q 687 11 697 21 q 654 0 677 0 l 470 0 q 384 -98 410 -56 q 357 -176 357 -139 q 372 -213 357 -200 q 410 -226 386 -226 q 486 -214 445 -226 q 494 -213 492 -213 q 520 -250 514 -213 q 522 -267 522 -262 q 516 -290 522 -281 q 498 -302 510 -298 q 387 -320 448 -320 q 288 -285 324 -320 q 252 -191 252 -250 q 279 -94 252 -141 q 357 0 306 -47 l 178 0 q 145 11 155 0 q 136 46 136 21 q 145 82 136 71 q 178 92 155 92 l 366 92 l 366 713 l 192 713 q 159 723 169 713 q 149 759 149 734 q 159 794 149 784 q 192 805 169 805 l 641 805 q 674 794 664 805 q 684 759 684 784 q 674 723 684 734 q 641 713 664 713 l 467 713 l 467 92 l 654 92 z "},"":{"ha":833,"x_min":127,"x_max":744,"o":"m 419 748 q 368 758 382 748 q 355 792 355 768 l 355 880 q 368 915 355 905 q 419 924 382 924 q 470 915 456 924 q 484 880 484 905 l 484 792 q 470 758 484 768 q 419 748 456 748 m 701 92 q 734 82 724 92 q 744 46 744 71 q 734 11 744 21 q 701 0 724 0 l 484 0 q 397 -98 423 -56 q 371 -176 371 -139 q 385 -213 371 -200 q 423 -226 399 -226 q 500 -214 458 -226 q 507 -213 505 -213 q 534 -250 528 -213 q 535 -267 535 -262 q 529 -290 535 -281 q 512 -302 524 -298 q 401 -320 461 -320 q 301 -285 338 -320 q 265 -191 265 -250 q 292 -94 265 -141 q 371 0 319 -47 l 170 0 q 137 11 146 0 q 127 46 127 21 q 137 82 127 71 q 170 92 146 92 l 382 92 l 382 534 l 210 534 q 177 545 187 534 q 168 581 168 555 q 177 616 168 606 q 210 627 187 627 l 441 627 q 474 616 464 627 q 484 581 484 606 l 484 92 l 701 92 z "},"":{"ha":833,"x_min":136,"x_max":697,"o":"m 641 805 q 674 794 664 805 q 684 759 684 784 q 674 723 684 734 q 641 713 664 713 l 467 713 l 467 92 l 654 92 q 687 82 677 92 q 697 46 697 71 q 687 11 697 21 q 654 0 677 0 l 178 0 q 145 11 155 0 q 136 46 136 21 q 145 82 136 71 q 178 92 155 92 l 366 92 l 366 713 l 192 713 q 159 723 169 713 q 149 759 149 734 q 159 794 149 784 q 192 805 169 805 l 641 805 m 416 1107 q 467 1098 454 1107 q 481 1063 481 1088 l 481 975 q 467 941 481 951 q 416 931 454 931 q 366 941 379 931 q 352 975 352 951 l 352 1063 q 366 1098 352 1088 q 416 1107 379 1107 z "},"":{"ha":833,"x_min":14,"x_max":819,"o":"m 281 805 q 314 794 304 805 q 324 759 324 784 q 314 723 324 734 q 281 713 304 713 l 223 713 l 223 92 l 288 92 q 321 82 311 92 q 331 46 331 71 q 321 11 331 21 q 288 0 311 0 l 56 0 q 23 11 33 0 q 14 46 14 21 q 23 82 14 71 q 56 92 33 92 l 121 92 l 121 713 l 63 713 q 30 723 40 713 q 20 759 20 734 q 30 794 20 784 q 63 805 40 805 l 281 805 m 777 805 q 809 794 800 805 q 819 759 819 784 q 809 723 819 734 q 777 713 800 713 l 728 713 l 728 158 q 684 30 728 75 q 545 -15 639 -15 q 459 4 500 -15 q 387 54 418 22 q 376 88 376 64 l 376 281 q 388 315 376 305 q 427 326 399 326 q 467 315 455 326 q 478 281 478 305 l 478 109 q 546 85 504 85 q 607 107 588 85 q 627 178 627 130 l 627 713 l 531 713 q 498 723 508 713 q 488 759 488 734 q 498 794 488 784 q 531 805 508 805 l 777 805 z "},"":{"ha":833,"x_min":39,"x_max":728,"o":"m 229 924 q 280 915 267 924 q 294 880 294 905 l 294 792 q 280 758 294 768 q 229 748 267 748 q 178 758 192 748 q 165 792 165 768 l 165 880 q 178 915 165 905 q 229 924 192 924 m 663 924 q 714 915 701 924 q 728 880 728 905 l 728 792 q 714 758 728 768 q 663 748 701 748 q 612 758 626 748 q 599 792 599 768 l 599 880 q 612 915 599 905 q 663 924 626 924 m 251 627 q 284 616 274 627 q 294 581 294 606 l 294 92 l 410 92 q 443 82 433 92 q 452 46 452 71 q 443 11 452 21 q 410 0 433 0 l 81 0 q 48 11 58 0 q 39 46 39 21 q 48 82 39 71 q 81 92 58 92 l 192 92 l 192 534 l 109 534 q 76 545 85 534 q 66 581 66 555 q 76 616 66 606 q 109 627 85 627 l 251 627 m 685 627 q 718 616 708 627 q 728 581 728 606 l 728 -39 q 674 -218 728 -158 q 506 -278 621 -278 q 405 -265 456 -278 q 310 -231 353 -252 q 283 -193 283 -219 q 288 -168 283 -181 q 327 -132 302 -132 q 345 -136 336 -132 q 506 -179 433 -179 q 599 -143 572 -179 q 626 -30 626 -107 l 626 534 l 475 534 q 442 545 452 534 q 432 581 432 555 q 442 616 432 606 q 475 627 452 627 l 685 627 z "},"":{"ha":833,"x_min":78,"x_max":785,"o":"m 525 1130 q 564 1116 549 1130 l 730 958 q 741 936 741 948 q 726 904 741 922 q 696 888 711 888 q 675 896 685 888 l 525 1013 l 375 896 q 354 888 365 888 q 324 904 338 888 q 309 936 309 922 q 319 958 309 948 l 486 1116 q 525 1130 500 1130 m 743 805 q 775 794 766 805 q 785 759 785 784 q 775 723 785 734 q 743 713 766 713 l 606 713 l 606 226 q 537 46 606 107 q 335 -15 468 -15 q 195 13 258 -15 q 89 87 132 40 q 78 122 78 100 l 78 315 q 90 349 78 339 q 129 359 101 359 q 168 349 157 359 q 180 315 180 339 l 180 136 q 336 85 237 85 q 465 125 425 85 q 505 246 505 164 l 505 713 l 273 713 q 240 723 250 713 q 231 759 231 734 q 240 794 231 784 q 273 805 250 805 l 743 805 z "},"":{"ha":833,"x_min":129,"x_max":707,"o":"m 491 947 q 530 933 515 947 l 696 775 q 707 753 707 765 q 692 721 707 739 q 662 705 677 705 q 641 713 651 705 l 491 830 l 341 713 q 320 705 331 705 q 290 721 304 705 q 275 753 275 739 q 286 775 275 765 l 452 933 q 491 947 467 947 m 570 627 q 603 616 593 627 q 612 581 612 606 l 612 -39 q 559 -218 612 -158 q 391 -278 506 -278 q 269 -257 334 -278 q 151 -202 204 -235 q 129 -167 129 -189 q 138 -136 129 -154 q 177 -105 154 -105 q 198 -112 189 -105 q 295 -161 245 -142 q 391 -179 345 -179 q 484 -143 457 -179 q 511 -30 511 -107 l 511 534 l 224 534 q 191 545 201 534 q 181 581 181 555 q 191 616 181 606 q 224 627 201 627 l 570 627 z "},"":{"ha":833,"x_min":54,"x_max":806,"o":"m 743 805 q 775 794 766 805 q 785 759 785 784 q 775 723 785 734 q 743 713 766 713 l 701 713 l 417 438 q 433 439 422 439 q 575 371 522 439 q 612 310 596 344 q 647 225 628 276 q 661 190 650 218 q 683 141 672 161 q 744 92 709 92 l 763 92 q 796 82 786 92 q 806 46 806 71 q 796 11 806 21 q 763 0 786 0 l 707 0 q 591 94 639 0 q 551 187 574 128 q 522 257 535 229 q 494 308 509 286 q 453 343 477 331 q 397 355 428 355 q 342 345 368 355 q 295 315 315 335 l 275 296 l 275 92 l 385 92 q 417 82 408 92 q 427 46 427 71 q 417 11 427 21 q 385 0 408 0 l 97 0 q 64 11 74 0 q 54 46 54 21 q 64 82 54 71 q 97 92 74 92 l 173 92 l 173 713 l 97 713 q 64 723 74 713 q 54 759 54 734 q 64 794 54 784 q 97 805 74 805 l 337 805 q 370 794 360 805 q 380 759 380 784 q 370 723 380 734 q 337 713 360 713 l 275 713 l 275 422 l 572 713 l 523 713 q 490 723 500 713 q 480 759 480 734 q 490 794 480 784 q 523 805 500 805 l 743 805 m 372 -357 q 336 -349 348 -357 q 325 -326 325 -340 q 326 -315 325 -323 l 369 -121 q 397 -99 374 -99 l 476 -99 q 495 -117 495 -99 q 491 -134 495 -125 l 412 -331 q 372 -357 401 -357 z "},"":{"ha":833,"x_min":45,"x_max":786,"o":"m 743 92 q 776 82 766 92 q 786 46 786 71 q 776 11 786 21 q 743 0 766 0 l 524 0 q 491 11 500 0 q 481 46 481 21 q 491 82 481 71 q 524 92 500 92 l 572 92 l 402 294 l 279 186 l 279 92 l 328 92 q 361 82 351 92 q 371 46 371 71 q 361 11 371 21 q 328 0 351 0 l 102 0 q 69 11 79 0 q 59 46 59 21 q 69 82 59 71 q 102 92 79 92 l 177 92 l 177 798 l 88 798 q 55 808 65 798 q 45 844 45 819 q 55 879 45 869 q 88 890 65 890 l 236 890 q 269 879 259 890 q 279 844 279 869 l 279 307 l 537 534 l 489 534 q 456 545 466 534 q 446 581 446 555 q 456 616 446 606 q 489 627 466 627 l 715 627 q 748 616 739 627 q 758 581 758 606 q 748 545 758 555 q 715 534 739 534 l 675 534 l 476 359 l 704 92 l 743 92 m 351 -357 q 316 -349 328 -357 q 304 -326 304 -340 q 306 -315 304 -323 l 349 -121 q 377 -99 354 -99 l 456 -99 q 475 -117 475 -99 q 471 -134 475 -125 l 391 -331 q 351 -357 381 -357 z "},"":{"ha":833,"x_min":54,"x_max":746,"o":"m 393 1134 q 418 1143 405 1143 q 463 1115 441 1143 q 484 1069 484 1088 q 469 1042 484 1051 l 215 894 q 193 887 203 887 q 162 904 177 887 q 146 939 146 922 q 157 960 146 952 l 393 1134 m 473 805 q 506 794 496 805 q 515 759 515 784 q 506 723 515 734 q 473 713 496 713 l 309 713 l 309 92 l 644 92 l 644 315 q 656 349 644 339 q 695 359 667 359 q 734 349 723 359 q 746 315 746 339 l 746 46 q 736 11 746 21 q 703 0 726 0 l 97 0 q 64 11 74 0 q 54 46 54 21 q 64 82 54 71 q 97 92 74 92 l 207 92 l 207 713 l 97 713 q 64 723 74 713 q 54 759 54 734 q 64 794 54 784 q 97 805 74 805 l 473 805 z "},"":{"ha":833,"x_min":120,"x_max":737,"o":"m 508 1202 q 533 1211 520 1211 q 578 1183 556 1211 q 599 1137 599 1156 q 584 1110 599 1119 l 330 962 q 309 955 318 955 q 277 972 292 955 q 261 1007 261 990 q 272 1028 261 1020 l 508 1202 m 434 890 q 467 879 457 890 q 477 844 477 869 l 477 92 l 694 92 q 727 82 718 92 q 737 46 737 71 q 727 11 737 21 q 694 0 718 0 l 163 0 q 130 11 140 0 q 120 46 120 21 q 130 82 120 71 q 163 92 140 92 l 375 92 l 375 798 l 190 798 q 157 808 167 798 q 147 844 147 819 q 157 879 147 869 q 190 890 167 890 l 434 890 z "},"":{"ha":833,"x_min":54,"x_max":746,"o":"m 473 805 q 506 794 496 805 q 515 759 515 784 q 506 723 515 734 q 473 713 496 713 l 309 713 l 309 92 l 644 92 l 644 315 q 656 349 644 339 q 695 359 667 359 q 734 349 723 359 q 746 315 746 339 l 746 46 q 736 11 746 21 q 703 0 726 0 l 97 0 q 64 11 74 0 q 54 46 54 21 q 64 82 54 71 q 97 92 74 92 l 207 92 l 207 713 l 97 713 q 64 723 74 713 q 54 759 54 734 q 64 794 54 784 q 97 805 74 805 l 473 805 m 365 -357 q 330 -349 341 -357 q 318 -326 318 -340 q 319 -315 318 -323 l 362 -121 q 391 -99 368 -99 l 469 -99 q 488 -117 488 -99 q 484 -134 488 -125 l 405 -331 q 365 -357 395 -357 z "},"":{"ha":833,"x_min":120,"x_max":737,"o":"m 434 890 q 467 879 457 890 q 477 844 477 869 l 477 92 l 694 92 q 727 82 718 92 q 737 46 737 71 q 727 11 737 21 q 694 0 718 0 l 163 0 q 130 11 140 0 q 120 46 120 21 q 130 82 120 71 q 163 92 140 92 l 375 92 l 375 798 l 190 798 q 157 808 167 798 q 147 844 147 819 q 157 879 147 869 q 190 890 167 890 l 434 890 m 365 -357 q 330 -349 341 -357 q 318 -326 318 -340 q 319 -315 318 -323 l 362 -121 q 391 -99 368 -99 l 469 -99 q 488 -117 488 -99 q 484 -134 488 -125 l 405 -331 q 365 -357 395 -357 z "},"":{"ha":833,"x_min":54,"x_max":772,"o":"m 473 805 q 506 794 496 805 q 515 759 515 784 q 506 723 515 734 q 473 713 496 713 l 309 713 l 309 92 l 644 92 l 644 315 q 656 349 644 339 q 695 359 667 359 q 734 349 723 359 q 746 315 746 339 l 746 46 q 736 11 746 21 q 703 0 726 0 l 97 0 q 64 11 74 0 q 54 46 54 21 q 64 82 54 71 q 97 92 74 92 l 207 92 l 207 713 l 97 713 q 64 723 74 713 q 54 759 54 734 q 64 794 54 784 q 97 805 74 805 l 473 805 m 753 805 q 767 800 762 805 q 772 787 772 795 q 768 770 772 781 l 677 524 q 627 500 669 500 q 598 507 608 500 q 588 528 588 515 q 589 538 588 531 l 645 783 q 673 805 650 805 l 753 805 z "},"":{"ha":833,"x_min":100,"x_max":765,"o":"m 414 890 q 447 879 437 890 q 456 844 456 869 l 456 92 l 674 92 q 707 82 697 92 q 717 46 717 71 q 707 11 717 21 q 674 0 697 0 l 142 0 q 110 11 119 0 q 100 46 100 21 q 110 82 100 71 q 142 92 119 92 l 355 92 l 355 798 l 170 798 q 137 808 146 798 q 127 844 127 819 q 137 879 127 869 q 170 890 146 890 l 414 890 m 747 890 q 760 885 755 890 q 765 871 765 880 q 762 855 765 865 l 671 609 q 621 585 662 585 q 591 592 602 585 q 581 613 581 600 q 583 623 581 616 l 638 868 q 667 890 644 890 l 747 890 z "},"":{"ha":833,"x_min":41,"x_max":746,"o":"m 473 805 q 506 794 496 805 q 515 759 515 784 q 506 723 515 734 q 473 713 496 713 l 309 713 l 309 485 l 448 580 q 475 591 465 591 q 510 566 493 591 q 522 535 522 547 q 500 504 522 518 l 309 373 l 309 92 l 644 92 l 644 315 q 656 349 644 339 q 695 359 667 359 q 734 349 723 359 q 746 315 746 339 l 746 46 q 736 11 746 21 q 703 0 726 0 l 97 0 q 64 11 74 0 q 54 46 54 21 q 64 82 54 71 q 97 92 74 92 l 207 92 l 207 304 l 115 241 q 87 231 98 231 q 53 256 70 231 q 41 286 41 274 q 62 317 41 303 l 207 416 l 207 713 l 97 713 q 64 723 74 713 q 54 759 54 734 q 64 794 54 784 q 97 805 74 805 l 473 805 z "},"":{"ha":833,"x_min":120,"x_max":737,"o":"m 434 890 q 467 879 457 890 q 477 844 477 869 l 477 558 l 590 635 q 617 646 606 646 q 652 621 635 646 q 664 591 664 603 q 642 559 664 574 l 477 447 l 477 92 l 694 92 q 727 82 718 92 q 737 46 737 71 q 727 11 737 21 q 694 0 718 0 l 163 0 q 130 11 140 0 q 120 46 120 21 q 130 82 120 71 q 163 92 140 92 l 375 92 l 375 378 l 256 297 q 229 286 240 286 q 195 311 212 286 q 182 342 182 330 q 204 373 182 359 l 375 489 l 375 798 l 190 798 q 157 808 167 798 q 147 844 147 819 q 157 879 147 869 q 190 890 167 890 l 434 890 z "},"":{"ha":833,"x_min":47,"x_max":785,"o":"m 528 1134 q 553 1143 541 1143 q 599 1115 576 1143 q 619 1069 619 1088 q 604 1042 619 1051 l 351 894 q 329 887 338 887 q 298 904 313 887 q 281 939 281 922 q 292 960 281 952 l 528 1134 m 743 805 q 775 794 766 805 q 785 759 785 784 q 775 723 785 734 q 743 713 766 713 l 704 713 l 704 25 q 691 -4 704 7 q 653 -15 679 -15 q 596 22 617 -15 l 244 651 l 241 651 l 241 92 l 337 92 q 370 82 360 92 q 380 46 380 71 q 370 11 380 21 q 337 0 360 0 l 97 0 q 64 11 74 0 q 54 46 54 21 q 64 82 54 71 q 97 92 74 92 l 142 92 l 142 713 l 90 713 q 57 723 67 713 q 47 759 47 734 q 57 794 47 784 q 90 805 67 805 l 242 805 q 266 800 257 805 q 281 786 275 795 l 602 211 l 605 211 l 605 713 l 523 713 q 490 723 500 713 q 480 759 480 734 q 490 794 480 784 q 523 805 500 805 l 743 805 z "},"":{"ha":833,"x_min":52,"x_max":793,"o":"m 493 642 q 600 615 555 642 q 670 538 646 588 q 694 420 694 488 l 694 92 l 750 92 q 783 82 773 92 q 793 46 793 71 q 783 11 793 21 q 750 0 773 0 l 530 0 q 497 11 507 0 q 488 46 488 21 q 497 82 488 71 q 530 92 507 92 l 593 92 l 593 410 q 565 506 593 471 q 483 541 537 541 q 375 508 425 541 q 296 416 326 475 q 266 286 266 358 l 266 92 l 328 92 q 361 82 351 92 q 371 46 371 71 q 361 11 371 21 q 328 0 351 0 l 109 0 q 76 11 85 0 q 66 46 66 21 q 76 82 66 71 q 109 92 85 92 l 164 92 l 164 534 l 95 534 q 62 545 72 534 q 52 581 52 555 q 62 616 52 606 q 95 627 72 627 l 216 627 q 249 616 239 627 q 259 581 259 606 l 259 499 q 364 605 304 568 q 493 642 424 642 m 528 951 q 553 960 541 960 q 599 932 576 960 q 619 886 619 905 q 604 859 619 868 l 351 711 q 329 704 338 704 q 298 721 313 704 q 281 756 281 739 q 292 777 281 769 l 528 951 z "},"":{"ha":833,"x_min":47,"x_max":785,"o":"m 743 805 q 775 794 766 805 q 785 759 785 784 q 775 723 785 734 q 743 713 766 713 l 704 713 l 704 25 q 691 -4 704 7 q 653 -15 679 -15 q 596 22 617 -15 l 244 651 l 241 651 l 241 92 l 337 92 q 370 82 360 92 q 380 46 380 71 q 370 11 380 21 q 337 0 360 0 l 97 0 q 64 11 74 0 q 54 46 54 21 q 64 82 54 71 q 97 92 74 92 l 142 92 l 142 713 l 90 713 q 57 723 67 713 q 47 759 47 734 q 57 794 47 784 q 90 805 67 805 l 242 805 q 266 800 257 805 q 281 786 275 795 l 602 211 l 605 211 l 605 713 l 523 713 q 490 723 500 713 q 480 759 480 734 q 490 794 480 784 q 523 805 500 805 l 743 805 m 365 -357 q 330 -349 341 -357 q 318 -326 318 -340 q 319 -315 318 -323 l 362 -121 q 391 -99 368 -99 l 469 -99 q 488 -117 488 -99 q 484 -134 488 -125 l 405 -331 q 365 -357 395 -357 z "},"":{"ha":833,"x_min":52,"x_max":793,"o":"m 493 642 q 600 615 555 642 q 670 538 646 588 q 694 420 694 488 l 694 92 l 750 92 q 783 82 773 92 q 793 46 793 71 q 783 11 793 21 q 750 0 773 0 l 530 0 q 497 11 507 0 q 488 46 488 21 q 497 82 488 71 q 530 92 507 92 l 593 92 l 593 410 q 565 506 593 471 q 483 541 537 541 q 375 508 425 541 q 296 416 326 475 q 266 286 266 358 l 266 92 l 328 92 q 361 82 351 92 q 371 46 371 71 q 361 11 371 21 q 328 0 351 0 l 109 0 q 76 11 85 0 q 66 46 66 21 q 76 82 66 71 q 109 92 85 92 l 164 92 l 164 534 l 95 534 q 62 545 72 534 q 52 581 52 555 q 62 616 52 606 q 95 627 72 627 l 216 627 q 249 616 239 627 q 259 581 259 606 l 259 499 q 364 605 304 568 q 493 642 424 642 m 365 -357 q 330 -349 341 -357 q 318 -326 318 -340 q 319 -315 318 -323 l 362 -121 q 391 -99 368 -99 l 469 -99 q 488 -117 488 -99 q 484 -134 488 -125 l 405 -331 q 365 -357 395 -357 z "},"":{"ha":833,"x_min":47,"x_max":785,"o":"m 743 805 q 775 794 766 805 q 785 759 785 784 q 775 723 785 734 q 743 713 766 713 l 704 713 l 704 25 q 691 -4 704 7 q 653 -15 679 -15 q 596 22 617 -15 l 244 651 l 241 651 l 241 92 l 337 92 q 370 82 360 92 q 380 46 380 71 q 370 11 380 21 q 337 0 360 0 l 97 0 q 64 11 74 0 q 54 46 54 21 q 64 82 54 71 q 97 92 74 92 l 142 92 l 142 713 l 90 713 q 57 723 67 713 q 47 759 47 734 q 57 794 47 784 q 90 805 67 805 l 242 805 q 266 800 257 805 q 281 786 275 795 l 602 211 l 605 211 l 605 713 l 523 713 q 490 723 500 713 q 480 759 480 734 q 490 794 480 784 q 523 805 500 805 l 743 805 m 416 889 q 377 903 392 889 l 211 1061 q 200 1083 200 1071 q 216 1115 200 1097 q 245 1131 230 1131 q 267 1123 256 1131 l 416 1006 l 566 1123 q 587 1131 576 1131 q 617 1115 603 1131 q 633 1083 633 1097 q 622 1061 633 1071 l 456 903 q 416 889 441 889 z "},"":{"ha":833,"x_min":52,"x_max":793,"o":"m 493 642 q 600 615 555 642 q 670 538 646 588 q 694 420 694 488 l 694 92 l 750 92 q 783 82 773 92 q 793 46 793 71 q 783 11 793 21 q 750 0 773 0 l 530 0 q 497 11 507 0 q 488 46 488 21 q 497 82 488 71 q 530 92 507 92 l 593 92 l 593 410 q 565 506 593 471 q 483 541 537 541 q 375 508 425 541 q 296 416 326 475 q 266 286 266 358 l 266 92 l 328 92 q 361 82 351 92 q 371 46 371 71 q 361 11 371 21 q 328 0 351 0 l 109 0 q 76 11 85 0 q 66 46 66 21 q 76 82 66 71 q 109 92 85 92 l 164 92 l 164 534 l 95 534 q 62 545 72 534 q 52 581 52 555 q 62 616 52 606 q 95 627 72 627 l 216 627 q 249 616 239 627 q 259 581 259 606 l 259 499 q 364 605 304 568 q 493 642 424 642 m 416 706 q 377 720 392 706 l 211 878 q 200 900 200 888 q 216 932 200 914 q 245 948 230 948 q 267 940 256 948 l 416 823 l 566 940 q 587 948 576 948 q 617 932 603 948 q 633 900 633 914 q 622 878 633 888 l 456 720 q 416 706 441 706 z "},"":{"ha":833,"x_min":60,"x_max":773,"o":"m 416 820 q 603 768 522 820 q 729 621 684 715 q 773 402 773 526 q 729 183 773 278 q 603 37 684 89 q 416 -15 522 -15 q 230 37 311 -15 q 104 183 149 89 q 60 402 60 278 q 104 621 60 526 q 230 768 149 715 q 416 820 311 820 m 416 720 q 285 681 342 720 q 198 570 229 642 q 167 402 167 498 q 198 234 167 306 q 285 124 229 163 q 416 85 342 85 q 548 124 491 85 q 635 234 604 163 q 666 402 666 306 q 635 570 666 498 q 548 681 604 642 q 416 720 491 720 m 593 1031 q 626 1020 616 1031 q 636 982 636 1008 q 626 944 636 956 q 593 933 616 933 l 239 933 q 207 944 216 933 q 197 982 197 956 q 207 1020 197 1008 q 239 1031 216 1031 l 593 1031 z "},"":{"ha":833,"x_min":90,"x_max":743,"o":"m 593 848 q 626 837 616 848 q 636 799 636 825 q 626 761 636 772 q 593 750 616 750 l 239 750 q 207 761 216 750 q 197 799 197 772 q 207 837 197 825 q 239 848 216 848 l 593 848 m 416 642 q 584 600 509 642 q 701 483 659 557 q 743 313 743 408 q 701 144 743 219 q 584 27 659 69 q 416 -15 509 -15 q 249 27 323 -15 q 132 144 174 69 q 90 313 90 219 q 132 483 90 408 q 249 600 174 557 q 416 642 323 642 m 416 541 q 301 512 351 541 q 224 432 251 484 q 197 313 197 380 q 224 195 197 247 q 301 114 251 143 q 416 85 351 85 q 532 114 482 85 q 609 195 582 143 q 636 313 636 247 q 609 432 636 380 q 532 512 582 484 q 416 541 482 541 z "},"":{"ha":833,"x_min":60,"x_max":773,"o":"m 416 820 q 603 768 522 820 q 729 621 684 715 q 773 402 773 526 q 729 183 773 278 q 603 37 684 89 q 416 -15 522 -15 q 230 37 311 -15 q 104 183 149 89 q 60 402 60 278 q 104 621 60 526 q 230 768 149 715 q 416 820 311 820 m 416 720 q 285 681 342 720 q 198 570 229 642 q 167 402 167 498 q 198 234 167 306 q 285 124 229 163 q 416 85 342 85 q 548 124 491 85 q 635 234 604 163 q 666 402 666 306 q 635 570 666 498 q 548 681 604 642 q 416 720 491 720 m 460 1118 q 490 1080 490 1099 q 477 1055 490 1067 l 294 897 q 269 888 283 888 q 235 899 254 888 q 215 927 215 912 q 222 943 215 936 l 382 1114 q 420 1131 398 1131 q 460 1118 439 1131 m 718 1118 q 748 1080 748 1099 q 735 1055 748 1067 l 552 897 q 527 888 541 888 q 493 899 512 888 q 473 927 473 912 q 479 943 473 936 l 640 1114 q 677 1131 656 1131 q 718 1118 696 1131 z "},"":{"ha":833,"x_min":90,"x_max":748,"o":"m 460 935 q 490 897 490 916 q 477 872 490 884 l 294 714 q 269 705 283 705 q 235 716 254 705 q 215 744 215 729 q 222 760 215 753 l 382 931 q 420 948 398 948 q 460 935 439 948 m 718 935 q 748 897 748 916 q 735 872 748 884 l 552 714 q 527 705 541 705 q 493 716 512 705 q 473 744 473 729 q 479 760 473 753 l 640 931 q 677 948 656 948 q 718 935 696 948 m 416 642 q 584 600 509 642 q 701 483 659 557 q 743 313 743 408 q 701 144 743 219 q 584 27 659 69 q 416 -15 509 -15 q 249 27 323 -15 q 132 144 174 69 q 90 313 90 219 q 132 483 90 408 q 249 600 174 557 q 416 642 323 642 m 416 541 q 301 512 351 541 q 224 432 251 484 q 197 313 197 380 q 224 195 197 247 q 301 114 251 143 q 416 85 351 85 q 532 114 482 85 q 609 195 582 143 q 636 313 636 247 q 609 432 636 380 q 532 512 582 484 q 416 541 482 541 z "},"":{"ha":833,"x_min":42,"x_max":772,"o":"m 721 805 q 754 794 744 805 q 764 759 764 784 l 764 587 q 752 553 764 563 q 713 543 741 543 q 673 553 685 543 q 662 587 662 563 l 662 713 l 486 713 l 486 465 l 616 465 q 649 454 639 465 q 659 418 659 444 q 649 383 659 393 q 616 372 639 372 l 486 372 l 486 92 l 670 92 l 670 248 q 682 281 670 271 q 721 292 693 292 q 760 281 749 292 q 772 248 772 271 l 772 46 q 762 11 772 21 q 729 0 752 0 l 389 0 q 206 48 285 0 q 85 188 127 97 q 42 402 42 278 q 85 617 42 526 q 206 756 127 708 q 389 805 285 805 l 721 805 m 384 712 q 260 673 313 709 q 178 568 207 637 q 149 402 149 499 q 178 236 149 305 q 260 131 207 168 q 384 92 313 95 l 384 712 z "},"":{"ha":833,"x_min":47,"x_max":781,"o":"m 578 642 q 729 563 682 642 q 781 340 777 484 q 771 308 781 317 q 738 298 761 298 l 467 298 q 578 83 471 83 q 638 96 611 83 q 694 136 665 109 q 720 148 705 148 q 758 127 741 148 q 772 93 772 110 q 754 57 772 74 q 672 3 717 22 q 578 -15 627 -15 q 484 8 526 -15 q 416 79 443 32 q 259 -15 365 -15 q 101 70 155 -15 q 47 313 47 155 q 101 556 47 471 q 259 642 155 642 q 416 547 365 642 q 484 618 443 594 q 578 642 526 642 m 580 543 q 505 508 532 543 q 471 393 479 473 l 674 393 q 647 505 669 467 q 580 543 625 543 m 259 541 q 180 487 205 541 q 155 313 155 432 q 180 140 155 195 q 259 85 205 85 q 338 140 313 85 q 363 313 363 195 q 338 487 363 432 q 259 541 313 541 z "},"":{"ha":833,"x_min":54,"x_max":806,"o":"m 515 1134 q 540 1143 527 1143 q 585 1115 563 1143 q 606 1069 606 1088 q 591 1042 606 1051 l 337 894 q 315 887 325 887 q 284 904 299 887 q 268 939 268 922 q 279 960 268 952 l 515 1134 m 440 805 q 586 777 525 805 q 678 696 646 748 q 709 576 709 645 q 659 446 709 499 q 522 372 609 392 q 585 324 559 357 q 621 269 606 296 q 654 201 635 241 q 683 141 673 160 q 744 92 709 92 l 763 92 q 796 82 786 92 q 806 46 806 71 q 796 11 806 21 q 763 0 786 0 l 714 0 q 645 21 673 0 q 591 94 617 43 q 554 173 576 124 q 521 242 534 218 q 491 292 509 267 q 442 335 471 320 q 374 349 414 349 l 281 349 l 281 92 l 370 92 q 402 82 393 92 q 412 46 412 71 q 402 11 412 21 q 370 0 393 0 l 97 0 q 64 11 74 0 q 54 46 54 21 q 64 82 54 71 q 97 92 74 92 l 180 92 l 180 713 l 97 713 q 64 723 74 713 q 54 759 54 734 q 64 794 54 784 q 97 805 74 805 l 440 805 m 281 441 l 419 441 q 602 576 602 441 q 556 677 602 642 q 426 713 510 713 l 281 713 l 281 441 z "},"":{"ha":833,"x_min":100,"x_max":750,"o":"m 564 951 q 589 960 576 960 q 634 932 612 960 q 654 886 654 905 q 640 859 654 868 l 386 711 q 364 704 374 704 q 333 721 348 704 q 317 756 317 739 q 328 777 317 769 l 564 951 m 624 642 q 723 614 677 642 q 750 572 750 598 q 744 544 750 560 q 705 505 730 505 q 686 511 694 505 q 614 529 652 529 q 492 487 553 529 q 390 374 430 444 q 351 224 351 303 l 351 92 l 579 92 q 612 82 602 92 q 622 46 622 71 q 612 11 622 21 q 579 0 602 0 l 142 0 q 110 11 119 0 q 100 46 100 21 q 110 82 100 71 q 142 92 119 92 l 249 92 l 249 534 l 163 534 q 130 545 140 534 q 120 581 120 555 q 130 616 120 606 q 163 627 140 627 l 301 627 q 334 616 324 627 q 344 581 344 606 l 344 444 q 422 548 376 503 q 521 617 469 593 q 624 642 573 642 z "},"":{"ha":833,"x_min":54,"x_max":806,"o":"m 440 805 q 586 777 525 805 q 678 696 646 748 q 709 576 709 645 q 659 446 709 499 q 522 372 609 392 q 585 324 559 357 q 621 269 606 296 q 654 201 635 241 q 683 141 673 160 q 744 92 709 92 l 763 92 q 796 82 786 92 q 806 46 806 71 q 796 11 806 21 q 763 0 786 0 l 714 0 q 645 21 673 0 q 591 94 617 43 q 554 173 576 124 q 521 242 534 218 q 491 292 509 267 q 442 335 471 320 q 374 349 414 349 l 281 349 l 281 92 l 370 92 q 402 82 393 92 q 412 46 412 71 q 402 11 412 21 q 370 0 393 0 l 97 0 q 64 11 74 0 q 54 46 54 21 q 64 82 54 71 q 97 92 74 92 l 180 92 l 180 713 l 97 713 q 64 723 74 713 q 54 759 54 734 q 64 794 54 784 q 97 805 74 805 l 440 805 m 281 441 l 419 441 q 602 576 602 441 q 556 677 602 642 q 426 713 510 713 l 281 713 l 281 441 m 385 -357 q 350 -349 361 -357 q 338 -326 338 -340 q 340 -315 338 -323 l 382 -121 q 411 -99 388 -99 l 490 -99 q 509 -117 509 -99 q 505 -134 509 -125 l 425 -331 q 385 -357 415 -357 z "},"":{"ha":833,"x_min":100,"x_max":750,"o":"m 624 642 q 723 614 677 642 q 750 572 750 598 q 744 544 750 560 q 705 505 730 505 q 686 511 694 505 q 614 529 652 529 q 492 487 553 529 q 390 374 430 444 q 351 224 351 303 l 351 92 l 579 92 q 612 82 602 92 q 622 46 622 71 q 612 11 622 21 q 579 0 602 0 l 142 0 q 110 11 119 0 q 100 46 100 21 q 110 82 100 71 q 142 92 119 92 l 249 92 l 249 534 l 163 534 q 130 545 140 534 q 120 581 120 555 q 130 616 120 606 q 163 627 140 627 l 301 627 q 334 616 324 627 q 344 581 344 606 l 344 444 q 422 548 376 503 q 521 617 469 593 q 624 642 573 642 m 283 -357 q 248 -349 260 -357 q 237 -326 237 -340 q 238 -315 237 -323 l 281 -121 q 309 -99 286 -99 l 388 -99 q 407 -117 407 -99 q 403 -134 407 -125 l 323 -331 q 283 -357 313 -357 z "},"":{"ha":833,"x_min":54,"x_max":806,"o":"m 440 805 q 586 777 525 805 q 678 696 646 748 q 709 576 709 645 q 659 446 709 499 q 522 372 609 392 q 585 324 559 357 q 621 269 606 296 q 654 201 635 241 q 683 141 673 160 q 744 92 709 92 l 763 92 q 796 82 786 92 q 806 46 806 71 q 796 11 806 21 q 763 0 786 0 l 714 0 q 645 21 673 0 q 591 94 617 43 q 554 173 576 124 q 521 242 534 218 q 491 292 509 267 q 442 335 471 320 q 374 349 414 349 l 281 349 l 281 92 l 370 92 q 402 82 393 92 q 412 46 412 71 q 402 11 412 21 q 370 0 393 0 l 97 0 q 64 11 74 0 q 54 46 54 21 q 64 82 54 71 q 97 92 74 92 l 180 92 l 180 713 l 97 713 q 64 723 74 713 q 54 759 54 734 q 64 794 54 784 q 97 805 74 805 l 440 805 m 281 441 l 419 441 q 602 576 602 441 q 556 677 602 642 q 426 713 510 713 l 281 713 l 281 441 m 403 889 q 363 903 378 889 l 197 1061 q 186 1083 186 1071 q 202 1115 186 1097 q 232 1131 216 1131 q 253 1123 243 1131 l 403 1006 l 553 1123 q 574 1131 563 1131 q 604 1115 589 1131 q 619 1083 619 1097 q 608 1061 619 1071 l 442 903 q 403 889 427 889 z "},"":{"ha":833,"x_min":100,"x_max":750,"o":"m 624 642 q 723 614 677 642 q 750 572 750 598 q 744 544 750 560 q 705 505 730 505 q 686 511 694 505 q 614 529 652 529 q 492 487 553 529 q 390 374 430 444 q 351 224 351 303 l 351 92 l 579 92 q 612 82 602 92 q 622 46 622 71 q 612 11 622 21 q 579 0 602 0 l 142 0 q 110 11 119 0 q 100 46 100 21 q 110 82 100 71 q 142 92 119 92 l 249 92 l 249 534 l 163 534 q 130 545 140 534 q 120 581 120 555 q 130 616 120 606 q 163 627 140 627 l 301 627 q 334 616 324 627 q 344 581 344 606 l 344 444 q 422 548 376 503 q 521 617 469 593 q 624 642 573 642 m 437 706 q 397 720 412 706 l 231 878 q 220 900 220 888 q 236 932 220 914 q 266 948 250 948 q 287 940 277 948 l 437 823 l 587 940 q 608 948 597 948 q 637 932 623 948 q 653 900 653 914 q 642 878 653 888 l 476 720 q 437 706 461 706 z "},"":{"ha":833,"x_min":107,"x_max":722,"o":"m 640 820 q 679 810 667 820 q 690 776 690 800 l 690 620 q 679 586 690 596 q 640 576 667 576 q 604 593 614 576 q 513 687 572 655 q 378 720 454 720 q 263 685 304 720 q 222 592 222 650 q 236 545 222 564 q 277 513 250 526 q 332 493 300 500 q 418 475 364 485 q 510 455 476 463 q 578 434 545 448 q 684 356 646 406 q 722 222 722 307 q 689 98 722 151 q 591 15 656 45 q 435 -15 526 -15 q 310 10 368 -15 q 209 82 252 35 l 209 29 q 197 -5 209 5 q 158 -15 186 -15 q 119 -5 130 -15 q 107 29 107 5 l 107 233 q 119 267 107 256 q 158 277 130 277 q 197 248 187 277 q 286 127 225 170 q 435 85 347 85 q 569 123 522 85 q 615 222 615 160 q 594 291 615 264 q 532 336 572 318 q 475 354 506 347 q 392 372 445 361 q 299 393 336 383 q 229 416 261 402 q 145 483 175 441 q 115 592 115 524 q 148 713 115 662 q 242 792 182 765 q 378 820 302 820 q 494 797 438 820 q 589 734 549 774 l 589 776 q 600 810 589 800 q 640 820 612 820 m 515 1134 q 540 1143 527 1143 q 585 1115 563 1143 q 606 1069 606 1088 q 591 1042 606 1051 l 337 894 q 315 887 325 887 q 284 904 299 887 q 268 939 268 922 q 279 960 268 952 l 515 1134 z "},"":{"ha":833,"x_min":121,"x_max":712,"o":"m 630 642 q 669 631 658 642 q 681 597 681 621 l 681 469 q 669 435 681 445 q 630 425 658 425 q 597 442 607 425 q 513 520 568 498 q 372 543 457 543 q 269 520 306 543 q 232 454 232 496 q 246 419 232 433 q 287 397 260 406 q 339 385 309 389 q 415 376 368 381 q 521 362 481 369 q 597 343 562 356 q 682 286 652 323 q 712 188 712 249 q 681 81 712 127 q 591 10 650 35 q 449 -15 532 -15 q 320 5 376 -15 q 223 67 264 26 l 223 29 q 212 -5 223 5 q 172 -15 200 -15 q 133 -5 144 -15 q 121 29 121 5 l 121 192 q 133 226 121 216 q 172 236 144 236 q 195 230 186 236 q 209 208 203 223 q 290 113 233 143 q 442 83 347 83 q 563 112 521 83 q 605 188 605 140 q 590 226 605 211 q 547 250 575 241 q 493 263 524 258 q 414 273 462 268 q 308 287 351 279 q 229 309 265 294 q 152 363 180 328 q 125 454 125 398 q 156 556 125 513 q 241 620 186 598 q 365 642 296 642 q 485 622 431 642 q 579 567 540 602 l 579 597 q 591 631 579 621 q 630 642 602 642 m 515 951 q 540 960 527 960 q 585 932 563 960 q 606 886 606 905 q 591 859 606 868 l 337 711 q 315 704 325 704 q 284 721 299 704 q 268 756 268 739 q 279 777 268 769 l 515 951 z "},"":{"ha":833,"x_min":107,"x_max":722,"o":"m 414 1130 q 453 1116 438 1130 l 619 958 q 630 936 630 948 q 614 904 630 922 q 585 888 600 888 q 564 896 574 888 l 414 1013 l 264 896 q 243 888 254 888 q 213 904 227 888 q 197 936 197 922 q 208 958 197 948 l 374 1116 q 414 1130 389 1130 m 640 820 q 679 810 667 820 q 690 776 690 800 l 690 620 q 679 586 690 596 q 640 576 667 576 q 604 593 614 576 q 513 687 572 655 q 378 720 454 720 q 263 685 304 720 q 222 592 222 650 q 236 545 222 564 q 277 513 250 526 q 332 493 300 500 q 418 475 364 485 q 510 455 476 463 q 578 434 545 448 q 684 356 646 406 q 722 222 722 307 q 689 98 722 151 q 591 15 656 45 q 435 -15 526 -15 q 310 10 368 -15 q 209 82 252 35 l 209 29 q 197 -5 209 5 q 158 -15 186 -15 q 119 -5 130 -15 q 107 29 107 5 l 107 233 q 119 267 107 256 q 158 277 130 277 q 197 248 187 277 q 286 127 225 170 q 435 85 347 85 q 569 123 522 85 q 615 222 615 160 q 594 291 615 264 q 532 336 572 318 q 475 354 506 347 q 392 372 445 361 q 299 393 336 383 q 229 416 261 402 q 145 483 175 441 q 115 592 115 524 q 148 713 115 662 q 242 792 182 765 q 378 820 302 820 q 494 797 438 820 q 589 734 549 774 l 589 776 q 600 810 589 800 q 640 820 612 820 z "},"":{"ha":833,"x_min":121,"x_max":712,"o":"m 410 947 q 449 933 434 947 l 615 775 q 626 753 626 765 q 610 721 626 739 q 581 705 596 705 q 559 713 570 705 l 410 830 l 260 713 q 239 705 250 705 q 209 721 223 705 q 193 753 193 739 q 204 775 193 765 l 370 933 q 410 947 385 947 m 630 642 q 669 631 658 642 q 681 597 681 621 l 681 469 q 669 435 681 445 q 630 425 658 425 q 597 442 607 425 q 513 520 568 498 q 372 543 457 543 q 269 520 306 543 q 232 454 232 496 q 246 419 232 433 q 287 397 260 406 q 339 385 309 389 q 415 376 368 381 q 521 362 481 369 q 597 343 562 356 q 682 286 652 323 q 712 188 712 249 q 681 81 712 127 q 591 10 650 35 q 449 -15 532 -15 q 320 5 376 -15 q 223 67 264 26 l 223 29 q 212 -5 223 5 q 172 -15 200 -15 q 133 -5 144 -15 q 121 29 121 5 l 121 192 q 133 226 121 216 q 172 236 144 236 q 195 230 186 236 q 209 208 203 223 q 290 113 233 143 q 442 83 347 83 q 563 112 521 83 q 605 188 605 140 q 590 226 605 211 q 547 250 575 241 q 493 263 524 258 q 414 273 462 268 q 308 287 351 279 q 229 309 265 294 q 152 363 180 328 q 125 454 125 398 q 156 556 125 513 q 241 620 186 598 q 365 642 296 642 q 485 622 431 642 q 579 567 540 602 l 579 597 q 591 631 579 621 q 630 642 602 642 z "},"":{"ha":833,"x_min":107,"x_max":722,"o":"m 722 222 q 692 104 722 155 q 604 21 663 52 q 463 -14 546 -9 l 463 -77 q 566 -108 532 -76 q 601 -191 601 -140 q 559 -285 601 -250 q 435 -320 517 -320 q 345 -312 389 -320 q 267 -288 302 -304 q 252 -264 252 -281 q 257 -240 252 -254 q 288 -210 269 -210 q 297 -211 294 -210 q 361 -229 326 -222 q 428 -237 396 -237 q 482 -225 463 -237 q 502 -193 502 -214 q 484 -160 502 -171 q 423 -149 465 -149 l 397 -150 q 380 -143 387 -150 q 374 -120 374 -136 l 374 -9 q 209 82 273 9 l 209 29 q 197 -5 209 5 q 158 -15 186 -15 q 119 -5 130 -15 q 107 29 107 5 l 107 233 q 119 267 107 256 q 158 277 130 277 q 197 248 187 277 q 286 127 225 170 q 435 85 347 85 q 569 123 522 85 q 615 222 615 160 q 594 291 615 264 q 532 336 572 318 q 475 354 506 347 q 392 372 445 361 q 299 393 336 383 q 229 416 261 402 q 145 483 175 441 q 115 592 115 524 q 148 713 115 662 q 242 792 182 765 q 378 820 302 820 q 494 797 438 820 q 589 734 549 774 l 589 776 q 600 810 589 800 q 640 820 612 820 q 679 810 667 820 q 690 776 690 800 l 690 620 q 679 586 690 596 q 640 576 667 576 q 604 593 614 576 q 513 687 572 655 q 378 720 454 720 q 263 685 304 720 q 222 592 222 650 q 236 545 222 564 q 277 513 250 526 q 332 493 300 500 q 418 475 364 485 q 510 455 476 463 q 578 434 545 448 q 684 356 646 406 q 722 222 722 307 z "},"":{"ha":833,"x_min":121,"x_max":712,"o":"m 712 188 q 684 85 712 130 q 601 15 656 41 q 470 -14 547 -12 l 470 -77 q 573 -108 538 -76 q 608 -191 608 -140 q 566 -285 608 -250 q 441 -320 524 -320 q 352 -312 395 -320 q 274 -288 309 -304 q 258 -264 258 -281 q 264 -240 258 -254 q 295 -210 275 -210 q 304 -211 300 -210 q 368 -229 333 -222 q 435 -237 403 -237 q 489 -225 469 -237 q 509 -193 509 -214 q 490 -160 509 -171 q 430 -149 472 -149 l 404 -150 q 387 -143 393 -150 q 380 -120 380 -136 l 380 -10 q 223 67 286 5 l 223 29 q 212 -5 223 5 q 172 -15 200 -15 q 133 -5 144 -15 q 121 29 121 5 l 121 192 q 133 226 121 216 q 172 236 144 236 q 195 230 186 236 q 209 208 203 223 q 290 113 233 143 q 442 83 347 83 q 563 112 521 83 q 605 188 605 140 q 590 226 605 211 q 547 250 575 241 q 493 263 524 258 q 414 273 462 268 q 308 287 351 279 q 229 309 265 294 q 152 363 180 328 q 125 454 125 398 q 156 556 125 513 q 241 620 186 598 q 365 642 296 642 q 485 622 431 642 q 579 567 540 602 l 579 597 q 591 631 579 621 q 630 642 602 642 q 669 631 658 642 q 681 597 681 621 l 681 469 q 669 435 681 445 q 630 425 658 425 q 597 442 607 425 q 513 520 568 498 q 372 543 457 543 q 269 520 306 543 q 232 454 232 496 q 246 419 232 433 q 287 397 260 406 q 339 385 309 389 q 415 376 368 381 q 521 362 481 369 q 597 343 562 356 q 682 286 652 323 q 712 188 712 249 z "},"":{"ha":833,"x_min":107,"x_max":722,"o":"m 640 820 q 679 810 667 820 q 690 776 690 800 l 690 620 q 679 586 690 596 q 640 576 667 576 q 604 593 614 576 q 513 687 572 655 q 378 720 454 720 q 263 685 304 720 q 222 592 222 650 q 236 545 222 564 q 277 513 250 526 q 332 493 300 500 q 418 475 364 485 q 510 455 476 463 q 578 434 545 448 q 684 356 646 406 q 722 222 722 307 q 689 98 722 151 q 591 15 656 45 q 435 -15 526 -15 q 310 10 368 -15 q 209 82 252 35 l 209 29 q 197 -5 209 5 q 158 -15 186 -15 q 119 -5 130 -15 q 107 29 107 5 l 107 233 q 119 267 107 256 q 158 277 130 277 q 197 248 187 277 q 286 127 225 170 q 435 85 347 85 q 569 123 522 85 q 615 222 615 160 q 594 291 615 264 q 532 336 572 318 q 475 354 506 347 q 392 372 445 361 q 299 393 336 383 q 229 416 261 402 q 145 483 175 441 q 115 592 115 524 q 148 713 115 662 q 242 792 182 765 q 378 820 302 820 q 494 797 438 820 q 589 734 549 774 l 589 776 q 600 810 589 800 q 640 820 612 820 m 399 889 q 360 903 375 889 l 194 1061 q 183 1083 183 1071 q 199 1115 183 1097 q 229 1131 213 1131 q 250 1123 239 1131 l 399 1006 l 549 1123 q 570 1131 559 1131 q 600 1115 586 1131 q 616 1083 616 1097 q 605 1061 616 1071 l 439 903 q 399 889 424 889 z "},"":{"ha":833,"x_min":121,"x_max":712,"o":"m 630 642 q 669 631 658 642 q 681 597 681 621 l 681 469 q 669 435 681 445 q 630 425 658 425 q 597 442 607 425 q 513 520 568 498 q 372 543 457 543 q 269 520 306 543 q 232 454 232 496 q 246 419 232 433 q 287 397 260 406 q 339 385 309 389 q 415 376 368 381 q 521 362 481 369 q 597 343 562 356 q 682 286 652 323 q 712 188 712 249 q 681 81 712 127 q 591 10 650 35 q 449 -15 532 -15 q 320 5 376 -15 q 223 67 264 26 l 223 29 q 212 -5 223 5 q 172 -15 200 -15 q 133 -5 144 -15 q 121 29 121 5 l 121 192 q 133 226 121 216 q 172 236 144 236 q 195 230 186 236 q 209 208 203 223 q 290 113 233 143 q 442 83 347 83 q 563 112 521 83 q 605 188 605 140 q 590 226 605 211 q 547 250 575 241 q 493 263 524 258 q 414 273 462 268 q 308 287 351 279 q 229 309 265 294 q 152 363 180 328 q 125 454 125 398 q 156 556 125 513 q 241 620 186 598 q 365 642 296 642 q 485 622 431 642 q 579 567 540 602 l 579 597 q 591 631 579 621 q 630 642 602 642 m 412 706 q 372 720 387 706 l 206 878 q 195 900 195 888 q 211 932 195 914 q 241 948 225 948 q 262 940 252 948 l 412 823 l 562 940 q 583 948 572 948 q 612 932 598 948 q 628 900 628 914 q 617 878 628 888 l 451 720 q 412 706 436 706 z "},"":{"ha":833,"x_min":83,"x_max":750,"o":"m 707 805 q 740 794 730 805 q 750 759 750 784 l 750 503 q 739 469 750 479 q 699 459 727 459 q 660 469 671 459 q 648 503 648 479 l 648 713 l 467 713 l 467 92 l 627 92 q 660 82 650 92 q 670 46 670 71 q 660 11 670 21 q 627 0 650 0 l 205 0 q 173 11 182 0 q 163 46 163 21 q 173 82 163 71 q 205 92 182 92 l 366 92 l 366 713 l 184 713 l 184 503 q 173 469 184 479 q 134 459 161 459 q 94 469 106 459 q 83 503 83 479 l 83 759 q 93 794 83 784 q 125 805 102 805 l 707 805 m 358 -357 q 323 -349 334 -357 q 311 -326 311 -340 q 313 -315 311 -323 l 355 -121 q 384 -99 361 -99 l 463 -99 q 481 -117 481 -99 q 477 -134 481 -125 l 398 -331 q 358 -357 388 -357 z "},"":{"ha":833,"x_min":79,"x_max":743,"o":"m 311 820 q 350 810 338 820 q 361 776 361 800 l 361 572 l 640 572 q 673 562 663 572 q 683 526 683 551 q 673 491 683 501 q 640 480 663 480 l 361 480 l 361 233 q 388 120 361 156 q 481 84 415 84 q 577 102 527 84 q 674 151 627 121 q 695 158 684 158 q 734 127 718 158 q 743 96 743 109 q 721 61 743 75 q 603 6 668 28 q 481 -15 538 -15 q 313 45 366 -15 q 260 224 260 105 l 260 480 l 122 480 q 89 491 99 480 q 79 526 79 501 q 89 562 79 551 q 122 572 99 572 l 260 572 l 260 776 q 271 810 260 800 q 311 820 283 820 m 399 -357 q 363 -349 375 -357 q 352 -326 352 -340 q 353 -315 352 -323 l 396 -121 q 425 -99 401 -99 l 503 -99 q 522 -117 522 -99 q 518 -134 522 -125 l 439 -331 q 399 -357 429 -357 z "},"":{"ha":833,"x_min":83,"x_max":750,"o":"m 707 805 q 740 794 730 805 q 750 759 750 784 l 750 503 q 739 469 750 479 q 699 459 727 459 q 660 469 671 459 q 648 503 648 479 l 648 713 l 467 713 l 467 92 l 627 92 q 660 82 650 92 q 670 46 670 71 q 660 11 670 21 q 627 0 650 0 l 205 0 q 173 11 182 0 q 163 46 163 21 q 173 82 163 71 q 205 92 182 92 l 366 92 l 366 713 l 184 713 l 184 503 q 173 469 184 479 q 134 459 161 459 q 94 469 106 459 q 83 503 83 479 l 83 759 q 93 794 83 784 q 125 805 102 805 l 707 805 m 416 889 q 377 903 392 889 l 211 1061 q 200 1083 200 1071 q 216 1115 200 1097 q 245 1131 230 1131 q 267 1123 256 1131 l 416 1006 l 566 1123 q 587 1131 576 1131 q 617 1115 603 1131 q 633 1083 633 1097 q 622 1061 633 1071 l 456 903 q 416 889 441 889 z "},"":{"ha":833,"x_min":79,"x_max":743,"o":"m 311 820 q 350 810 338 820 q 361 776 361 800 l 361 572 l 640 572 q 673 562 663 572 q 683 526 683 551 q 673 491 683 501 q 640 480 663 480 l 361 480 l 361 233 q 388 120 361 156 q 481 84 415 84 q 577 102 527 84 q 674 151 627 121 q 695 158 684 158 q 734 127 718 158 q 743 96 743 109 q 721 61 743 75 q 603 6 668 28 q 481 -15 538 -15 q 313 45 366 -15 q 260 224 260 105 l 260 480 l 122 480 q 89 491 99 480 q 79 526 79 501 q 89 562 79 551 q 122 572 99 572 l 260 572 l 260 776 q 271 810 260 800 q 311 820 283 820 m 555 692 q 519 700 531 692 q 508 722 508 708 q 509 733 508 725 l 552 928 q 581 949 557 949 l 659 949 q 678 932 678 949 q 674 915 678 924 l 595 718 q 555 692 585 692 z "}}}
